<svg width="33" height="16" viewBox="0 0 33 16" fill="none" xmlns="http://www.w3.org/2000/svg">
<path d="M1 7C0.447715 7 -4.82823e-08 7.44772 0 8C4.82823e-08 8.55228 0.447715 9 1 9L1 7ZM32.7071 8.7071C33.0976 8.31658 33.0976 7.68341 32.7071 7.29289L26.3431 0.92893C25.9526 0.538406 25.3195 0.538406 24.9289 0.92893C24.5384 1.31945 24.5384 1.95262 24.9289 2.34314L30.5858 8L24.9289 13.6569C24.5384 14.0474 24.5384 14.6805 24.9289 15.0711C25.3195 15.4616 25.9526 15.4616 26.3431 15.0711L32.7071 8.7071ZM1 9L32 9L32 7L1 7L1 9Z" fill="#151921"/>
</svg>
