<svg width="397" height="480" viewBox="0 0 397 480" fill="none" xmlns="http://www.w3.org/2000/svg">
<path d="M-2.17942e-06 20C-9.7576e-07 8.95431 8.95431 6.28015e-07 20 1.40271e-06L376.017 2.63721e-05C387.062 2.71468e-05 396.017 8.95433 396.017 20L396.017 460C396.017 471.046 387.062 480 376.017 480L-5.23061e-05 480L-2.17942e-06 20Z" fill="#416552"/>
<mask id="mask0_3872_50559" style="mask-type:alpha" maskUnits="userSpaceOnUse" x="0" y="0" width="397" height="480">
<path d="M0.188474 20C0.188476 8.95431 9.14278 6.28015e-07 20.1885 1.40271e-06L376.189 2.6371e-05C387.234 2.71457e-05 396.189 8.95433 396.189 20L396.189 460C396.189 471.046 387.234 480 376.189 480L0.188424 480L0.188474 20Z" fill="#416552"/>
</mask>
<g mask="url(#mask0_3872_50559)">
<path fill-rule="evenodd" clip-rule="evenodd" d="M361.456 193.888C361.239 194.105 -51.7215 607.059 -51.9393 607.273C-96.4824 651.118 -168.136 650.9 -212.415 606.621C-256.694 562.342 -256.91 490.687 -213.063 446.144C-212.849 445.927 200.11 32.972 200.326 32.756C244.819 -11.7366 316.958 -11.7342 361.453 32.7612C405.947 77.2567 405.949 149.396 361.456 193.888ZM298.166 153.88C294.379 157.666 288.238 157.665 284.45 153.877C280.662 150.088 280.661 143.948 284.447 140.161C288.234 136.375 294.375 136.376 298.163 140.164C301.951 143.952 301.952 150.093 298.166 153.88ZM-68.7079 506.978C-64.9197 510.766 -58.7791 510.768 -54.9925 506.981C-51.2058 503.194 -51.2071 497.054 -54.9953 493.266C-58.7835 489.477 -64.9242 489.476 -68.7108 493.262C-72.4974 497.049 -72.4961 503.19 -68.7079 506.978ZM267.254 184.739C263.467 188.526 257.326 188.524 253.538 184.736C249.75 180.948 249.749 174.807 253.535 171.021C257.322 167.234 263.462 167.235 267.251 171.024C271.039 174.812 271.04 180.952 267.254 184.739ZM-99.54 537.776C-95.7518 541.564 -89.6111 541.565 -85.8245 537.779C-82.0379 533.992 -82.0391 527.852 -85.8274 524.063C-89.6156 520.275 -95.7562 520.274 -99.5428 524.06C-103.329 527.847 -103.328 533.988 -99.54 537.776ZM250.146 105.863C246.36 109.65 240.219 109.648 236.431 105.86C232.642 102.072 232.641 95.9311 236.428 92.1445C240.214 88.358 246.355 88.3593 250.143 92.1476C253.932 95.9358 253.933 102.076 250.146 105.863ZM-116.692 458.992C-112.904 462.78 -106.763 462.781 -102.977 458.995C-99.1902 455.208 -99.1915 449.067 -102.98 445.279C-106.768 441.491 -112.909 441.49 -116.695 445.276C-120.482 449.063 -120.481 455.203 -116.692 458.992ZM219.229 136.713C215.443 140.499 209.302 140.498 205.514 136.71C201.725 132.921 201.724 126.781 205.511 122.994C209.297 119.208 215.438 119.209 219.226 122.997C223.015 126.785 223.016 132.926 219.229 136.713ZM-147.516 489.798C-143.728 493.587 -137.587 493.588 -133.801 489.801C-130.014 486.015 -130.015 479.874 -133.803 476.086C-137.592 472.298 -143.732 472.296 -147.519 476.083C-151.306 479.869 -151.304 486.01 -147.516 489.798Z" fill="#F7C96E"/>
</g>
</svg>
