<svg width="282" height="480" viewBox="0 0 282 480" fill="none" xmlns="http://www.w3.org/2000/svg">
<path d="M0.369139 20C0.36914 8.95431 9.32345 8.83874e-07 20.3691 1.97419e-06L261.369 2.57632e-05C272.415 2.68535e-05 281.369 8.95433 281.369 20L281.369 460C281.369 471.046 272.415 480 261.369 480L0.369103 480L0.369139 20Z" fill="#416552"/>
<mask id="mask0_3907_50541" style="mask-type:alpha" maskUnits="userSpaceOnUse" x="0" y="0" width="282" height="480">
<path d="M-1.54853e-06 20C-6.93303e-07 8.95431 8.9543 8.83874e-07 20 1.97419e-06L261.368 2.57995e-05C272.414 2.68898e-05 281.368 8.95433 281.368 20L281.368 460C281.368 471.046 272.414 480 261.368 480L-3.71648e-05 480L-1.54853e-06 20Z" fill="#416552"/>
</mask>
<g mask="url(#mask0_3907_50541)">
<path fill-rule="evenodd" clip-rule="evenodd" d="M248.193 187.108C247.984 187.317 -150.586 585.876 -150.796 586.083C-193.787 628.399 -262.944 628.189 -305.679 585.454C-348.415 542.718 -348.624 473.56 -306.304 430.57C-306.098 430.361 92.4697 31.8006 92.6782 31.5922C135.621 -11.3495 205.246 -11.3472 248.19 31.5972C291.135 74.5417 291.136 144.166 248.193 187.108ZM187.109 148.494C183.455 152.148 177.528 152.147 173.872 148.491C170.216 144.835 170.214 138.908 173.869 135.253C177.524 131.599 183.45 131.6 187.107 135.256C190.763 138.913 190.764 144.839 187.109 148.494ZM-166.979 489.284C-163.323 492.94 -157.396 492.941 -153.741 489.287C-150.087 485.632 -150.088 479.706 -153.744 476.049C-157.4 472.393 -163.327 472.392 -166.981 476.047C-170.636 479.701 -170.635 485.628 -166.979 489.284ZM157.274 178.277C153.62 181.932 147.693 181.93 144.037 178.274C140.381 174.618 140.379 168.691 144.034 165.037C147.689 161.382 153.615 161.384 157.272 165.04C160.928 168.696 160.929 174.623 157.274 178.277ZM-196.737 519.009C-193.08 522.665 -187.154 522.667 -183.499 519.012C-179.844 515.357 -179.846 509.431 -183.502 505.775C-187.158 502.118 -193.085 502.117 -196.739 505.772C-200.394 509.426 -200.393 515.353 -196.737 519.009ZM140.764 102.151C137.109 105.805 131.182 105.804 127.526 102.148C123.87 98.4916 123.869 92.565 127.523 88.9104C131.178 85.2558 137.105 85.2571 140.761 88.9134C144.417 92.5696 144.418 98.4961 140.764 102.151ZM-213.291 442.97C-209.635 446.626 -203.708 446.628 -200.054 442.973C-196.399 439.318 -196.4 433.392 -200.056 429.736C-203.713 426.079 -209.639 426.078 -213.294 429.733C-216.949 433.387 -216.947 439.314 -213.291 442.97ZM110.923 131.925C107.268 135.58 101.342 135.578 97.6853 131.922C94.0291 128.266 94.0279 122.339 97.6826 118.685C101.337 115.03 107.264 115.032 110.92 118.688C114.576 122.344 114.578 128.271 110.923 131.925ZM-243.04 472.703C-239.384 476.359 -233.457 476.36 -229.803 472.706C-226.148 469.051 -226.149 463.125 -229.805 459.468C-233.462 455.812 -239.388 455.811 -243.043 459.466C-246.698 463.12 -246.696 469.047 -243.04 472.703Z" fill="#F7C96E"/>
</g>
</svg>
