<svg width="1156" height="730" viewBox="0 0 1156 730" fill="none" xmlns="http://www.w3.org/2000/svg">
<rect x="2" y="4" width="1153" height="725" fill="#151921" stroke="#F8F5F1" stroke-width="2"/>
<rect opacity="0.9" x="335" y="5" width="244" height="725" fill="#F8F5F1"/>
<rect opacity="0.8" x="185" y="5" width="153" height="725" fill="#F8F5F1"/>
<rect x="94.5" y="3.5" width="92" height="726" stroke="#F8F5F1"/>
<rect opacity="0.6" x="34" y="5" width="63" height="725" fill="#F8F5F1"/>
<rect opacity="0.7" x="97" y="5" width="88" height="725" fill="#F8F5F1"/>
<rect opacity="0.5" x="2" y="5" width="32" height="725" fill="#F8F5F1"/>
<g opacity="0.3">
<path d="M1153.5 366.373C1153.5 466.483 1089.29 557.19 985.319 622.893C881.356 688.593 737.702 729.246 579 729.246C420.298 729.246 276.644 688.593 172.681 622.893C68.7114 557.19 4.5 466.483 4.5 366.373C4.5 266.262 68.7114 175.556 172.681 109.852C276.644 44.1524 420.298 3.5 579 3.5C737.702 3.5 881.356 44.1524 985.319 109.852C1089.29 175.556 1153.5 266.262 1153.5 366.373Z" stroke="#F8F5F1"/>
<path d="M972.565 366.373C972.565 566.744 796.4 729.246 579.003 729.246C361.605 729.246 185.441 566.744 185.441 366.373C185.441 166.001 361.605 3.5 579.003 3.5C796.4 3.5 972.565 166.001 972.565 366.373Z" stroke="#F8F5F1"/>
<path d="M820.605 366.564C820.605 466.839 793.435 557.598 749.533 623.274C705.628 688.954 645.029 729.5 578.16 729.5C511.29 729.5 450.691 688.954 406.787 623.274C362.884 557.598 335.714 466.839 335.714 366.564C335.714 266.289 362.884 175.53 406.787 109.854C450.691 44.1743 511.29 3.62793 578.16 3.62793C645.029 3.62793 705.628 44.1743 749.533 109.854C793.435 175.53 820.605 266.289 820.605 366.564Z" stroke="#F8F5F1"/>
<path d="M1063.03 366.373C1063.03 466.523 1008.9 557.23 921.317 622.916C833.728 688.603 712.703 729.246 579.001 729.246C445.3 729.246 324.275 688.603 236.686 622.916C149.098 557.23 94.9705 466.523 94.9705 366.373C94.9705 266.223 149.098 175.516 236.686 109.829C324.275 44.1428 445.3 3.5 579.001 3.5C712.703 3.5 833.728 44.1428 921.317 109.829C1008.9 175.516 1063.03 266.223 1063.03 366.373Z" stroke="#F8F5F1"/>
<path d="M1123.92 366.373C1123.92 466.496 1063.01 557.202 964.393 622.9C865.784 688.596 729.527 729.246 578.997 729.246C428.468 729.246 292.211 688.596 193.602 622.9C94.9892 557.202 34.074 466.496 34.074 366.373C34.074 266.25 94.9892 175.544 193.602 109.846C292.211 44.1499 428.468 3.5 578.997 3.5C729.527 3.5 865.784 44.1499 964.393 109.846C1063.01 175.544 1123.92 266.25 1123.92 366.373Z" stroke="#F8F5F1"/>
<line x1="223.606" y1="651.645" x2="934.394" y2="651.645" stroke="#F8F5F1"/>
<line x1="257.134" y1="63.7314" x2="896.675" y2="63.7314" stroke="#F8F5F1"/>
<line y1="-0.5" x2="1041.95" y2="-0.5" transform="matrix(1 1.3024e-05 -1.72833e-05 1 57.5679 212.652)" stroke="#F8F5F1"/>
<line x1="4.83813" y1="357.688" x2="1153.16" y2="357.689" stroke="#F8F5F1"/>
<line x1="47.5862" y1="504.667" x2="1110.41" y2="504.667" stroke="#F8F5F1"/>
</g>
<g opacity="0.3">
<path d="M1153.5 366.373C1153.5 466.483 1089.29 557.19 985.319 622.893C881.356 688.593 737.702 729.246 579 729.246C420.298 729.246 276.644 688.593 172.681 622.893C68.7114 557.19 4.5 466.483 4.5 366.373C4.5 266.262 68.7114 175.556 172.681 109.852C276.644 44.1524 420.298 3.5 579 3.5C737.702 3.5 881.356 44.1524 985.319 109.852C1089.29 175.556 1153.5 266.262 1153.5 366.373Z" stroke="#151921"/>
<path d="M972.565 366.373C972.565 566.744 796.4 729.246 579.003 729.246C361.605 729.246 185.441 566.744 185.441 366.373C185.441 166.001 361.605 3.5 579.003 3.5C796.4 3.5 972.565 166.001 972.565 366.373Z" stroke="#151921"/>
<path d="M820.605 366.564C820.605 466.839 793.435 557.598 749.533 623.274C705.628 688.954 645.029 729.5 578.16 729.5C511.29 729.5 450.691 688.954 406.787 623.274C362.884 557.598 335.714 466.839 335.714 366.564C335.714 266.289 362.884 175.53 406.787 109.854C450.691 44.1743 511.29 3.62793 578.16 3.62793C645.029 3.62793 705.628 44.1743 749.533 109.854C793.435 175.53 820.605 266.289 820.605 366.564Z" stroke="#151921"/>
<path d="M1063.03 366.373C1063.03 466.523 1008.9 557.23 921.317 622.916C833.728 688.603 712.703 729.246 579.001 729.246C445.3 729.246 324.275 688.603 236.686 622.916C149.098 557.23 94.9705 466.523 94.9705 366.373C94.9705 266.223 149.098 175.516 236.686 109.829C324.275 44.1428 445.3 3.5 579.001 3.5C712.703 3.5 833.728 44.1428 921.317 109.829C1008.9 175.516 1063.03 266.223 1063.03 366.373Z" stroke="#151921"/>
<path d="M1123.92 366.373C1123.92 466.496 1063.01 557.202 964.393 622.9C865.784 688.596 729.527 729.246 578.997 729.246C428.468 729.246 292.211 688.596 193.602 622.9C94.9892 557.202 34.074 466.496 34.074 366.373C34.074 266.25 94.9892 175.544 193.602 109.846C292.211 44.1499 428.468 3.5 578.997 3.5C729.527 3.5 865.784 44.1499 964.393 109.846C1063.01 175.544 1123.92 266.25 1123.92 366.373Z" stroke="#151921"/>
<line x1="223.606" y1="651.645" x2="934.394" y2="651.645" stroke="#151921"/>
<line x1="257.134" y1="63.7314" x2="896.675" y2="63.7314" stroke="#151921"/>
<line y1="-0.5" x2="1041.95" y2="-0.5" transform="matrix(1 1.3024e-05 -1.72833e-05 1 57.5679 212.652)" stroke="#151921"/>
<line x1="4.83813" y1="357.688" x2="1153.16" y2="357.689" stroke="#151921"/>
<line x1="47.5862" y1="504.667" x2="1110.41" y2="504.667" stroke="#151921"/>
</g>
<line x1="337.475" y1="0.843646" x2="577.475" y2="729.844" stroke="black"/>
<line y1="-0.5" x2="744.347" y2="-0.5" transform="matrix(0.20202 0.979381 -0.885237 0.46514 184 1)" stroke="black"/>
<line y1="-0.5" x2="734.489" y2="-0.5" transform="matrix(0.122026 0.992527 -0.750128 0.661293 94 1)" stroke="black"/>
<line y1="-0.5" x2="729.74" y2="-0.5" transform="matrix(0.0450341 0.998985 -0.384032 0.92332 1 1)" stroke="black"/>
<line y1="-0.5" x2="731.445" y2="-0.5" transform="matrix(0.0816894 0.996658 -0.603174 0.79761 34 1)" stroke="black"/>
<line x1="337.525" y1="727.843" x2="577.525" y2="3.84267" stroke="black"/>
<line y1="-0.5" x2="739.451" y2="-0.5" transform="matrix(0.203358 -0.979104 0.883913 0.467651 184.626 728)" stroke="black"/>
<line y1="-0.5" x2="729.527" y2="-0.5" transform="matrix(0.122856 -0.992424 0.747865 0.663851 94.3733 728)" stroke="black"/>
<line y1="-0.5" x2="724.745" y2="-0.5" transform="matrix(0.0453445 -0.998971 0.381783 0.924252 1.13672 728)" stroke="black"/>
<line y1="-0.5" x2="726.461" y2="-0.5" transform="matrix(0.0822497 -0.996612 0.600532 0.799601 34.2485 728)" stroke="black"/>
</svg>
