<svg width="804" height="1205" viewBox="0 0 804 1205" fill="none" xmlns="http://www.w3.org/2000/svg">
<rect x="2" y="2" width="800" height="1201" fill="#151921"/>
<path d="M21.4399 41.4219C21.4399 30.3762 30.3942 21.4219 41.4399 21.4219H62.4099C73.4556 21.4219 82.4099 30.3762 82.4099 41.4219V519.489H41.44C30.3943 519.489 21.4399 510.534 21.4399 499.489V41.4219Z" fill="#B35B58"/>
<path d="M82.4099 519.488H763.9C774.946 519.488 783.9 528.443 783.9 539.488V1163.58C783.9 1174.62 774.946 1183.58 763.9 1183.58H102.41C91.3642 1183.58 82.4099 1174.62 82.4099 1163.58V519.488Z" fill="#233156"/>
<path d="M21.4399 539.488C21.4399 528.443 30.3942 519.488 41.4399 519.488H82.4099V1163.58C82.4099 1174.62 73.4556 1183.58 62.4099 1183.58H41.44C30.3943 1183.58 21.4399 1174.62 21.4399 1163.58V539.488Z" fill="#416552"/>
<mask id="mask0_3133_47890" style="mask-type:alpha" maskUnits="userSpaceOnUse" x="81" y="519" width="702" height="665">
<path d="M81.0701 519.488H762.56C773.606 519.488 782.56 528.443 782.56 539.488V1163.58C782.56 1174.62 773.606 1183.58 762.56 1183.58H101.07C90.0244 1183.58 81.0701 1174.62 81.0701 1163.58V519.488Z" fill="#233156"/>
</mask>
<g mask="url(#mask0_3133_47890)">
<path fill-rule="evenodd" clip-rule="evenodd" d="M386.825 571.899C387.165 572.239 1036.31 1220.86 1036.65 1221.2C1105.57 1291.16 1105.23 1403.7 1035.62 1473.25C966.016 1542.79 853.377 1543.13 783.359 1474.27C783.017 1473.93 133.872 825.317 133.533 824.978C63.5925 755.095 63.5961 641.79 133.541 571.904C203.485 502.018 316.885 502.016 386.825 571.899ZM323.934 671.309C329.886 677.256 329.884 686.901 323.929 692.851C317.974 698.801 308.322 698.803 302.369 692.855C296.417 686.908 296.419 677.263 302.374 671.313C308.329 665.363 317.982 665.361 323.934 671.309ZM878.986 1247.53C884.941 1241.58 884.943 1231.94 878.99 1225.99C873.038 1220.05 863.385 1220.05 857.43 1226C851.475 1231.95 851.473 1241.59 857.426 1247.54C863.378 1253.49 873.031 1253.48 878.986 1247.53ZM372.443 719.858C378.395 725.805 378.393 735.45 372.438 741.4C366.483 747.35 356.831 747.352 350.878 741.404C344.926 735.457 344.928 725.812 350.883 719.862C356.838 713.912 366.491 713.91 372.443 719.858ZM927.399 1295.96C933.354 1290.01 933.356 1280.37 927.403 1274.42C921.451 1268.47 911.798 1268.47 905.843 1274.42C899.888 1280.37 899.886 1290.02 905.838 1295.97C911.791 1301.91 921.444 1301.91 927.399 1295.96ZM248.454 746.728C254.406 752.676 254.404 762.321 248.449 768.27C242.494 774.22 232.841 774.222 226.889 768.275C220.937 762.327 220.939 752.683 226.894 746.733C232.849 740.783 242.501 740.781 248.454 746.728ZM803.555 1322.9C809.51 1316.95 809.513 1307.31 803.56 1301.36C797.608 1295.41 787.955 1295.41 782 1301.36C776.045 1307.31 776.043 1316.96 781.995 1322.91C787.948 1328.85 797.6 1328.85 803.555 1322.9ZM296.948 795.287C302.9 801.234 302.898 810.879 296.943 816.829C290.988 822.779 281.335 822.781 275.383 816.833C269.431 810.886 269.433 801.241 275.388 795.291C281.343 789.341 290.996 789.339 296.948 795.287ZM851.981 1371.32C857.936 1365.37 857.938 1355.72 851.986 1349.77C846.034 1343.83 836.381 1343.83 830.426 1349.78C824.471 1355.73 824.469 1365.37 830.421 1371.32C836.374 1377.27 846.026 1377.27 851.981 1371.32Z" fill="#F7C96E"/>
</g>
<path d="M82.4099 41.4219C82.4099 30.3762 91.3642 21.4219 102.41 21.4219H763.23C774.276 21.4219 783.23 30.3762 783.23 41.4219V499.489C783.23 510.534 774.276 519.489 763.23 519.489H82.4099V41.4219Z" fill="#F8F5F1"/>
<path d="M106.546 199.322V187.363H103.019V213.606H106.546V199.922L118.89 213.606H123.505L110.185 199.51L122.68 187.363H118.365L106.546 199.322Z" fill="#151921"/>
<path d="M129.063 209.744V194.561H125.761V213.606H129.476L139.381 198.385V213.606H142.683V194.561H139.006L129.063 209.744Z" fill="#151921"/>
<path d="M151.377 204.721H160.795V213.606H164.097V194.561H160.795V202.396H151.377V194.561H148.076V213.606H151.377V204.721Z" fill="#151921"/>
<path d="M168.422 204.083C168.422 209.144 170.861 214.355 177.802 214.355C184.743 214.355 187.182 209.144 187.182 204.083C187.182 199.022 184.743 193.811 177.802 193.811C170.861 193.811 168.422 199.022 168.422 204.083ZM171.912 204.046C171.912 196.398 176.339 196.061 177.802 196.061C179.266 196.061 183.693 196.398 183.693 204.046C183.693 211.694 179.266 212.031 177.802 212.031C176.339 212.031 171.912 211.694 171.912 204.046Z" fill="#151921"/>
<path d="M194.796 196.885H204.439V213.606H207.741V194.561H191.495V213.606H194.796V196.885Z" fill="#151921"/>
<path d="M212.061 204.083C212.061 209.144 214.5 214.355 221.441 214.355C228.382 214.355 230.821 209.144 230.821 204.083C230.821 199.022 228.382 193.811 221.441 193.811C214.5 193.811 212.061 199.022 212.061 204.083ZM215.551 204.046C215.551 196.398 219.978 196.061 221.441 196.061C222.905 196.061 227.332 196.398 227.332 204.046C227.332 211.694 222.905 212.031 221.441 212.031C219.978 212.031 215.551 211.694 215.551 204.046Z" fill="#151921"/>
<path d="M238.435 202.884V194.561H235.134V213.606H238.435V204.083L246.99 213.606H250.93L241.512 203.409L250.442 194.561H246.577L238.435 202.884Z" fill="#151921"/>
<path d="M256.005 200.184C255.892 196.211 259.757 196.136 260.957 196.136C265.159 196.136 265.234 199.06 265.234 199.96C265.234 202.434 264.334 202.396 261.52 202.584C253.866 203.296 252.177 205.32 252.177 208.619C252.177 212.631 254.879 214.355 258.894 214.355C261.482 214.355 264.109 213.381 265.422 210.981C265.835 213.456 266.96 213.755 268.836 213.755C269.549 213.755 269.887 213.718 270.337 213.606V211.281C268.311 211.394 268.349 210.494 268.349 209.032L268.536 200.222C268.649 194.674 264.034 193.811 260.957 193.811C254.204 193.811 252.853 197.635 252.853 200.184H256.005ZM265.159 205.47C264.859 210.756 261.858 212.031 259.269 212.031C257.13 212.031 255.592 210.756 255.592 208.507C255.592 205.433 258.106 205.283 261.032 204.796C263.133 204.496 264.259 204.646 265.234 203.858L265.159 205.47Z" fill="#151921"/>
<path d="M272.728 207.757C272.841 209.894 273.892 214.355 281.208 214.355C287.924 214.355 289.312 210.906 289.312 208.507C289.312 205.433 287.249 203.933 285.298 203.633V203.521C286.423 203.221 288.599 202.359 288.599 199.36C288.599 197.71 287.849 193.811 281.058 193.811C279.107 193.811 273.516 194.149 273.216 199.81H276.368C276.368 198.497 277.156 196.136 280.87 196.136C284.81 196.136 285.185 198.572 285.185 199.585C285.185 202.396 282.559 202.546 281.208 202.546H278.769V204.871H281.583C282.559 204.871 285.898 204.946 285.898 208.282C285.898 210.869 283.834 212.031 280.945 212.031C277.531 212.031 275.88 209.969 275.88 207.757H272.728Z" fill="#151921"/>
<path d="M147.475 71.1156C147.404 67.9933 146.552 63.3099 140.941 60.0457C138.881 58.8393 134.549 56.9943 126.098 56.9943C120.629 56.9943 113.456 57.8459 108.627 62.9551C106.283 65.4387 103.798 69.7673 103.798 76.9344C103.798 84.8111 106.922 88.8559 108.698 90.6299C113.456 95.3843 120.629 95.7391 126.453 95.7391C132.987 95.7391 139.45 95.3843 143.782 90.9137C145.557 89.0688 147.617 85.8045 147.617 81.0501V80.8373H135.544C135.473 83.2499 134.336 85.1659 132.845 86.2303C131.069 87.5076 128.584 87.6495 126.95 87.6495C124.606 87.6495 121.766 87.3657 119.635 85.2369C118.002 83.6047 116.723 80.7663 116.723 76.7215C116.723 75.4442 116.794 70.9737 119.422 67.9933C121.411 65.7225 124.109 65.0839 126.879 65.0839C128.868 65.0839 131.14 65.4387 132.774 66.4322C135.117 67.9223 135.402 70.0512 135.473 71.1156H147.475Z" fill="#151921"/>
<path d="M163.956 72.3219C164.169 69.6254 165.518 67.7804 166.939 66.645C169.069 64.942 171.413 64.6581 173.97 64.6581C176.313 64.6581 179.225 64.871 181.356 66.787C182.35 67.6385 183.771 69.4125 183.913 72.3219H163.956ZM183.7 82.6113C183.202 84.953 181.853 86.1593 180.504 86.798C178.728 87.6495 175.887 87.7915 174.041 87.7915C171.626 87.7915 168.217 87.5076 166.087 85.3788C164.879 84.1724 163.743 82.0436 163.743 78.9213V78.7084H196.767V77.4311C196.767 73.1025 196.341 67.2837 191.867 62.8131C186.966 57.9168 179.509 56.9943 173.899 56.9943C168.217 56.9943 161.328 57.7749 156.357 62.6003C151.599 67.2127 150.959 73.2444 150.959 76.9344C150.959 81.405 151.812 86.3013 155.931 90.417C160.547 95.0295 166.726 95.7391 174.893 95.7391C180.717 95.7391 185.049 95.3133 188.458 93.8231C193.358 91.6234 195.844 87.2238 196.27 82.6113H183.7Z" fill="#151921"/>
<path d="M226.006 65.1549C229.486 65.1549 231.83 66.3612 233.392 68.1352C235.026 69.9802 236.02 72.8187 236.02 76.2957C236.02 77.573 235.878 81.7598 233.392 84.6692C231.404 87.0109 229.06 87.5786 226.219 87.5786C222.455 87.5786 220.183 86.1593 218.833 84.8111C216.845 82.7532 215.993 79.418 215.993 76.5086C215.993 73.3154 217.058 70.0512 219.046 67.9223C221.177 65.6516 223.734 65.1549 226.006 65.1549ZM203.848 58.3426V107.519H216.348V90.5589C217.484 92.0491 219.259 93.5393 221.177 94.3199C222.313 94.8166 224.586 95.5262 229.486 95.5262C233.961 95.5262 239.287 95.1714 243.69 90.9137C248.165 86.5142 248.946 80.5534 248.946 76.0829C248.946 71.7542 248.236 66.0064 243.69 61.7487C239.429 57.7039 234.174 57.2072 229.628 57.2072C227.072 57.2072 223.663 57.4201 220.68 58.9103C219.046 59.7618 217.342 61.1101 215.993 62.8841H215.78V58.3426H203.848Z" fill="#151921"/>
<path d="M267.365 72.3219C267.578 69.6254 268.927 67.7804 270.348 66.645C272.478 64.942 274.822 64.6581 277.379 64.6581C279.722 64.6581 282.634 64.871 284.765 66.787C285.759 67.6385 287.18 69.4125 287.322 72.3219H267.365ZM287.109 82.6113C286.611 84.953 285.262 86.1593 283.913 86.798C282.137 87.6495 279.296 87.7915 277.45 87.7915C275.035 87.7915 271.626 87.5076 269.496 85.3788C268.288 84.1724 267.152 82.0436 267.152 78.9213V78.7084H300.176V77.4311C300.176 73.1025 299.75 67.2837 295.276 62.8131C290.375 57.9168 282.918 56.9943 277.308 56.9943C271.626 56.9943 264.737 57.7749 259.766 62.6003C255.008 67.2127 254.368 73.2444 254.368 76.9344C254.368 81.405 255.221 86.3013 259.34 90.417C263.956 95.0295 270.135 95.7391 278.302 95.7391C284.126 95.7391 288.458 95.3133 291.867 93.8231C296.767 91.6234 299.253 87.2238 299.679 82.6113H287.109Z" fill="#151921"/>
<path d="M335.414 66.2902V86.4432H318.37C320.145 83.6047 321.423 80.6244 322.063 77.8569C322.702 75.3023 323.057 71.8962 323.057 68.7029V66.2902H335.414ZM301.538 86.4432L302.248 103.758H311.836V94.3908H343.227V103.758H352.814L353.524 86.4432H347.488V58.3426H312.688V64.0904C312.688 67.4966 312.617 71.4704 311.552 75.6571C310.344 80.4825 308.285 84.1015 306.58 86.4432H301.538Z" fill="#151921"/>
<path d="M371.08 82.4694V58.3426H358.58V94.3908H371.648L390.113 70.2641V94.3908H402.613V58.3426H389.474L371.08 82.4694Z" fill="#151921"/>
<path d="M424.067 79.7019H441.183V94.3908H453.683V58.3426H441.183V71.3285H424.067V58.3426H411.568V94.3908H424.067V79.7019Z" fill="#151921"/>
<path d="M490.737 78.3536C490.737 82.1855 489.672 84.3853 488.181 85.8755C485.979 88.0753 483.422 88.3591 481.15 88.3591C479.658 88.3591 477.741 88.2882 476.391 87.2238C475.539 86.5851 474.9 85.4497 474.9 84.1724C474.9 82.4694 475.965 81.5469 476.604 81.1211C477.812 80.3405 479.587 80.0567 481.647 79.8438L484.275 79.56C487.826 79.2052 489.317 78.9923 490.737 77.7859V78.3536ZM475.965 69.9802C476.036 67.7804 477.386 66.5741 478.025 66.0774C479.729 64.871 482.57 64.8001 483.422 64.8001C485.056 64.8001 487.044 65.0839 488.394 65.7935C490.24 66.787 490.666 68.2062 490.666 69.3416C490.666 70.1931 490.382 71.1156 489.814 71.6833C488.749 72.8187 486.547 72.9606 483.209 73.2444L477.528 73.7412C473.764 74.096 467.727 74.5217 464.318 77.7859C462.329 79.7019 461.619 82.1855 461.619 84.882C461.619 89.5655 463.892 92.1201 465.809 93.4683C468.863 95.5262 473.479 95.7391 477.03 95.7391C479.729 95.7391 482.783 95.5972 485.624 94.6747C487.968 93.8941 489.743 92.7587 491.234 90.8428H491.519L492.3 94.3908H505.936V93.3974C504.728 93.1845 504.16 92.333 503.947 91.9782C503.876 91.7653 503.379 90.8428 503.379 87.6495V71.6123C503.379 68.632 503.308 64.871 500.325 61.7487C496.277 57.4911 488.252 56.9943 483.209 56.9943C476.746 56.9943 470.852 57.562 466.804 61.5358C464.673 63.6647 463.324 66.4322 463.324 69.9802H475.965Z" fill="#151921"/>
<path d="M551.843 70.6898C548.576 70.6898 545.807 69.8383 544.102 68.3481C542.611 67.0708 541.332 64.8001 541.332 61.7487C541.332 58.4845 542.682 56.2847 544.102 55.0074C546.73 52.7367 550.707 52.6657 551.843 52.6657C555.11 52.6657 557.88 53.5172 559.585 55.0074C561.857 56.9234 562.212 59.407 562.212 61.4649C562.212 63.3808 561.857 66.2193 559.443 68.3481C558.093 69.5544 555.749 70.6898 551.843 70.6898ZM529.685 81.334C529.969 87.4366 533.307 90.9137 536.219 92.6878C539.202 94.4618 543.534 95.5972 551.346 95.5972C557.028 95.5972 563.278 95.1714 568.178 90.5589C571.658 87.2947 575.351 80.5534 575.351 67.7095C575.351 62.1035 574.641 54.7236 569.243 49.3305C563.846 43.9375 557.028 43.5827 551.062 43.5827C546.233 43.5827 539.77 43.7246 534.515 47.9113C531.177 50.5369 528.407 54.7945 528.407 61.3939C528.407 66.645 530.111 71.1156 534.301 74.3798C539.06 78.0698 545.096 78.4955 549.5 78.4955C556.815 78.4955 560.508 76.3667 563.065 73.3863C562.923 77.3602 561.644 81.9726 559.229 84.1724C556.744 86.4432 552.98 86.5142 551.346 86.5142C547.156 86.5142 545.239 85.5207 544.954 85.3788C542.753 84.2434 542.256 82.6113 542.185 81.334H529.685Z" fill="#151921"/>
<path d="M631.164 69.4835C631.164 63.9485 630.383 55.717 624.346 49.8273C618.665 44.2923 611.137 43.5117 605.597 43.5117C600.058 43.5117 592.53 44.2923 586.848 49.8273C580.811 55.717 580.03 63.9485 580.03 69.4835C580.03 74.9475 580.811 83.179 586.848 89.0688C592.53 94.6037 600.058 95.3843 605.597 95.3843C611.137 95.3843 618.665 94.6037 624.346 89.0688C630.383 83.179 631.164 74.9475 631.164 69.4835ZM605.597 53.1624C607.87 53.1624 610.142 53.3043 612.557 55.5751C616.037 58.7684 617.102 64.1614 617.102 69.4835C617.102 74.7346 616.037 80.1986 612.557 83.3919C610.213 85.5207 607.87 85.8045 605.597 85.8045C603.254 85.8045 600.839 85.3788 598.637 83.3919C595.654 80.6953 594.092 75.799 594.092 69.4835C594.092 64.1614 595.157 58.7684 598.637 55.5751C601.052 53.3043 603.325 53.1624 605.597 53.1624Z" fill="#151921"/>
<path d="M116.028 241.426V244.388H123.532C123.532 247.612 122.031 252.935 115.578 252.935C107.173 252.935 106.61 243.75 106.61 241.839C106.61 239.027 107.323 231.042 115.615 231.042C121.056 231.042 122.669 234.228 122.857 236.628H126.383C125.896 232.316 122.706 228.08 115.69 228.08C107.886 228.08 102.858 232.841 102.858 241.726C102.858 252.26 108.937 255.897 115.202 255.897C119.367 255.897 122.444 254.022 123.945 250.873H124.02V255.11H126.759V241.426H116.028Z" fill="black"/>
<path d="M134.159 241.689C134.046 237.715 137.911 237.64 139.112 237.64C143.314 237.64 143.389 240.564 143.389 241.464C143.389 243.938 142.488 243.9 139.674 244.088C132.02 244.8 130.332 246.825 130.332 250.124C130.332 254.135 133.033 255.859 137.048 255.859C139.637 255.859 142.263 254.885 143.576 252.485C143.989 254.96 145.115 255.26 146.991 255.26C147.704 255.26 148.041 255.222 148.492 255.11V252.785C146.465 252.898 146.503 251.998 146.503 250.536L146.691 241.726C146.803 236.178 142.188 235.315 139.112 235.315C132.358 235.315 131.007 239.139 131.007 241.689H134.159ZM143.314 246.974C143.014 252.26 140.012 253.535 137.423 253.535C135.284 253.535 133.746 252.26 133.746 250.011C133.746 246.937 136.26 246.787 139.187 246.3C141.288 246 142.413 246.15 143.389 245.362L143.314 246.974Z" fill="black"/>
<path d="M163.039 235.315L162.064 235.353C159.4 235.465 156.661 236.927 155.76 239.739H155.685V236.065H152.384V255.11H155.685V245.325C155.685 244.988 155.685 244.65 155.723 244.313C156.023 239.514 158.612 237.827 163.039 237.64V235.315Z" fill="black"/>
<path d="M167.429 241.689C167.316 237.715 171.181 237.64 172.381 237.64C176.583 237.64 176.658 240.564 176.658 241.464C176.658 243.938 175.758 243.9 172.944 244.088C165.29 244.8 163.602 246.825 163.602 250.124C163.602 254.135 166.303 255.859 170.318 255.859C172.906 255.859 175.533 254.885 176.846 252.485C177.259 254.96 178.384 255.26 180.26 255.26C180.973 255.26 181.311 255.222 181.761 255.11V252.785C179.735 252.898 179.773 251.998 179.773 250.536L179.96 241.726C180.073 236.178 175.458 235.315 172.381 235.315C165.628 235.315 164.277 239.139 164.277 241.689H167.429ZM176.583 246.974C176.283 252.26 173.282 253.535 170.693 253.535C168.554 253.535 167.016 252.26 167.016 250.011C167.016 246.937 169.53 246.787 172.456 246.3C174.557 246 175.683 246.15 176.658 245.362L176.583 246.974Z" fill="black"/>
<path d="M186.029 257.246C187.229 262.42 192.369 262.345 194.208 262.345C196.046 262.345 202.762 261.933 202.762 254.622V236.065H199.686V238.689H199.573C198.373 236.478 196.121 235.315 192.97 235.315C184.715 235.315 184.715 243.675 184.715 245.437C184.715 252.785 188.805 255.859 193.307 255.859C196.121 255.859 197.697 254.847 199.461 251.998V254.06C199.461 255.072 199.386 259.983 194.208 259.983C192.182 259.983 189.781 259.458 189.18 257.246H186.029ZM194.058 253.535C192.519 253.535 188.205 253.01 188.205 245.325C188.205 243.788 188.205 237.64 193.758 237.64C197.66 237.64 199.686 240.564 199.686 245.362C199.686 252.71 195.258 253.535 194.058 253.535Z" fill="black"/>
<path d="M221.883 249.599C221.47 251.698 219.782 253.535 216.593 253.535C212.24 253.535 210.552 249.599 210.552 246.337H225.222C225.222 246.037 225.185 245.7 225.185 245.4C224.997 241.276 223.984 235.315 216.368 235.315C207.55 235.315 207.063 243.038 207.063 245.662C207.063 247.387 207.25 255.859 216.705 255.859C222.558 255.859 224.547 252.298 225.035 249.599H221.883ZM210.552 244.013C210.552 241.614 211.565 237.64 216.443 237.64C220.757 237.64 221.62 241.464 221.733 244.013H210.552Z" fill="black"/>
<path d="M228.536 246.787C228.948 255.072 235.627 255.897 239.379 255.897C241.555 255.897 249.772 255.822 249.772 247.987C249.772 241.689 244.444 240.714 239.754 239.814C236.302 239.139 233.188 238.614 233.188 235.428C233.188 232.729 235.627 231.042 239.266 231.042C240.955 231.042 245.082 231.342 245.57 235.69H249.097C248.797 231.642 245.87 228.08 239.379 228.08C233.451 228.08 229.436 230.667 229.436 235.615C229.436 241.651 234.727 242.138 240.73 243.451C243.169 243.975 246.02 244.838 246.02 248.062C246.02 250.573 244.219 252.935 239.567 252.935C234.764 252.935 231.95 250.274 232.063 246.787H228.536Z" fill="black"/>
<path d="M267.528 248.324C267.416 250.423 266.215 253.535 262.463 253.535C258.261 253.535 256.573 249.749 256.573 245.437C256.573 241.126 258.111 237.64 262.238 237.64C263.401 237.64 266.665 237.79 267.378 242.026H270.53C270.117 238.464 267.528 235.315 262.163 235.315C254.772 235.315 253.083 241.014 253.083 245.437C253.083 255.597 260.475 255.859 262.388 255.859C269.179 255.859 270.492 250.573 270.68 248.324H267.528Z" fill="black"/>
<path d="M285.382 235.315L284.407 235.353C281.743 235.465 279.004 236.927 278.103 239.739H278.028V236.065H274.727V255.11H278.028V245.325C278.028 244.988 278.028 244.65 278.066 244.313C278.366 239.514 280.955 237.827 285.382 237.64V235.315Z" fill="black"/>
<path d="M300.88 249.599C300.467 251.698 298.779 253.535 295.59 253.535C291.238 253.535 289.549 249.599 289.549 246.337H304.219C304.219 246.037 304.182 245.7 304.182 245.4C303.994 241.276 302.981 235.315 295.365 235.315C286.548 235.315 286.06 243.038 286.06 245.662C286.06 247.387 286.247 255.859 295.702 255.859C301.556 255.859 303.544 252.298 304.032 249.599H300.88ZM289.549 244.013C289.549 241.614 290.562 237.64 295.44 237.64C299.755 237.64 300.618 241.464 300.73 244.013H289.549Z" fill="black"/>
<path d="M322.278 249.599C321.866 251.698 320.177 253.535 316.988 253.535C312.636 253.535 310.947 249.599 310.947 246.337H325.618C325.618 246.037 325.58 245.7 325.58 245.4C325.392 241.276 324.379 235.315 316.763 235.315C307.946 235.315 307.458 243.038 307.458 245.662C307.458 247.387 307.645 255.859 317.101 255.859C322.954 255.859 324.942 252.298 325.43 249.599H322.278ZM310.947 244.013C310.947 241.614 311.96 237.64 316.838 237.64C321.153 237.64 322.016 241.464 322.128 244.013H310.947Z" fill="black"/>
<path d="M329.944 236.065V255.11H333.246V244.725C333.246 238.427 336.923 237.64 338.724 237.64C342.813 237.64 342.738 241.426 342.738 243.451V255.11H346.04V242.438C346.04 238.652 344.764 235.315 339.774 235.315C336.773 235.315 334.559 236.815 333.246 238.727V236.065H329.944Z" fill="black"/>
<path d="M477.624 397.385H450.211C450.779 395.611 451.773 394.83 453.052 393.979C454.614 392.985 456.745 391.779 461.361 389.65L465.764 387.592C468.889 386.102 472.298 384.825 474.713 382.625C477.624 379.928 478.477 376.593 478.477 373.045C478.477 368.078 476.843 363.82 472.156 360.556C467.327 357.15 460.864 356.582 455.963 356.582C452.057 356.582 444.458 356.866 439.345 360.911C436.291 363.323 433.379 367.368 433.379 374.18V374.464H446.305V373.968C446.305 370.845 447.867 369.142 448.719 368.362C450.708 366.659 453.549 366.375 455.75 366.375C459.088 366.375 461.077 367.013 462.284 367.723C463.776 368.574 465.267 370.136 465.267 373.045C465.267 375.245 464.273 376.877 462.639 378.225C460.722 379.786 458.236 380.78 455.111 382.27L449.572 384.966C445.523 386.953 441.688 389.011 438.776 391.708C433.45 396.675 432.882 402.139 432.882 407.106V407.461H477.624V397.385Z" fill="black"/>
<path d="M484.811 372.406H494.754V407.461H507.821V357.788H497.949C497.31 360.982 495.535 363.039 494.043 364.104C492.055 365.523 488.433 366.446 485.237 366.446H484.811V372.406Z" fill="black"/>
<path d="M559.686 395.54V371.413H547.186V407.461H560.254L578.719 383.334V407.461H591.219V371.413H578.08L559.686 395.54Z" fill="black"/>
<path d="M641.934 377.799C645.627 377.799 648.041 379.148 649.391 380.425C651.379 382.341 652.587 385.534 652.587 389.153C652.587 392.559 651.521 396.107 649.391 398.307C647.189 400.507 644.632 401.004 642.076 401.004C639.306 401.004 636.678 400.578 634.477 398.449C631.778 395.894 631.281 392.346 631.281 389.721C631.281 385.463 632.63 382.412 634.477 380.567C636.891 378.154 639.874 377.799 641.934 377.799ZM612.673 384.683V371.413H600.174V407.461H612.673V392.488H619.136C619.633 397.881 622.19 401.358 624.108 403.274C629.15 408.313 635.755 408.809 642.502 408.809C648.183 408.809 655.214 408.384 660.541 402.849C663.169 400.081 665.512 395.824 665.512 389.437C665.512 382.696 662.885 378.509 660.115 375.883C656.564 372.548 650.527 369.994 641.579 369.994C636.607 369.994 630.144 370.845 625.386 374.961C624.108 376.096 620.912 379.219 619.704 384.683H612.673Z" fill="black"/>
<path d="M685.08 392.772H702.196V407.461H714.696V371.413H702.196V384.399H685.08V371.413H672.581V407.461H685.08V392.772Z" fill="black"/>
<path d="M750.33 378.651V387.876H742.447C738.257 387.876 736.836 386.953 736.339 386.457C735.558 385.747 735.061 384.541 735.061 383.263C735.061 381.915 735.558 380.922 736.268 380.212C737.902 378.651 740.884 378.651 743.015 378.651H750.33ZM744.506 395.114H750.33V407.461H762.83V371.413H738.399C735.061 371.413 730.729 371.839 727.604 374.038C723.911 376.664 723.129 380.496 723.129 383.405C723.129 385.037 723.271 388.444 725.686 390.856C727.391 392.63 730.587 393.837 733.214 394.12L721.922 407.461H735.487L744.506 395.114Z" fill="black"/>
<path d="M541.153 459.434H551.095V494.488H564.163V444.816H554.291C553.652 448.009 551.877 450.067 550.385 451.131C548.397 452.55 544.775 453.473 541.579 453.473H541.153V459.434Z" fill="black"/>
<path d="M602.18 470.787C598.913 470.787 596.143 469.936 594.439 468.446C592.947 467.168 591.669 464.898 591.669 461.846C591.669 458.582 593.018 456.382 594.439 455.105C597.066 452.834 601.044 452.763 602.18 452.763C605.447 452.763 608.217 453.615 609.921 455.105C612.194 457.021 612.549 459.505 612.549 461.563C612.549 463.478 612.194 466.317 609.779 468.446C608.43 469.652 606.086 470.787 602.18 470.787ZM580.022 481.432C580.306 487.534 583.644 491.011 586.555 492.785C589.538 494.559 593.871 495.695 601.683 495.695C607.364 495.695 613.614 495.269 618.514 490.657C621.994 487.392 625.687 480.651 625.687 467.807C625.687 462.201 624.977 454.821 619.58 449.428C614.182 444.035 607.364 443.68 601.399 443.68C596.569 443.68 590.106 443.822 584.851 448.009C581.513 450.635 578.743 454.892 578.743 461.492C578.743 466.743 580.448 471.213 584.638 474.477C589.396 478.167 595.433 478.593 599.836 478.593C607.151 478.593 610.844 476.464 613.401 473.484C613.259 477.458 611.981 482.07 609.566 484.27C607.08 486.541 603.316 486.612 601.683 486.612C597.493 486.612 595.575 485.618 595.291 485.476C593.089 484.341 592.592 482.709 592.521 481.432H580.022Z" fill="black"/>
<path d="M636.616 494.488H649.684V482.851H636.616V494.488ZM636.616 470.078H649.684V458.44H636.616V470.078Z" fill="black"/>
<path d="M660.087 477.955V478.167C660.087 481.715 660.726 486.541 664.348 490.373C669.107 495.34 676.848 495.624 684.234 495.624C692.401 495.624 698.793 494.843 703.125 490.302C705.398 487.96 706.889 484.554 706.889 480.012C706.889 476.961 706.037 474.336 703.836 472.136C702.202 470.575 699.716 469.155 696.663 468.801V468.446C700 468.091 701.989 466.317 702.557 465.749C704.546 463.762 705.114 461.279 705.114 458.866C705.114 454.892 703.693 450.209 698.367 447.016C695.881 445.525 691.265 443.751 682.459 443.751C677.558 443.751 670.669 444.319 666.124 447.867C663.922 449.57 660.371 453.473 660.371 460.427V460.64H673.155C673.155 457.66 674.788 456.028 675.783 455.318C677.416 454.112 679.973 453.544 682.53 453.544C684.447 453.544 687.43 453.899 689.063 454.75C691.336 455.886 692.046 457.731 692.046 459.292C692.046 460.782 691.407 462.201 690.413 463.053C688.708 464.543 685.654 464.827 681.18 464.827H678.41V473.626H681.109C684.447 473.626 687.359 473.555 689.632 474.406C691.833 475.258 693.254 476.677 693.254 479.232C693.254 481.715 691.904 483.56 690.342 484.483C688.353 485.618 685.015 485.831 682.956 485.831C681.109 485.831 677.558 485.618 675.428 484.057C673.013 482.212 672.871 479.587 672.871 478.238V477.955H660.087Z" fill="black"/>
<path d="M763.271 469.581C763.271 464.046 762.49 455.815 756.453 449.925C750.771 444.39 743.243 443.609 737.704 443.609C732.164 443.609 724.636 444.39 718.954 449.925C712.918 455.815 712.137 464.046 712.137 469.581C712.137 475.045 712.918 483.277 718.954 489.166C724.636 494.701 732.164 495.482 737.704 495.482C743.243 495.482 750.771 494.701 756.453 489.166C762.49 483.277 763.271 475.045 763.271 469.581ZM737.704 453.26C739.976 453.26 742.249 453.402 744.664 455.673C748.144 458.866 749.209 464.259 749.209 469.581C749.209 474.832 748.144 480.296 744.664 483.49C742.32 485.618 739.976 485.902 737.704 485.902C735.36 485.902 732.945 485.476 730.744 483.49C727.761 480.793 726.199 475.897 726.199 469.581C726.199 464.259 727.264 458.866 730.744 455.673C733.158 453.402 735.431 453.26 737.704 453.26Z" fill="black"/>
<mask id="path-13-inside-1_3133_47890" fill="white">
<path d="M195.028 484.855H207.386L206.537 488.79H194.179L192.108 498.56H186.845L191.904 474.814H211.901L211.052 478.817H196.318L195.028 484.855Z"/>
<path d="M225.193 485.33L233.987 474.814H239.86L226.789 489.163L224.786 498.56H219.524L221.527 489.163L214.567 474.814H220.814L225.193 485.33Z"/>
<path d="M116.803 486.01H128.55L125.902 498.561H122.066L122.541 495.033H122.371C121.511 496.345 120.391 497.374 119.01 498.12C117.652 498.866 115.864 499.239 113.646 499.239C112.084 499.239 110.669 499.081 109.402 498.764C108.157 498.448 106.969 497.792 105.837 496.797C103.619 494.875 102.51 492.127 102.51 488.554C102.51 483.963 104.072 480.288 107.195 477.529C108.757 476.172 110.409 475.268 112.152 474.815C113.895 474.363 115.887 474.137 118.127 474.137C119.146 474.137 120.006 474.171 120.707 474.239C121.432 474.284 122.337 474.487 123.424 474.849C124.533 475.211 125.472 475.72 126.241 476.376C128.007 478.14 128.924 480.186 128.991 482.516H123.559C123.424 481.046 122.801 479.926 121.692 479.157C120.764 478.479 119.451 478.14 117.754 478.14C115.151 478.14 113.046 478.863 111.439 480.311C110.443 481.17 109.64 482.301 109.029 483.703C108.417 485.082 108.112 486.62 108.112 488.316C108.112 490.555 108.7 492.263 109.877 493.439C111.054 494.637 112.673 495.237 114.732 495.237C116.928 495.237 118.738 494.615 120.164 493.371C121.364 492.398 122.258 491.053 122.846 489.334H116.124L116.803 486.01Z"/>
<path d="M145.831 486.264C145.831 493.055 141.841 498.561 136.919 498.561C131.997 498.561 128.007 493.055 128.007 486.264C128.007 479.472 131.997 473.967 136.919 473.967C141.841 473.967 145.831 479.472 145.831 486.264Z"/>
<path d="M189.61 486.352C189.61 493.191 179.711 498.736 167.5 498.736C155.289 498.736 145.39 493.191 145.39 486.352C145.39 479.512 155.289 473.967 167.5 473.967C179.711 473.967 189.61 479.512 189.61 486.352Z"/>
</mask>
<path d="M195.028 484.855L192.094 484.228L191.319 487.855H195.028V484.855ZM207.386 484.855L210.318 485.488L211.102 481.855H207.386V484.855ZM206.537 488.79V491.79H208.959L209.469 489.423L206.537 488.79ZM194.179 488.79V485.79H191.748L191.244 488.168L194.179 488.79ZM192.108 498.56V501.56H194.538L195.043 499.182L192.108 498.56ZM186.845 498.56L183.911 497.935L183.139 501.56H186.845V498.56ZM191.904 474.814V471.814H189.476L188.97 474.189L191.904 474.814ZM211.901 474.814L214.836 475.436L215.604 471.814L211.901 471.814V474.814ZM211.052 478.817V481.817H213.483L213.987 479.439L211.052 478.817ZM196.318 478.817V475.817H193.891L193.384 478.19L196.318 478.817ZM225.193 485.33L222.424 486.483L224.324 491.046L227.495 487.254L225.193 485.33ZM233.987 474.814V471.814H232.585L231.685 472.89L233.987 474.814ZM239.86 474.814L242.078 476.834L246.651 471.814L239.86 471.814V474.814ZM226.789 489.163L224.571 487.143L224.024 487.743L223.855 488.538L226.789 489.163ZM224.786 498.56V501.56H227.214L227.72 499.185L224.786 498.56ZM219.524 498.56L216.59 497.934L215.817 501.56H219.524V498.56ZM221.527 489.163L224.461 489.789L224.676 488.781L224.226 487.854L221.527 489.163ZM214.567 474.814V471.814H209.777L211.868 476.123L214.567 474.814ZM220.814 474.814L223.583 473.661L222.814 471.814H220.814V474.814ZM116.803 486.01V483.01H114.354L113.864 485.409L116.803 486.01ZM128.55 486.01L131.485 486.629L132.249 483.01H128.55V486.01ZM125.902 498.561V501.561H128.335L128.837 499.18L125.902 498.561ZM122.066 498.561L119.092 498.16L118.634 501.561H122.066V498.561ZM122.541 495.033L125.514 495.434L125.972 492.033H122.541V495.033ZM122.371 495.033V492.033H120.751L119.862 493.388L122.371 495.033ZM119.01 498.12L117.583 495.481L117.574 495.486L117.565 495.491L119.01 498.12ZM109.402 498.764L108.662 501.672L108.675 501.675L109.402 498.764ZM105.837 496.797L107.818 494.544L107.81 494.537L107.802 494.53L105.837 496.797ZM107.195 477.529L105.228 475.264L105.218 475.272L105.209 475.281L107.195 477.529ZM112.152 474.815L111.398 471.911L111.398 471.911L112.152 474.815ZM120.707 474.239L120.419 477.225L120.47 477.23L120.521 477.233L120.707 474.239ZM123.424 474.849L122.476 477.695L122.484 477.698L122.493 477.701L123.424 474.849ZM126.241 476.376L128.362 474.253L128.278 474.169L128.187 474.092L126.241 476.376ZM128.991 482.516V485.516H132.08L131.99 482.428L128.991 482.516ZM123.559 482.516L120.572 482.792L120.824 485.516H123.559V482.516ZM121.692 479.157L119.921 481.579L119.952 481.601L119.983 481.623L121.692 479.157ZM111.439 480.311L113.399 482.582L113.423 482.561L113.447 482.54L111.439 480.311ZM109.029 483.703L111.771 484.918L111.775 484.91L111.779 484.902L109.029 483.703ZM109.877 493.439L112.018 491.337L112.008 491.327L111.998 491.316L109.877 493.439ZM120.164 493.371L118.275 491.04L118.233 491.074L118.192 491.11L120.164 493.371ZM122.846 489.334L125.685 490.306L127.045 486.334H122.846V489.334ZM116.124 489.334L113.185 488.734L112.449 492.334H116.124V489.334ZM195.028 487.855H207.386V481.855H195.028V487.855ZM204.453 484.223L203.604 488.158L209.469 489.423L210.318 485.488L204.453 484.223ZM206.537 485.79H194.179V491.79H206.537V485.79ZM191.244 488.168L189.173 497.938L195.043 499.182L197.114 489.412L191.244 488.168ZM192.108 495.56H186.845V501.56H192.108V495.56ZM189.78 499.185L194.838 475.439L188.97 474.189L183.911 497.935L189.78 499.185ZM191.904 477.814H211.901V471.814H191.904V477.814ZM208.966 474.192L208.117 478.195L213.987 479.439L214.836 475.436L208.966 474.192ZM211.052 475.817H196.318V481.817H211.052V475.817ZM193.384 478.19L192.094 484.228L197.961 485.482L199.251 479.444L193.384 478.19ZM227.495 487.254L236.288 476.739L231.685 472.89L222.892 483.406L227.495 487.254ZM233.987 477.814H239.86V471.814H233.987V477.814ZM237.642 472.794L224.571 487.143L229.007 491.184L242.078 476.834L237.642 472.794ZM223.855 488.538L221.852 497.934L227.72 499.185L229.723 489.789L223.855 488.538ZM224.786 495.56H219.524V501.56H224.786V495.56ZM222.458 499.185L224.461 489.789L218.593 488.538L216.59 497.934L222.458 499.185ZM224.226 487.854L217.266 473.505L211.868 476.123L218.827 490.472L224.226 487.854ZM214.567 477.814H220.814V471.814H214.567V477.814ZM218.044 475.967L222.424 486.483L227.963 484.177L223.583 473.661L218.044 475.967ZM116.803 489.01H128.55V483.01H116.803V489.01ZM125.615 485.39L122.967 497.942L128.837 499.18L131.485 486.629L125.615 485.39ZM125.902 495.561H122.066V501.561H125.902V495.561ZM125.039 498.961L125.514 495.434L119.568 494.632L119.092 498.16L125.039 498.961ZM122.541 492.033H122.371V498.033H122.541V492.033ZM119.862 493.388C119.275 494.283 118.527 494.971 117.583 495.481L120.437 500.759C122.254 499.776 123.747 498.406 124.88 496.678L119.862 493.388ZM117.565 495.491C116.8 495.911 115.563 496.239 113.646 496.239V502.239C116.164 502.239 118.504 501.821 120.455 500.749L117.565 495.491ZM113.646 496.239C112.283 496.239 111.118 496.101 110.129 495.854L108.675 501.675C110.221 502.061 111.885 502.239 113.646 502.239V496.239ZM110.141 495.857C109.43 495.676 108.655 495.28 107.818 494.544L103.856 499.05C105.283 500.304 106.885 501.22 108.663 501.672L110.141 495.857ZM107.802 494.53C106.383 493.3 105.51 491.463 105.51 488.554H99.51C99.51 492.791 100.855 496.449 103.872 499.064L107.802 494.53ZM105.51 488.554C105.51 484.725 106.772 481.905 109.181 479.777L105.209 475.281C101.371 478.671 99.51 483.201 99.51 488.554H105.51ZM109.163 479.794C110.427 478.695 111.674 478.039 112.906 477.719L111.398 471.911C109.144 472.496 107.087 473.649 105.228 475.264L109.163 479.794ZM112.906 477.719C114.351 477.344 116.082 477.137 118.127 477.137V471.137C115.691 471.137 113.439 471.382 111.398 471.911L112.906 477.719ZM118.127 477.137C119.088 477.137 119.845 477.169 120.419 477.225L120.996 471.252C120.167 471.172 119.204 471.137 118.127 471.137V477.137ZM120.521 477.233C120.881 477.255 121.511 477.374 122.476 477.695L124.372 472.003C123.163 471.6 121.982 471.312 120.894 471.244L120.521 477.233ZM122.493 477.701C123.286 477.96 123.866 478.293 124.296 478.659L128.187 474.092C127.077 473.146 125.779 472.462 124.354 471.997L122.493 477.701ZM124.121 478.498C125.387 479.763 125.949 481.097 125.993 482.603L131.99 482.428C131.898 479.276 130.627 476.517 128.362 474.253L124.121 478.498ZM128.991 479.516H123.559V485.516H128.991V479.516ZM126.547 482.24C126.338 479.981 125.313 478.017 123.401 476.692L119.983 481.623C120.289 481.835 120.509 482.111 120.572 482.792L126.547 482.24ZM123.463 476.735C121.828 475.541 119.799 475.14 117.754 475.14V481.14C119.104 481.14 119.7 481.417 119.921 481.579L123.463 476.735ZM117.754 475.14C114.568 475.14 111.697 476.041 109.431 478.081L113.447 482.54C114.395 481.686 115.734 481.14 117.754 481.14V475.14ZM109.479 478.039C108.091 479.237 107.04 480.757 106.278 482.504L111.779 484.902C112.239 483.845 112.795 483.103 113.399 482.582L109.479 478.039ZM106.286 482.488C105.485 484.295 105.112 486.254 105.112 488.316H111.112C111.112 486.987 111.35 485.87 111.771 484.918L106.286 482.488ZM105.112 488.316C105.112 491.068 105.844 493.649 107.757 495.561L111.998 491.316C111.557 490.876 111.112 490.043 111.112 488.316H105.112ZM107.737 495.541C109.601 497.439 112.061 498.237 114.732 498.237V492.237C113.284 492.237 112.508 491.836 112.018 491.337L107.737 495.541ZM114.732 498.237C117.53 498.237 120.078 497.427 122.136 495.632L118.192 491.11C117.399 491.802 116.326 492.237 114.732 492.237V498.237ZM122.053 495.701C123.763 494.315 124.946 492.462 125.685 490.306L120.008 488.362C119.569 489.643 118.965 490.481 118.275 491.04L122.053 495.701ZM122.846 486.334H116.124V492.334H122.846V486.334ZM119.063 489.934L119.743 486.61L113.864 485.409L113.185 488.734L119.063 489.934ZM142.831 486.264C142.831 489.097 141.994 491.539 140.791 493.198C139.586 494.862 138.179 495.561 136.919 495.561V501.561C140.581 501.561 143.629 499.507 145.65 496.719C147.672 493.929 148.831 490.222 148.831 486.264H142.831ZM136.919 495.561C135.659 495.561 134.251 494.862 133.046 493.198C131.843 491.539 131.007 489.097 131.007 486.264H125.007C125.007 490.222 126.165 493.929 128.188 496.719C130.208 499.507 133.257 501.561 136.919 501.561V495.561ZM131.007 486.264C131.007 483.431 131.843 480.989 133.046 479.329C134.251 477.666 135.659 476.967 136.919 476.967V470.967C133.257 470.967 130.208 473.021 128.188 475.808C126.165 478.599 125.007 482.305 125.007 486.264H131.007ZM136.919 476.967C138.179 476.967 139.586 477.666 140.791 479.329C141.994 480.989 142.831 483.431 142.831 486.264H148.831C148.831 482.305 147.672 478.599 145.65 475.808C143.629 473.021 140.581 470.967 136.919 470.967V476.967ZM186.61 486.352C186.61 488.2 185.24 490.491 181.668 492.491C178.193 494.438 173.19 495.736 167.5 495.736V501.736C174.021 501.736 180.073 500.262 184.6 497.726C189.031 495.244 192.61 491.343 192.61 486.352H186.61ZM167.5 495.736C161.81 495.736 156.807 494.438 153.332 492.491C149.76 490.491 148.39 488.2 148.39 486.352H142.39C142.39 491.343 145.969 495.244 150.4 497.726C154.927 500.262 160.979 501.736 167.5 501.736V495.736ZM148.39 486.352C148.39 484.503 149.76 482.212 153.332 480.212C156.807 478.265 161.81 476.967 167.5 476.967V470.967C160.979 470.967 154.927 472.441 150.4 474.977C145.969 477.459 142.39 481.36 142.39 486.352H148.39ZM167.5 476.967C173.19 476.967 178.193 478.265 181.668 480.212C185.24 482.212 186.61 484.503 186.61 486.352H192.61C192.61 481.36 189.031 477.459 184.6 474.977C180.073 472.441 174.021 470.967 167.5 470.967V476.967Z" fill="#151921" mask="url(#path-13-inside-1_3133_47890)"/>
<path d="M261.059 500.169C261.488 502.017 263.323 501.99 263.98 501.99C264.637 501.99 267.035 501.843 267.035 499.232V492.605H265.936V493.542H265.896C265.467 492.752 264.663 492.337 263.538 492.337C260.59 492.337 260.59 495.323 260.59 495.952C260.59 498.576 262.05 499.674 263.658 499.674C264.663 499.674 265.226 499.313 265.856 498.295V499.031C265.856 499.393 265.829 501.147 263.98 501.147C263.256 501.147 262.399 500.959 262.184 500.169H261.059ZM263.926 498.844C263.377 498.844 261.836 498.656 261.836 495.912C261.836 495.363 261.836 493.167 263.819 493.167C265.213 493.167 265.936 494.211 265.936 495.925C265.936 498.549 264.355 498.844 263.926 498.844Z" fill="black"/>
<path d="M268.263 496.005C268.263 497.813 269.134 499.674 271.613 499.674C274.092 499.674 274.963 497.813 274.963 496.005C274.963 494.198 274.092 492.337 271.613 492.337C269.134 492.337 268.263 494.198 268.263 496.005ZM269.509 495.992C269.509 493.261 271.09 493.14 271.613 493.14C272.135 493.14 273.717 493.261 273.717 495.992C273.717 498.723 272.135 498.844 271.613 498.844C271.09 498.844 269.509 498.723 269.509 495.992Z" fill="black"/>
<path d="M275.806 496.005C275.806 497.813 276.677 499.674 279.156 499.674C281.635 499.674 282.506 497.813 282.506 496.005C282.506 494.198 281.635 492.337 279.156 492.337C276.677 492.337 275.806 494.198 275.806 496.005ZM277.052 495.992C277.052 493.261 278.634 493.14 279.156 493.14C279.679 493.14 281.26 493.261 281.26 495.992C281.26 498.723 279.679 498.844 279.156 498.844C278.634 498.844 277.052 498.723 277.052 495.992Z" fill="black"/>
<path d="M286.874 492.605H285.386V491.788C285.386 491.507 285.4 490.851 286.043 490.851C286.164 490.851 286.298 490.824 286.874 490.864V490.034C286.673 490.021 286.257 489.98 286.003 489.98C284.783 489.98 284.207 490.503 284.207 491.681V492.605H282.948V493.435H284.207V499.406H285.386V493.435H286.874V492.605Z" fill="black"/>
<path d="M288.068 501.87C288.323 501.923 288.658 501.937 289.033 501.937C290.32 501.937 290.601 500.852 290.815 500.21L293.522 492.605H292.343L290.534 498.108L288.35 492.605H286.943L289.891 499.406L289.73 499.915C289.516 500.518 289.355 501.066 288.658 501.066C288.551 501.066 288.43 501.053 288.068 501V501.87Z" fill="black"/>
<path d="M293.588 499.406H294.915V497.947H293.588V499.406Z" fill="black"/>
<path d="M301.756 496.983C301.716 497.733 301.287 498.844 299.947 498.844C298.446 498.844 297.843 497.492 297.843 495.952C297.843 494.412 298.393 493.167 299.867 493.167C300.282 493.167 301.448 493.221 301.702 494.734H302.828C302.681 493.462 301.756 492.337 299.84 492.337C297.2 492.337 296.597 494.372 296.597 495.952C296.597 499.58 299.237 499.674 299.92 499.674C302.346 499.674 302.815 497.786 302.882 496.983H301.756Z" fill="black"/>
<path d="M303.63 496.005C303.63 497.813 304.501 499.674 306.98 499.674C309.459 499.674 310.33 497.813 310.33 496.005C310.33 494.198 309.459 492.337 306.98 492.337C304.501 492.337 303.63 494.198 303.63 496.005ZM304.876 495.992C304.876 493.261 306.457 493.14 306.98 493.14C307.503 493.14 309.084 493.261 309.084 495.992C309.084 498.723 307.503 498.844 306.98 498.844C306.457 498.844 304.876 498.723 304.876 495.992Z" fill="black"/>
<path d="M311.562 492.605V499.406H312.741V495.349C312.741 494.011 313.559 493.167 314.537 493.167C315.609 493.167 315.85 494.118 315.85 495.108V499.406H317.029V495.349C317.029 493.595 318.021 493.167 318.825 493.167C320.044 493.167 320.138 494.385 320.138 495.095V499.406H321.317V495.015C321.317 494.265 321.223 492.337 319.133 492.337C317.726 492.337 317.016 493.274 316.775 493.796C316.6 493.087 316.011 492.337 314.832 492.337C313.987 492.337 313.09 492.819 312.728 493.609L312.741 493.529V492.605H311.562Z" fill="black"/>
<rect x="2" y="2" width="800" height="1201" stroke="#F8F5F1" stroke-width="4"/>
</svg>
