<svg width="1157" height="867" viewBox="0 0 1157 867" fill="none" xmlns="http://www.w3.org/2000/svg">
<rect y="3" width="145.072" height="126" rx="12" fill="#F7C96E"/>
<rect y="150" width="145.072" height="126" rx="12" fill="#F7C96E"/>
<rect y="297" width="145.072" height="126" rx="12" fill="#F7C96E"/>
<rect y="444" width="145.072" height="126" rx="12" fill="#F7C96E"/>
<rect y="738" width="145.072" height="126" rx="12" fill="#F7C96E"/>
<rect x="168.321" y="3" width="145.072" height="126" rx="12" fill="#3A4C7B"/>
<rect x="168.321" y="150" width="145.072" height="126" rx="12" fill="#3A4C7B"/>
<rect x="168.321" y="591" width="145.072" height="126" rx="12" fill="#3A4C7B"/>
<rect x="336" y="3" width="145.072" height="126" rx="12" fill="#B35B58"/>
<rect x="336" y="150" width="145.072" height="126" rx="12" fill="#B35B58"/>
<rect x="336" y="591" width="145.072" height="126" rx="12" fill="#B35B58"/>
<rect x="336" y="738" width="145.072" height="126" rx="12" fill="#B35B58"/>
<rect x="504" y="3" width="145.072" height="126" rx="12" fill="#416552"/>
<rect x="672.285" y="3" width="145.072" height="126" rx="12" fill="#644165"/>
<rect x="504" y="591" width="145.072" height="126" rx="12" fill="#416552"/>
<rect x="672.285" y="591" width="145.072" height="126" rx="12" fill="#644165"/>
<rect x="840" y="150" width="145.072" height="126" rx="12" fill="#F8F5F1"/>
<rect x="840" y="297" width="145.072" height="126" rx="12" fill="#F8F5F1"/>
<rect x="840" y="444" width="145.072" height="126" rx="12" fill="#F8F5F1"/>
<rect x="840" y="591" width="145.072" height="126" rx="12" fill="#F8F5F1"/>
<rect x="840" y="738" width="145.072" height="126" rx="12" fill="#F8F5F1"/>
<rect x="1006.5" y="1.5" width="148.072" height="129" rx="13.5" fill="#151921" stroke="#F8F5F1" stroke-width="3"/>
<rect x="1006.5" y="148.5" width="148.072" height="129" rx="13.5" fill="#151921" stroke="#F8F5F1" stroke-width="3"/>
<rect x="1006.5" y="589.5" width="148.072" height="129" rx="13.5" fill="#151921" stroke="#F8F5F1" stroke-width="3"/>
<ellipse cx="240.5" cy="66" rx="72.5" ry="63" fill="#F7C96E"/>
<ellipse cx="408.857" cy="66" rx="72.5" ry="63" fill="#F7C96E"/>
<ellipse cx="576.536" cy="66" rx="72.5" ry="63" fill="#F7C96E"/>
<ellipse cx="744.5" cy="66" rx="72.5" ry="63" fill="#F7C96E"/>
<rect x="840" y="3" width="145.394" height="126" rx="12" fill="#F8F5F1"/>
<ellipse cx="912.697" cy="66" rx="72.6968" ry="63" fill="#F7C96E"/>
<ellipse cx="1080.57" cy="66" rx="72.5" ry="63" fill="#F7C96E"/>
<rect x="168.321" y="297" width="145.072" height="126" rx="12" fill="#3A4C7B"/>
<ellipse cx="240.858" cy="360" rx="72.5362" ry="63" fill="#416552"/>
<ellipse cx="912.894" cy="360" rx="72.5" ry="63" fill="#416552"/>
<rect x="336" y="297" width="145.357" height="126" rx="12" fill="#B35B58"/>
<ellipse cx="408.679" cy="360" rx="72.6787" ry="63" fill="#416552"/>
<rect x="1006.5" y="295.5" width="148.073" height="129" rx="13.5" fill="#151921" stroke="#F8F5F1" stroke-width="3"/>
<ellipse cx="1080.54" cy="360" rx="72.5363" ry="63" fill="#416552"/>
<rect x="168.321" y="444" width="143.679" height="126" rx="12" fill="#3A4C7B"/>
<ellipse cx="240.161" cy="507" rx="71.8394" ry="63" fill="#644165"/>
<rect x="1006.5" y="442.5" width="148.072" height="129" rx="13.5" fill="#151921" stroke="#F8F5F1" stroke-width="3"/>
<ellipse cx="1080.54" cy="507" rx="72.5362" ry="63" fill="#644165"/>
<ellipse cx="72.5" cy="507" rx="72.5" ry="63" fill="#644165"/>
<rect x="336" y="444" width="145.357" height="126" rx="12" fill="#B35B58"/>
<ellipse cx="408.679" cy="507" rx="72.6787" ry="63" fill="#644165"/>
<ellipse cx="912.894" cy="507" rx="72.5" ry="63" fill="#644165"/>
<ellipse cx="72.5" cy="360" rx="72.5" ry="63" fill="#416552"/>
<rect x="672.285" y="297" width="145.072" height="126" rx="12" fill="#644165"/>
<ellipse cx="744.821" cy="360" rx="72.5362" ry="63" fill="#416552"/>
<ellipse cx="72.5" cy="66" rx="72.5" ry="63" fill="#3A4C7B"/>
<ellipse cx="408.857" cy="213" rx="72.5" ry="63" fill="#3A4C7B"/>
<rect x="504" y="297" width="145.072" height="126" rx="12" fill="#416552"/>
<ellipse cx="576.536" cy="360" rx="72.5362" ry="63" fill="#3A4C7B"/>
<rect x="672.285" y="444" width="145.072" height="126" rx="12" fill="#644165"/>
<ellipse cx="744.821" cy="507" rx="72.5362" ry="63" fill="#3A4C7B"/>
<ellipse cx="912.894" cy="654" rx="72.5" ry="63" fill="#3A4C7B"/>
<rect x="1006.5" y="736.5" width="148.072" height="129" rx="13.5" fill="#151921" stroke="#F8F5F1" stroke-width="3"/>
<ellipse cx="1080.54" cy="801" rx="72.5362" ry="63" fill="#3A4C7B"/>
<ellipse cx="240.5" cy="654" rx="72.5" ry="63" fill="#F8F5F1"/>
<ellipse cx="576.536" cy="654" rx="72.5" ry="63" fill="#F8F5F1"/>
<ellipse cx="1080.57" cy="654" rx="72.5" ry="63" fill="#F8F5F1"/>
<rect y="591" width="145.072" height="126" rx="12" fill="#F7C96E"/>
<ellipse cx="72.5362" cy="654" rx="72.5362" ry="63" fill="#F8F5F1"/>
<ellipse cx="408.857" cy="654" rx="72.5" ry="63" fill="#F8F5F1"/>
<ellipse cx="744.5" cy="654" rx="72.5" ry="63" fill="#F8F5F1"/>
<ellipse cx="240.5" cy="213" rx="72.5" ry="63" fill="#B35B58"/>
<rect x="672.285" y="150" width="145.072" height="126" rx="12" fill="#644165"/>
<ellipse cx="744.821" cy="213" rx="72.5362" ry="63" fill="#B35B58"/>
<ellipse cx="1080.57" cy="213" rx="72.5" ry="63" fill="#B35B58"/>
<ellipse cx="72.5" cy="213" rx="72.5" ry="63" fill="#B35B58"/>
<rect x="504" y="150" width="145.036" height="126" rx="12" fill="#416552"/>
<ellipse cx="576.518" cy="213" rx="72.5181" ry="63" fill="#B35B58"/>
<ellipse cx="912.894" cy="213" rx="72.5" ry="63" fill="#B35B58"/>
<rect x="168.321" y="738" width="145.072" height="126" rx="12" fill="#3A4C7B"/>
<ellipse cx="240.858" cy="801" rx="72.5362" ry="63" fill="#151921"/>
<rect x="504" y="738" width="145.072" height="126" rx="12" fill="#416552"/>
<ellipse cx="576.536" cy="801" rx="72.5362" ry="63" fill="#151921"/>
<ellipse cx="912.894" cy="801" rx="72.5" ry="63" fill="#151921"/>
<ellipse cx="72.5" cy="801" rx="72.5" ry="63" fill="#151921"/>
<ellipse cx="408.857" cy="801" rx="72.5" ry="63" fill="#151921"/>
<rect x="672.285" y="738" width="145.072" height="126" rx="12" fill="#644165"/>
<ellipse cx="744.821" cy="801" rx="72.5362" ry="63" fill="#151921"/>
<rect x="504" y="444" width="145.036" height="126" rx="12" fill="#416552"/>
<ellipse cx="576.518" cy="507" rx="72.5181" ry="63" fill="#644165"/>
<line x1="2.9319" y1="595.705" x2="141.932" y2="712.705" stroke="#B35B58" stroke-width="6"/>
<line x1="3.06803" y1="712.709" x2="142.064" y2="595.705" stroke="#B35B58" stroke-width="6"/>
<line x1="170.932" y1="742.705" x2="309.932" y2="859.705" stroke="#F8F5F1" stroke-width="6"/>
<line x1="171.068" y1="859.709" x2="310.064" y2="742.705" stroke="#F8F5F1" stroke-width="6"/>
<line x1="170.932" y1="448.705" x2="309.932" y2="565.705" stroke="#F8F5F1" stroke-width="6"/>
<line x1="171.068" y1="565.709" x2="310.064" y2="448.705" stroke="#F8F5F1" stroke-width="6"/>
<line x1="170.932" y1="301.705" x2="309.932" y2="418.705" stroke="#F8F5F1" stroke-width="6"/>
<line x1="171.068" y1="418.709" x2="310.064" y2="301.705" stroke="#F8F5F1" stroke-width="6"/>
<line x1="339.289" y1="301.705" x2="478.289" y2="418.705" stroke="#F8F5F1" stroke-width="6"/>
<line x1="339.425" y1="418.709" x2="478.422" y2="301.705" stroke="#F8F5F1" stroke-width="6"/>
<line x1="506.968" y1="301.705" x2="645.968" y2="418.705" stroke="#F8F5F1" stroke-width="6"/>
<line x1="507.104" y1="418.709" x2="646.101" y2="301.705" stroke="#F8F5F1" stroke-width="6"/>
<line x1="674.932" y1="301.705" x2="813.932" y2="418.705" stroke="#F8F5F1" stroke-width="6"/>
<line x1="675.068" y1="418.709" x2="814.064" y2="301.705" stroke="#F8F5F1" stroke-width="6"/>
<line x1="1011" y1="301.705" x2="1150" y2="418.705" stroke="#F8F5F1" stroke-width="6"/>
<line x1="1011.14" y1="418.709" x2="1150.14" y2="301.705" stroke="#F8F5F1" stroke-width="6"/>
<line x1="506.968" y1="154.705" x2="645.968" y2="271.705" stroke="#F8F5F1" stroke-width="6"/>
<line x1="507.104" y1="271.709" x2="646.101" y2="154.705" stroke="#F8F5F1" stroke-width="6"/>
<line x1="674.932" y1="154.705" x2="813.932" y2="271.705" stroke="#F8F5F1" stroke-width="6"/>
<line x1="675.068" y1="271.709" x2="814.064" y2="154.705" stroke="#F8F5F1" stroke-width="6"/>
<line x1="843.325" y1="7.70533" x2="982.325" y2="124.705" stroke="#B35B58" stroke-width="6"/>
<line x1="843.462" y1="124.709" x2="982.458" y2="7.70495" stroke="#B35B58" stroke-width="6"/>
<line x1="1011" y1="742.705" x2="1150" y2="859.705" stroke="#F8F5F1" stroke-width="6"/>
<line x1="1011.14" y1="859.709" x2="1150.14" y2="742.705" stroke="#F8F5F1" stroke-width="6"/>
<line x1="339.289" y1="448.705" x2="478.289" y2="565.705" stroke="#F8F5F1" stroke-width="6"/>
<line x1="339.425" y1="565.709" x2="478.422" y2="448.705" stroke="#F8F5F1" stroke-width="6"/>
<line x1="506.968" y1="448.705" x2="645.968" y2="565.705" stroke="#F8F5F1" stroke-width="6"/>
<line x1="507.104" y1="565.709" x2="646.101" y2="448.705" stroke="#F8F5F1" stroke-width="6"/>
<line x1="674.932" y1="448.705" x2="813.932" y2="565.705" stroke="#F8F5F1" stroke-width="6"/>
<line x1="675.068" y1="565.709" x2="814.064" y2="448.705" stroke="#F8F5F1" stroke-width="6"/>
<line x1="1011" y1="448.705" x2="1150" y2="565.705" stroke="#F8F5F1" stroke-width="6"/>
<line x1="1011.14" y1="565.709" x2="1150.14" y2="448.705" stroke="#F8F5F1" stroke-width="6"/>
<line x1="506.968" y1="742.705" x2="645.968" y2="859.705" stroke="#F8F5F1" stroke-width="6"/>
<line x1="507.104" y1="859.709" x2="646.101" y2="742.705" stroke="#F8F5F1" stroke-width="6"/>
<line x1="674.932" y1="742.705" x2="813.932" y2="859.705" stroke="#F8F5F1" stroke-width="6"/>
<line x1="675.068" y1="859.709" x2="814.064" y2="742.705" stroke="#F8F5F1" stroke-width="6"/>
</svg>
