<svg width="476" height="429" viewBox="0 0 476 429" fill="none" xmlns="http://www.w3.org/2000/svg">
<rect width="476" height="428.465" rx="20" fill="#3A4C7B"/>
<ellipse cx="88.7376" cy="50.3526" rx="2.57747" ry="2.35264" fill="#CECAC0"/>
<path d="M80.4033 61.5646C80.4033 62.8639 81.5573 63.9172 82.9808 63.9172C84.0962 63.9172 84.955 63.2165 85.4051 62.3655L89.6712 55.5078H83.7211L80.6226 60.6135C80.4816 60.9044 80.4033 61.2261 80.4033 61.5646Z" fill="#CECAC0"/>
<path d="M99.132 54.4815C99.132 55.1706 98.5338 55.7322 97.7856 55.7571C97.7683 55.7577 76.5554 55.758 76.5381 55.758C75.7657 55.758 75.1396 55.1865 75.1396 54.4815C75.1396 53.7766 75.7657 53.2051 76.5381 53.2051C76.5472 53.2051 97.7519 53.2052 97.7611 53.2053C98.5207 53.2187 99.132 53.7849 99.132 54.4815Z" fill="#CECAC0"/>
<path d="M74.2063 75.0227C74.8725 75.3793 75.7293 75.1754 76.12 74.5673C76.1273 74.5559 80.6761 67.6212 82.1835 65.3222L80.14 63.4701L73.7074 73.2759C73.3167 73.884 73.5401 74.666 74.2063 75.0227Z" fill="#CECAC0"/>
<path d="M83.747 74.472C84.4132 74.8286 85.27 74.6247 85.6607 74.0166C85.668 74.0052 87.93 70.2964 89.4375 67.9974L87.394 66.1454C86.5777 67.3895 83.2524 72.7185 83.2481 72.7252C82.8574 73.3333 83.0808 74.1153 83.747 74.472Z" fill="#CECAC0"/>
<path d="M89.2306 68.1868C89.7563 67.6704 89.724 66.8627 89.1583 66.3828C89.1476 66.3738 85.6712 63.5544 83.539 61.7129L81.1153 63.1326C82.2691 64.1295 87.248 68.2475 87.2542 68.2528C87.8199 68.7327 88.7048 68.7031 89.2306 68.1868Z" fill="#CECAC0"/>
<ellipse cx="88.246" cy="67.3725" rx="1.37099" ry="1.2514" fill="#CECAC0"/>
<ellipse cx="81.0905" cy="78.1342" rx="0.932272" ry="0.850953" fill="#CECAC0"/>
<ellipse cx="89.0973" cy="78.1342" rx="0.932275" ry="0.850953" fill="#CECAC0"/>
<path d="M91.6195 75.7315C91.6195 76.0633 91.3248 76.3322 90.9614 76.3322C90.9576 76.3322 79.1358 76.3322 79.132 76.3321C78.7738 76.3265 78.4854 76.0598 78.4854 75.7315C78.4854 75.4037 78.773 75.1372 79.1305 75.131C79.1348 75.1309 90.9571 75.1309 90.9614 75.1309C91.3248 75.1309 91.6195 75.3998 91.6195 75.7315Z" fill="#CECAC0"/>
<path d="M108.122 58.3946H111.802V70.4926H113.964V54.3926H112.446C112.193 56.1406 110.56 57.2676 108.605 57.2676H108.122V58.3946ZM117.982 66.3756C118.166 68.2156 119.27 70.9756 123.41 70.9756C127.389 70.9756 129.183 68.4686 129.183 65.2486C129.183 61.8216 127.113 59.7516 124.146 59.7516C122.674 59.7516 121.524 60.0736 120.512 60.9706L121.156 56.2096H128.263V54.3926H119.569L118.442 62.8796H120.466C121.018 61.9596 122.559 61.4766 123.617 61.4766C125.365 61.4766 127.159 62.4196 127.159 65.2716C127.159 69.0436 124.491 69.2506 123.41 69.2506C120.926 69.2506 120.213 67.4336 120.098 66.3756H117.982ZM137.727 74.7246C138.164 74.8166 138.739 74.8396 139.383 74.8396C141.591 74.8396 142.074 72.9766 142.442 71.8726L147.088 58.8086H145.064L141.959 68.2616L138.21 58.8086H135.795L140.855 70.4926L140.579 71.3666C140.211 72.4016 139.935 73.3446 138.739 73.3446C138.555 73.3446 138.348 73.3216 137.727 73.2296V74.7246ZM148.124 58.8086V62.7186C148.124 64.3516 148.239 65.7316 152.379 65.7316C153.391 65.7316 154.104 65.7316 155.093 65.6626V70.4926H157.117V58.8086H155.093V64.2366H154.61C154.449 64.2366 154.288 64.2366 154.127 64.2596C153.69 64.2826 153.23 64.3056 152.793 64.3056C150.148 64.3056 150.148 63.6156 150.148 62.3966V58.8086H148.124ZM161.966 62.2586C161.897 59.8206 164.266 59.7746 165.002 59.7746C167.578 59.7746 167.624 61.5686 167.624 62.1206C167.624 63.6386 167.072 63.6156 165.347 63.7306C160.655 64.1676 159.62 65.4096 159.62 67.4336C159.62 69.8946 161.276 70.9526 163.737 70.9526C165.324 70.9526 166.934 70.3546 167.739 68.8826C167.992 70.4006 168.682 70.5846 169.832 70.5846C170.269 70.5846 170.476 70.5616 170.752 70.4926V69.0666C169.51 69.1356 169.533 68.5836 169.533 67.6866L169.648 62.2816C169.717 58.8776 166.888 58.3486 165.002 58.3486C160.862 58.3486 160.034 60.6946 160.034 62.2586H161.966ZM167.578 65.5016C167.394 68.7446 165.554 69.5266 163.967 69.5266C162.656 69.5266 161.713 68.7446 161.713 67.3646C161.713 65.4786 163.254 65.3866 165.048 65.0876C166.336 64.9036 167.026 64.9956 167.624 64.5126L167.578 65.5016ZM181.325 66.3296C181.256 67.6176 180.52 69.5266 178.22 69.5266C175.644 69.5266 174.609 67.2036 174.609 64.5586C174.609 61.9136 175.552 59.7746 178.082 59.7746C178.795 59.7746 180.796 59.8666 181.233 62.4656H183.165C182.912 60.2806 181.325 58.3486 178.036 58.3486C173.505 58.3486 172.47 61.8446 172.47 64.5586C172.47 70.7916 177.001 70.9526 178.174 70.9526C182.337 70.9526 183.142 67.7096 183.257 66.3296H181.325ZM188.025 60.2346V70.4926H190.049V60.2346H194.097V58.8086H183.977V60.2346H188.025ZM197.667 65.0416H203.44V70.4926H205.464V58.8086H203.44V63.6156H197.667V58.8086H195.643V70.4926H197.667V65.0416ZM210.807 68.1236V58.8086H208.783V70.4926H211.06L217.132 61.1546V70.4926H219.156V58.8086H216.902L210.807 68.1236ZM224.486 63.9146V58.8086H222.462V70.4926H224.486V64.6506L229.73 70.4926H232.145L226.372 64.2366L231.846 58.8086H229.477L224.486 63.9146ZM232.621 64.6506C232.621 67.7556 234.116 70.9526 238.371 70.9526C242.626 70.9526 244.121 67.7556 244.121 64.6506C244.121 61.5456 242.626 58.3486 238.371 58.3486C234.116 58.3486 232.621 61.5456 232.621 64.6506ZM234.76 64.6276C234.76 59.9356 237.474 59.7286 238.371 59.7286C239.268 59.7286 241.982 59.9356 241.982 64.6276C241.982 69.3196 239.268 69.5266 238.371 69.5266C237.474 69.5266 234.76 69.3196 234.76 64.6276ZM246.764 58.8086V70.4926H252.261C254.17 70.4926 256.47 70.1246 256.47 67.4566C256.47 66.3296 256.194 64.9496 253.917 64.3976V64.3286C254.308 64.1906 256.033 63.6846 256.033 61.5916C256.033 58.9236 253.503 58.8086 252.33 58.8086H246.764ZM248.788 60.2346H251.686C252.514 60.2346 253.986 60.3266 253.986 61.8906C253.986 62.6956 253.503 63.6846 251.594 63.6846H248.788V60.2346ZM248.788 65.1106H251.686C252.583 65.1106 254.377 65.2486 254.377 67.2726C254.377 69.0206 252.445 69.0666 251.755 69.0666H248.788V65.1106Z" fill="#CECAC0"/>
<g filter="url(#filter0_d_3759_50315)">
<rect x="73" y="96" width="306" height="51" rx="6" fill="#F7C96E"/>
<rect x="73.5" y="96.5" width="305" height="50" rx="5.5" stroke="#151921"/>
</g>
<path d="M146.378 117.123H140.306V130.095H136.511V113.995H150.173V130.095H146.378V117.123ZM152.842 124.23C152.842 123.126 153.019 122.16 153.371 121.332C153.724 120.489 154.207 119.837 154.82 119.377C155.449 118.902 156.131 118.549 156.867 118.319C157.603 118.089 158.393 117.974 159.236 117.974C161.153 117.974 162.694 118.503 163.859 119.561C165.04 120.619 165.63 122.176 165.63 124.23C165.63 126.285 165.04 127.857 163.859 128.945C162.694 130.003 161.153 130.532 159.236 130.532C157.32 130.532 155.771 130.003 154.59 128.945C153.425 127.872 152.842 126.3 152.842 124.23ZM161.996 124.23C161.996 121.624 161.076 120.32 159.236 120.32C157.396 120.32 156.476 121.624 156.476 124.23C156.476 126.868 157.396 128.186 159.236 128.186C161.076 128.186 161.996 126.868 161.996 124.23ZM171.422 118.411V126.001L176.206 118.411H179.909V130.095H176.413V122.505L171.652 130.095H167.926V118.411H171.422ZM169.375 113.995H171.928C171.928 114.67 172.227 115.115 172.825 115.329C173.285 115.467 173.653 115.536 173.929 115.536C174.512 115.536 174.995 115.406 175.378 115.145C175.762 114.869 175.938 114.486 175.907 113.995H178.483C178.361 114.9 177.954 115.651 177.264 116.249C176.59 116.863 175.478 117.169 173.929 117.169C172.381 117.169 171.246 116.855 170.525 116.226C169.805 115.567 169.421 114.823 169.375 113.995ZM181.599 133.131L181.415 127.749H182.956C184.167 125.94 184.773 123.548 184.773 120.573V118.411H194.778V127.749H196.71L196.526 133.131H193.536V130.095H184.589V133.131H181.599ZM191.282 127.749V120.757H187.993V121.976C187.993 124.138 187.525 126.063 186.59 127.749H191.282ZM199.121 134.35V132.004C199.335 132.112 199.711 132.165 200.248 132.165C201.122 132.165 201.689 131.621 201.95 130.532L202.111 129.957L197.028 118.411H201.237L203.951 126.024L206.044 118.411H209.77L205.699 130.716C205.668 130.808 205.63 130.908 205.584 131.015C205.553 131.138 205.522 131.23 205.492 131.291C205.476 131.353 205.469 131.399 205.469 131.429C205.453 131.537 205.361 131.774 205.193 132.142C205.055 132.526 204.932 132.779 204.825 132.901C204.395 133.53 203.997 133.921 203.629 134.074C203.046 134.396 202.364 134.557 201.582 134.557C200.692 134.557 199.872 134.488 199.121 134.35ZM224.237 125.15H220.028V130.095H216.532V118.411H220.028V122.804H224.237V118.411H227.733V130.095H224.237V125.15ZM234.202 122.183H230.867C230.944 120.512 231.718 119.308 233.19 118.572C233.558 118.373 233.965 118.235 234.409 118.158C235.115 118.036 235.766 117.974 236.364 117.974C238.465 117.974 239.899 118.411 240.665 119.285C241.171 119.791 241.47 120.328 241.562 120.895C241.67 121.325 241.723 121.808 241.723 122.344L241.654 127.68C241.639 128.462 241.677 129.007 241.769 129.313C241.861 129.62 242.053 129.812 242.344 129.888V130.095H238.664L238.365 128.945H238.296C237.468 130.003 236.165 130.532 234.386 130.532C233.681 130.532 233.06 130.44 232.523 130.256C232.002 130.088 231.603 129.881 231.327 129.635C231.067 129.39 230.852 129.099 230.683 128.761C230.515 128.424 230.407 128.133 230.361 127.887C230.331 127.642 230.315 127.397 230.315 127.151C230.315 126.17 230.614 125.396 231.212 124.828C231.442 124.598 231.78 124.384 232.224 124.184C232.776 123.924 233.589 123.694 234.662 123.494C235.03 123.433 235.36 123.395 235.651 123.379C236.556 123.272 237.039 123.211 237.1 123.195C237.499 123.119 237.775 123.011 237.928 122.873C238.097 122.735 238.197 122.505 238.227 122.183V121.861C238.181 120.834 237.553 120.32 236.341 120.32C234.915 120.32 234.202 120.941 234.202 122.183ZM238.25 125.265V124.529C237.744 124.775 237.407 124.905 237.238 124.92C236.84 124.982 236.41 125.058 235.95 125.15C234.586 125.365 233.903 125.925 233.903 126.829C233.903 127.289 234.072 127.634 234.409 127.864C234.762 128.079 235.191 128.186 235.697 128.186C236.05 128.186 236.403 128.117 236.755 127.979C237.154 127.811 237.499 127.489 237.79 127.013C238.097 126.523 238.25 125.94 238.25 125.265ZM253.472 118.411V126.001L258.256 118.411H261.959V130.095H258.463V122.505L253.702 130.095H249.976V118.411H253.472ZM264.868 130.095V118.411H271.837C272.481 118.411 273.079 118.48 273.631 118.618C274.919 118.864 275.601 119.738 275.678 121.24C275.678 121.976 275.456 122.597 275.011 123.103C274.566 123.594 273.999 123.885 273.309 123.977V124.046C274.321 124.276 275.034 124.621 275.448 125.081C275.877 125.526 276.092 126.201 276.092 127.105C276.092 128.179 275.739 128.945 275.034 129.405C274.329 129.865 273.255 130.095 271.814 130.095H264.868ZM270.25 120.757H268.364V122.988H270.181C271.454 122.988 272.09 122.628 272.09 121.907C272.09 121.141 271.477 120.757 270.25 120.757ZM270.503 125.173H268.364V127.749H270.549C271.852 127.749 272.504 127.351 272.504 126.553C272.504 126.078 272.351 125.733 272.044 125.518C271.753 125.288 271.239 125.173 270.503 125.173ZM286.579 126.714H290.121C289.416 129.26 287.392 130.532 284.049 130.532C283.052 130.532 282.094 130.364 281.174 130.026C280.515 129.766 279.963 129.436 279.518 129.037C279.012 128.593 278.59 127.949 278.253 127.105C277.931 126.262 277.77 125.304 277.77 124.23C277.77 122.268 278.368 120.734 279.564 119.63C280.775 118.526 282.362 117.974 284.325 117.974C286.64 118.066 288.22 118.772 289.063 120.09C289.6 120.888 289.945 121.716 290.098 122.574C290.175 122.942 290.236 123.295 290.282 123.632L290.351 124.46L290.374 125.104H281.404C281.404 125.856 281.619 126.561 282.048 127.22C282.493 127.864 283.213 128.186 284.21 128.186C284.793 128.186 285.299 128.064 285.728 127.818C286.157 127.558 286.441 127.19 286.579 126.714ZM281.404 123.149H286.74C286.725 122.567 286.633 122.076 286.464 121.677C286.295 121.263 286.073 120.972 285.797 120.803C285.521 120.619 285.26 120.497 285.015 120.435C284.785 120.359 284.54 120.32 284.279 120.32C283.359 120.32 282.654 120.612 282.163 121.194C281.703 121.762 281.45 122.413 281.404 123.149ZM300.379 125.15H296.17V130.095H292.674V118.411H296.17V122.804H300.379V118.411H303.875V130.095H300.379V125.15ZM309.54 130.095V120.757H305.676V118.411H316.9V120.757H313.036V130.095H309.54Z" fill="#151921"/>
<path d="M99.3479 315.122H79.5479V305.162H82.0679C86.7879 305.162 91.4679 303.842 96.1079 301.202C100.828 298.402 103.548 294.722 104.268 290.162H119.148V374.162H99.3479V315.122ZM135.23 345.242H153.83C153.83 349.722 155.03 353.642 157.43 357.002C159.83 360.282 163.79 361.922 169.31 361.922C175.71 361.922 179.79 360.122 181.55 356.522C182.99 353.962 183.71 351.482 183.71 349.082C183.71 341.402 179.31 337.562 170.51 337.562H162.11V323.762H168.47C177.51 323.762 182.03 320.242 182.03 313.202C182.03 310.082 180.91 307.522 178.67 305.522C176.43 303.442 173.07 302.402 168.59 302.402C164.27 302.402 160.91 303.562 158.51 305.882C156.19 308.202 155.03 312.202 155.03 317.882H137.39C137.39 311.962 138.51 306.722 140.75 302.162C145.55 292.562 155.15 287.762 169.55 287.762C181.07 287.762 189.19 290.522 193.91 296.042C197.75 300.522 199.67 305.682 199.67 311.522C199.67 317.602 197.79 322.202 194.03 325.322C191.23 327.642 188.11 329.242 184.67 330.122V330.482C189.55 331.122 193.75 333.042 197.27 336.242C200.71 339.442 202.43 344.322 202.43 350.882C202.43 355.202 201.51 359.082 199.67 362.522C197.91 365.882 195.67 368.482 192.95 370.322C190.39 372.002 187.47 373.322 184.19 374.282C179.31 375.802 174.59 376.562 170.03 376.562C168.19 376.562 166.95 376.522 166.31 376.442C165.67 376.442 163.83 376.242 160.79 375.842C157.91 375.442 155.59 374.922 153.83 374.282C148.15 372.282 143.83 369.362 140.87 365.522C137.03 359.922 135.15 353.162 135.23 345.242ZM241.117 332.162H221.317V313.202H241.117V332.162ZM241.117 374.162H221.317V355.202H241.117V374.162ZM298.214 374.162V355.322H258.494V340.202L298.094 290.162H318.014V340.682H328.214V355.322H318.014V374.162H298.214ZM298.214 309.002L273.494 340.682H298.214V309.002ZM375.421 376.442C374.781 376.442 373.821 376.442 372.541 376.442C371.341 376.522 370.381 376.562 369.661 376.562C368.941 376.562 367.901 376.442 366.541 376.202C365.181 376.042 363.701 375.762 362.101 375.362C357.221 374.002 352.861 371.522 349.021 367.922C344.461 363.602 341.141 357.082 339.061 348.362C338.021 343.642 337.501 338.242 337.501 332.162C337.501 320.402 339.381 311.122 343.141 304.322C344.661 301.442 346.541 298.882 348.781 296.642C351.101 294.322 353.341 292.602 355.501 291.482C359.821 289.242 363.861 288.042 367.621 287.882C368.341 287.882 369.341 287.882 370.621 287.882C371.901 287.802 372.861 287.762 373.501 287.762C374.221 287.762 375.221 287.882 376.501 288.122C377.861 288.282 379.341 288.562 380.941 288.962C385.901 290.322 390.301 292.802 394.141 296.402C398.861 300.882 402.141 307.442 403.981 316.082C405.101 321.042 405.661 326.402 405.661 332.162C405.661 343.682 403.781 353.002 400.021 360.122C398.501 362.922 396.581 365.482 394.261 367.802C391.941 370.042 389.741 371.722 387.661 372.842C383.341 375.082 379.261 376.282 375.421 376.442ZM371.581 361.922C378.301 361.922 382.581 358.482 384.421 351.602C385.941 346.242 386.701 339.762 386.701 332.162C386.701 324.482 385.941 318.042 384.421 312.842C382.581 305.882 378.301 302.402 371.581 302.402C366.461 302.402 362.701 304.722 360.301 309.362C359.261 311.282 358.421 313.682 357.781 316.562C356.901 321.282 356.461 326.482 356.461 332.162C356.461 337.842 356.901 343.042 357.781 347.762C359.941 357.202 364.541 361.922 371.581 361.922Z" fill="#F8F5F1"/>
<path d="M315.192 263.664C315.123 264.952 314.387 266.861 312.087 266.861C309.511 266.861 308.476 264.538 308.476 261.893C308.476 259.248 309.419 257.109 311.949 257.109C312.662 257.109 314.663 257.201 315.1 259.8H317.032C316.779 257.615 315.192 255.683 311.903 255.683C307.372 255.683 306.337 259.179 306.337 261.893C306.337 268.126 310.868 268.287 312.041 268.287C316.204 268.287 317.009 265.044 317.124 263.664H315.192ZM328.022 264.446C327.769 265.734 326.734 266.861 324.779 266.861C322.111 266.861 321.076 264.446 321.076 262.445H330.069C330.069 262.261 330.046 262.054 330.046 261.87C329.931 259.34 329.31 255.683 324.641 255.683C319.236 255.683 318.937 260.421 318.937 262.031C318.937 263.089 319.052 268.287 324.848 268.287C328.436 268.287 329.655 266.102 329.954 264.446H328.022ZM321.076 261.019C321.076 259.547 321.697 257.109 324.687 257.109C327.332 257.109 327.861 259.455 327.93 261.019H321.076ZM334.745 257.569H340.725V256.143H332.721V267.827H334.745V257.569ZM341.421 261.985C341.421 265.09 342.916 268.287 347.171 268.287C351.426 268.287 352.921 265.09 352.921 261.985C352.921 258.88 351.426 255.683 347.171 255.683C342.916 255.683 341.421 258.88 341.421 261.985ZM343.56 261.962C343.56 257.27 346.274 257.063 347.171 257.063C348.068 257.063 350.782 257.27 350.782 261.962C350.782 266.654 348.068 266.861 347.171 266.861C346.274 266.861 343.56 266.654 343.56 261.962ZM353.908 266.401L354.092 270.863H355.794V267.827H365.822V270.863H367.524L367.685 266.401H365.661V256.143H357.289V258.098C357.289 262.376 356.553 264.676 355.38 266.401H353.908ZM363.637 257.569V266.401H357.519C358.761 264.469 359.175 261.341 359.175 259.202V257.569H363.637ZM371.447 262.376H377.22V267.827H379.244V256.143H377.22V260.95H371.447V256.143H369.423V267.827H371.447V262.376ZM387.047 263.227H389.715V267.827H391.739V256.143H385.92C382.608 256.143 381.987 258.351 381.987 259.823C381.987 261.916 383.39 263.02 384.977 263.204L381.757 267.827H383.988L387.047 263.227ZM389.715 257.569V261.801H386.863C384.586 261.801 384.08 260.628 384.08 259.754C384.08 257.592 385.989 257.569 386.794 257.569H389.715Z" fill="#F8F5F1"/>
<defs>
<filter id="filter0_d_3759_50315" x="73" y="96" width="310" height="55" filterUnits="userSpaceOnUse" color-interpolation-filters="sRGB">
<feFlood flood-opacity="0" result="BackgroundImageFix"/>
<feColorMatrix in="SourceAlpha" type="matrix" values="0 0 0 0 0 0 0 0 0 0 0 0 0 0 0 0 0 0 127 0" result="hardAlpha"/>
<feOffset dx="4" dy="4"/>
<feComposite in2="hardAlpha" operator="out"/>
<feColorMatrix type="matrix" values="0 0 0 0 0.0823529 0 0 0 0 0.0980392 0 0 0 0 0.129412 0 0 0 1 0"/>
<feBlend mode="normal" in2="BackgroundImageFix" result="effect1_dropShadow_3759_50315"/>
<feBlend mode="normal" in="SourceGraphic" in2="effect1_dropShadow_3759_50315" result="shape"/>
</filter>
</defs>
</svg>
