<svg width="972" height="303" viewBox="0 0 972 303" fill="none" xmlns="http://www.w3.org/2000/svg">
<ellipse cx="666" cy="151.5" rx="90" ry="151.5" fill="#B35B58"/>
<path d="M860 151.5C860 193.002 853.998 230.402 844.416 257.284C839.619 270.742 834 281.35 827.961 288.517C821.905 295.703 815.819 299 810 299C804.181 299 798.095 295.703 792.039 288.517C786 281.35 780.381 270.742 775.584 257.284C766.002 230.402 760 193.002 760 151.5C760 109.998 766.002 72.5983 775.584 45.7163C780.381 32.2578 786 21.6499 792.039 14.4832C798.095 7.29736 804.181 4 810 4C815.819 4 821.905 7.29736 827.961 14.4832C834 21.6499 839.619 32.2578 844.416 45.7163C853.998 72.5983 860 109.998 860 151.5Z" stroke="#B35B58" stroke-width="8"/>
<path d="M932 151.5C932 193.119 927.988 230.669 921.564 257.702C918.345 271.25 914.571 281.935 910.525 289.135C906.296 296.664 902.583 299 900 299C897.417 299 893.704 296.664 889.475 289.135C885.429 281.935 881.655 271.25 878.436 257.702C872.012 230.669 868 193.119 868 151.5C868 109.881 872.012 72.3312 878.436 45.2981C881.655 31.7499 885.429 21.0653 889.475 13.8648C893.704 6.33562 897.417 4 900 4C902.583 4 906.296 6.33562 910.525 13.8648C914.571 21.0653 918.345 31.7499 921.564 45.2981C927.988 72.3312 932 109.881 932 151.5Z" stroke="#B35B58" stroke-width="8"/>
<ellipse cx="954" cy="151.5" rx="18" ry="151.5" fill="#B35B58"/>
<mask id="mask0_3451_50044" style="mask-type:alpha" maskUnits="userSpaceOnUse" x="0" y="0" width="576" height="303">
<rect width="576" height="303" rx="20" fill="#B35B58"/>
</mask>
<g mask="url(#mask0_3451_50044)">
<rect width="576" height="303" rx="20" fill="#B35B58"/>
<path d="M647.81 239.97C645.587 369.286 540.981 472.075 414.48 469.883C287.979 467.691 186.968 361.34 189.19 232.024C191.413 102.707 296.019 -0.0812806 422.52 2.11053C549.021 4.30234 650.032 110.653 647.81 239.97Z" stroke="#F7C96E" stroke-width="16"/>
<path d="M419.426 1.12109C602.547 36.523 604.85 448.956 415.059 475.15" stroke="#F7C96E" stroke-width="16"/>
<path d="M419.201 -5.21646L417.22 475.119" stroke="#F7C96E" stroke-width="16"/>
<path d="M416.318 1.19922C237.42 30.4748 229.163 442.253 412.425 474.935" stroke="#F7C96E" stroke-width="16"/>
<path d="M601.428 86.3095C513.528 159.713 328.566 156.417 238.769 82.5947" stroke="#F7C96E" stroke-width="16"/>
</g>
</svg>
