<svg width="981" height="189" viewBox="0 0 981 189" fill="none" xmlns="http://www.w3.org/2000/svg">
<path d="M661.357 80.9168H749.466L743.414 110.487H655.305L640.54 183.902H603.021L639.087 5.4624H781.66L775.608 35.5422H670.555L661.357 80.9168Z" fill="#F7C96E"/>
<path d="M876.431 84.4856L939.124 5.4624H981L887.808 113.291L873.526 183.902H836.007L850.289 113.291L800.667 5.4624H845.206L876.431 84.4856Z" fill="#F7C96E"/>
<path d="M101.907 89.5839H185.659L166.778 183.902H139.426L142.814 157.391H141.604C135.472 167.248 127.484 174.98 117.64 180.588C107.958 186.196 95.2096 189 79.3952 189C68.2605 189 58.1747 187.811 49.1379 185.431C40.2624 183.052 31.7903 178.124 23.7217 170.646C7.90724 156.201 0 135.553 0 108.702C0 74.2042 11.1347 46.5886 33.4041 25.8556C44.5388 15.6591 56.3189 8.86137 68.7446 5.46252C81.1703 2.06368 95.371 0.364258 111.347 0.364258C118.609 0.364258 124.741 0.619171 129.743 1.129C134.907 1.46888 141.362 2.99836 149.108 5.71743C157.015 8.43651 163.712 12.2602 169.199 17.1885C181.786 30.444 188.321 45.8238 188.806 63.3279H150.076C149.108 52.2816 144.67 43.8695 136.763 38.0914C130.147 32.9932 120.787 30.444 108.684 30.444C90.1264 30.444 75.1188 35.8822 63.6614 46.7585C56.561 53.2163 50.8323 61.7134 46.4752 72.2498C42.1182 82.6163 39.9396 94.1724 39.9396 106.918C39.9396 123.742 44.1353 136.573 52.5267 145.41C60.918 154.417 72.4562 158.92 87.141 158.92C102.794 158.92 115.704 154.247 125.87 144.9C134.423 137.593 140.797 127.481 144.993 114.565H97.0654L101.907 89.5839Z" fill="#F7C96E"/>
<path d="M438.315 96.0788C437.938 119.076 424.41 140.198 401.753 155.625C379.11 171.041 347.737 180.435 313.006 179.803C278.274 179.172 247.227 168.645 225.103 152.414C202.965 136.174 190.137 114.573 190.514 91.5754C190.891 68.5778 204.419 47.4559 227.076 32.0296C249.719 16.6129 281.092 7.21971 315.823 7.8509C350.555 8.48208 381.602 19.0097 403.726 35.2399C425.864 51.4803 438.692 73.0812 438.315 96.0788Z" stroke="#416552" stroke-width="11"/>
<path d="M615.759 94.7925C615.759 145.073 577.054 185.833 529.31 185.833C481.565 185.833 442.86 145.073 442.86 94.7925C442.86 44.5122 481.565 3.75195 529.31 3.75195C577.054 3.75195 615.759 44.5122 615.759 94.7925Z" fill="#F7C96E"/>
</svg>
