<svg width="1375" height="265" viewBox="0 0 1375 265" fill="none" xmlns="http://www.w3.org/2000/svg">
<path d="M926.978 113.455H1050.47L1041.99 154.916H918.496L897.8 257.852H845.212L895.764 7.65918H1095.6L1087.12 49.8345H939.87L926.978 113.455Z" fill="#F7C96E"/>
<path d="M1228.43 118.459L1316.31 7.65918H1375L1244.38 158.847L1224.36 257.852H1171.77L1191.79 158.847L1122.24 7.65918H1184.67L1228.43 118.459Z" fill="#F7C96E"/>
<path d="M142.835 125.607H260.225L233.762 257.851H195.423L200.173 220.68H198.477C189.882 234.5 178.686 245.342 164.888 253.205C151.317 261.068 133.449 265 111.283 265C95.676 265 81.5395 263.332 68.8732 259.996C56.433 256.66 44.5583 249.75 33.2491 239.266C11.083 219.012 0 190.061 0 152.413C0 104.042 15.6067 65.3221 46.8202 36.2521C62.4269 21.9554 78.9384 12.4242 96.3546 7.65861C113.771 2.89304 133.675 0.510254 156.067 0.510254C166.246 0.510254 174.841 0.867672 181.852 1.58251C189.09 2.05907 198.138 4.20357 208.994 8.01602C220.077 11.8285 229.464 17.1898 237.154 24.0999C254.797 42.6856 263.957 64.2498 264.636 88.7926H210.351C208.994 73.3044 202.774 61.5096 191.691 53.4082C182.418 46.2598 169.299 42.6856 152.335 42.6856C126.324 42.6856 105.289 50.3105 89.2298 65.5604C79.2776 74.615 71.2481 86.5289 65.1411 101.302C59.0341 115.837 55.9806 132.04 55.9806 149.911C55.9806 173.501 61.8614 191.491 73.623 203.881C85.3846 216.51 101.557 222.824 122.14 222.824C144.079 222.824 162.174 216.272 176.424 203.166C188.412 192.92 197.346 178.743 203.227 160.634H136.05L142.835 125.607Z" fill="#F7C96E"/>
<path d="M616.565 134.754C616.022 167.91 596.526 198.122 564.355 220.033C532.198 241.935 487.765 255.209 438.683 254.317C389.6 253.424 345.628 238.543 314.208 215.486C282.774 192.418 264.279 161.515 264.822 128.359C265.365 95.2032 284.862 64.9911 317.032 43.0798C349.189 21.178 393.622 7.90423 442.704 8.79653C491.787 9.68883 535.759 24.5698 567.179 47.6274C598.613 70.695 617.108 101.598 616.565 134.754Z" stroke="#416552" stroke-width="11"/>
<path d="M863.067 132.91C863.067 203.409 808.817 260.559 741.897 260.559C674.976 260.559 620.727 203.409 620.727 132.91C620.727 62.4113 674.976 5.26074 741.897 5.26074C808.817 5.26074 863.067 62.4113 863.067 132.91Z" fill="#F7C96E"/>
</svg>
