<svg width="512" height="512" viewBox="0 0 512 512" fill="none" xmlns="http://www.w3.org/2000/svg">
<rect width="512" height="512" rx="256" fill="#F7C96E"/>
<path d="M464.294 260.009C462.276 374.645 367.227 466.122 251.843 464.17C136.46 462.219 44.6873 367.582 46.7056 252.945C48.7239 138.308 143.773 46.8314 259.157 48.7831C374.54 50.7348 466.313 145.372 464.294 260.009Z" stroke="#151921" stroke-width="30"/>
<path d="M258.815 50.5449C429.265 81.4439 431.649 440.193 255.027 462.868" stroke="#151921" stroke-width="30"/>
<path d="M256.045 41.314L254.365 464.425" stroke="#151921" stroke-width="30"/>
<path d="M255.329 50.8353C83.8757 76.0355 76.4182 433.202 252.123 461.748" stroke="#151921" stroke-width="30"/>
<path d="M422.235 118.88C341.774 186.486 172.465 183.449 90.2671 115.458" stroke="#151921" stroke-width="30"/>
<path d="M425.588 391.547C328.345 311.026 174.285 313.784 90.2671 391.547" stroke="#151921" stroke-width="30"/>
</svg>
