<svg width="1472" height="472" viewBox="0 0 1472 472" fill="none" xmlns="http://www.w3.org/2000/svg">
<path d="M707.611 307.864L829.989 194.41V237.789L707.611 307.864Z" fill="#644165"/>
<path d="M697.553 121L576.849 232.785L707.609 307.865L829.989 194.411L697.553 121Z" fill="#B35B58"/>
<path d="M705.791 125.503L583.634 236.946L588.16 240.323L711.447 128.88L705.791 125.503Z" fill="#644165"/>
<path d="M815.505 186.289L691.085 298.859L696.741 302.236L821.158 189.667L815.505 186.289Z" fill="#644165"/>
<path d="M1061.69 285.777V256.617L939.095 182.619V211.78L1061.69 285.777Z" fill="#B35B58"/>
<path d="M1061.69 256.772L1099.57 231.91V260.915L1061.69 285.778V256.772Z" fill="#644165"/>
<path d="M976.056 158.29L1099.57 232.359L1062.52 257.048L939 182.98L976.056 158.29Z" fill="#F7C96E"/>
<path d="M1097.18 23L1045.33 46.6741L1183.18 131.659L1235.02 96.4506L1097.18 23Z" fill="#416552"/>
<path d="M1235.02 163.223L1130.12 223.926L1183.79 126.802L1235.02 96.4498V163.223Z" fill="#B35B58"/>
<path d="M1130.11 223.928L987.386 141.979C1020.32 118.912 1045.33 74.5986 1045.33 46.675L1183.79 126.803C1183.79 167.11 1148 208.347 1130.11 223.928Z" fill="#644165"/>
<path d="M489.939 312.187L530.869 324.515L522.253 332.019L489.939 312.187Z" fill="#644165"/>
<path d="M651.508 313.259L609.5 323.979L618.116 331.483L651.508 313.259Z" fill="#644165"/>
<path d="M530.869 324.515L569.646 301.467L529.254 289.675L489.939 312.187L530.869 324.515Z" fill="#B35B58"/>
<path d="M570.184 359.356L529.792 382.404L570.184 346.492L611.116 382.94L570.184 359.356Z" fill="#644165"/>
<path d="M609.5 323.979L570.185 346.491L611.115 382.94L649.892 359.355L609.5 323.979Z" fill="#B35B58"/>
<path d="M570.186 346.491L529.792 382.404L489.939 359.355L530.869 324.515L570.186 346.491Z" fill="#B35B58"/>
<path d="M651.509 313.259L611.116 289.675L569.647 301.467L609.501 323.979L651.509 313.259Z" fill="#B35B58"/>
<path d="M569.647 301.466L530.87 324.514L570.185 346.491L609.5 323.979L569.647 301.466Z" fill="#F7C96E"/>
<path d="M862.3 263.308L978.792 333.212L956.522 353.672L836.603 275.243L862.3 263.308Z" fill="#F7C96E"/>
<path d="M834.891 270.128L685.848 351.967L802.341 420.166L951.384 334.917L834.891 270.128Z" fill="#F7C96E"/>
<path d="M661.863 379.247L685.847 365.606L807.479 435.511L780.069 450.856L661.863 379.247Z" fill="#F7C96E"/>
<path d="M661.863 392.887V379.247L780.069 450.857L802.34 435.512L685.847 365.608V351.968L802.34 420.167L951.382 334.918V348.558L978.792 333.213V345.148L780.069 464.496L661.863 392.887Z" fill="#B35B58"/>
<path d="M840.029 273.536L948.348 339.21L951.382 334.916L844.757 271.348L840.029 273.536Z" fill="#B35B58"/>
<path d="M670.357 412.294V451.445H677.198V415.699L737.061 349.311L858.498 281.222L938.886 265.902V296.542H945.727V255.688L855.077 274.413L731.93 344.205L670.357 412.294Z" fill="#644165"/>
<path d="M377.413 95.8737L554.47 200.985L509.431 217.989L394.5 211.806C362.915 177.284 304.417 108.549 323.055 109.786C341.694 111.022 367.062 101.026 377.413 95.8737Z" fill="#3A4C7B"/>
<path d="M-5.22946e-05 313.826L180.165 418.937L200.354 403.48L351.011 251.996L344.795 166.979L150.651 91.2372C150.651 169.143 50.2169 272.091 -5.22946e-05 313.826Z" fill="#416552"/>
<path d="M150.655 91.2369L329.263 194.803L403.815 151.521L226.758 46.4102L150.655 91.2369Z" fill="#644165"/>
<path d="M180.161 418.939L554.47 200.988C437.673 235.613 403.819 183.984 403.819 151.524L329.266 194.805C329.266 271.474 229.865 376.173 180.161 418.939Z" fill="#B35B58"/>
<path d="M352.987 369.307V341.995L467.806 272.688V300.001L352.987 369.307Z" fill="#3A4C7B"/>
<path d="M352.985 342.141L317.5 318.854V346.022L352.985 369.308V342.141Z" fill="#644165"/>
<path d="M433.188 249.901L317.5 319.275L352.206 342.399L467.895 273.026L433.188 249.901Z" fill="#F7C96E"/>
<path d="M1191.08 252.543C1262.77 211.234 1272.84 149.27 1268.9 123.452L1448.14 213.815L1436.35 308.873L1298.39 392.195L1234.71 396.89L1068.45 286.575C1079.46 292.443 1119.39 293.852 1191.08 252.543Z" fill="#F7C96E"/>
<path d="M1192.07 252.077C1263.76 210.767 1273.83 148.804 1269.89 122.986L1449.13 213.349L1437.34 308.407L1299.38 391.729L1235.7 396.423L1069.44 286.109C1080.45 291.977 1120.38 293.386 1192.07 252.077Z" fill="#F7C96E"/>
<path d="M1009.49 375.769V273.67L1179.29 372.248V472L1009.49 375.769Z" fill="#644165"/>
<path d="M1438.71 222.032L1268.91 123.454L1301.93 103.504L1471.73 202.082L1438.71 222.032Z" fill="#3A4C7B"/>
<path d="M1179.29 372.247L1009.49 273.668L1038.97 256.065L1208.77 354.644L1179.29 372.247Z" fill="#3A4C7B"/>
<path d="M1179.29 471.998V372.246L1208.77 354.642C1235.19 416.606 1305.46 381.547 1349.09 355.816C1412.77 318.262 1439.5 251.761 1438.71 222.031L1471.72 202.081V304.18L1179.29 471.998Z" fill="#B35B58"/>
<rect x="160" width="217" height="68" rx="10" fill="#B35B58"/>
<path d="M203.282 46.988H206.854V42.998H208.336C211.718 42.998 220.382 41.896 220.382 32.434C220.382 23.504 212.934 21.908 208.336 21.908H206.854V17.88H203.282V21.908H201.8C190.324 21.908 189.754 30.306 189.754 32.434C189.754 42.542 199.52 42.998 201.8 42.998H203.282V46.988ZM203.282 40.186H202.294C193.668 40.186 193.554 34.448 193.554 32.434C193.554 30.572 193.668 24.72 202.294 24.72H203.282V40.186ZM206.854 40.186V24.72H207.88C209.97 24.72 216.582 24.834 216.582 32.434C216.582 39.274 211.376 40.186 207.88 40.186H206.854ZM227.247 32.396C227.133 28.368 231.047 28.292 232.263 28.292C236.519 28.292 236.595 31.256 236.595 32.168C236.595 34.676 235.683 34.638 232.833 34.828C225.081 35.55 223.371 37.602 223.371 40.946C223.371 45.012 226.107 46.76 230.173 46.76C232.795 46.76 235.455 45.772 236.785 43.34C237.203 45.848 238.343 46.152 240.243 46.152C240.965 46.152 241.307 46.114 241.763 46V43.644C239.711 43.758 239.749 42.846 239.749 41.364L239.939 32.434C240.053 26.81 235.379 25.936 232.263 25.936C225.423 25.936 224.055 29.812 224.055 32.396H227.247ZM236.519 37.754C236.215 43.112 233.175 44.404 230.553 44.404C228.387 44.404 226.829 43.112 226.829 40.832C226.829 37.716 229.375 37.564 232.339 37.07C234.467 36.766 235.607 36.918 236.595 36.12L236.519 37.754ZM249.049 36.994H258.587V46H261.931V26.696H258.587V34.638H249.049V26.696H245.705V46H249.049V36.994ZM281.132 18.146C280.638 19.856 279.042 18.982 273.912 20.198C269.77 21.11 266.312 23.542 266.312 33.726C266.312 37.488 266.806 46.76 276.04 46.76C282.766 46.76 285.54 41.668 285.54 36.652C285.54 31.37 282.918 26.24 276.344 26.24C271.442 26.24 269.58 29.204 268.858 31.142H268.782C268.896 25.822 271.328 23.96 274.178 23.162C277.788 22.136 283.678 23.238 283.982 18.146H281.132ZM269.846 36.88C269.846 33.878 270.568 28.596 275.964 28.596C281.322 28.596 282.006 33.992 282.006 37.032C282.006 41.478 279.954 44.404 275.964 44.404C270.91 44.404 269.846 39.806 269.846 36.88ZM288.8 36.348C288.8 41.478 291.27 46.76 298.3 46.76C305.33 46.76 307.8 41.478 307.8 36.348C307.8 31.218 305.33 25.936 298.3 25.936C291.27 25.936 288.8 31.218 288.8 36.348ZM292.334 36.31C292.334 28.558 296.818 28.216 298.3 28.216C299.782 28.216 304.266 28.558 304.266 36.31C304.266 44.062 299.782 44.404 298.3 44.404C296.818 44.404 292.334 44.062 292.334 36.31ZM315.512 35.132V26.696H312.168V46H315.512V36.348L324.176 46H328.166L318.628 35.664L327.672 26.696H323.758L315.512 35.132ZM344.287 39.122C344.173 41.25 342.957 44.404 339.157 44.404C334.901 44.404 333.191 40.566 333.191 36.196C333.191 31.826 334.749 28.292 338.929 28.292C340.107 28.292 343.413 28.444 344.135 32.738H347.327C346.909 29.128 344.287 25.936 338.853 25.936C331.367 25.936 329.657 31.712 329.657 36.196C329.657 46.494 337.143 46.76 339.081 46.76C345.959 46.76 347.289 41.402 347.479 39.122H344.287Z" fill="#F8F5F1"/>
<rect x="631" y="82" width="166" height="68" rx="10" fill="#644165"/>
<path d="M666.27 113.522V101.4H662.698V128H666.27V114.13L678.772 128H683.446L669.956 113.712L682.61 101.4H678.24L666.27 113.522ZM689.075 124.086V108.696H685.731V128H689.493L699.525 112.572V128H702.869V108.696H699.145L689.075 124.086ZM711.675 117.132V108.696H708.331V128H711.675V118.348L720.339 128H724.329L714.791 117.664L723.835 108.696H719.921L711.675 117.132ZM740.831 122.414C740.413 124.542 738.703 126.404 735.473 126.404C731.065 126.404 729.355 122.414 729.355 119.108H744.213C744.213 118.804 744.175 118.462 744.175 118.158C743.985 113.978 742.959 107.936 735.245 107.936C726.315 107.936 725.821 115.764 725.821 118.424C725.821 120.172 726.011 128.76 735.587 128.76C741.515 128.76 743.529 125.15 744.023 122.414H740.831ZM729.355 116.752C729.355 114.32 730.381 110.292 735.321 110.292C739.691 110.292 740.565 114.168 740.679 116.752H729.355ZM748.594 108.696V135.03H751.938V125.226C753.648 128.57 757.524 128.76 758.284 128.76C762.692 128.76 766.91 125.834 766.91 118.348C766.91 111.128 762.958 107.936 758.208 107.936C756.536 107.936 753.762 108.43 751.824 111.356H751.71V108.696H748.594ZM751.71 118.424C751.71 111.128 755.776 110.292 757.486 110.292C761.286 110.292 763.376 113.37 763.376 118.348C763.376 124.504 760.374 126.404 757.676 126.404C755.13 126.404 751.71 124.39 751.71 118.424Z" fill="#F8F5F1"/>
<rect x="797" y="396" width="146" height="68" rx="10" fill="#416552"/>
<path d="M828.662 415.4V442H832.234V431.398H839.15C846.028 431.398 848.498 428.016 848.498 423.038C848.498 417.528 844.926 415.4 839.492 415.4H828.662ZM832.234 418.402H838.77C842.874 418.402 844.85 419.808 844.85 423.114C844.85 426.61 843.026 428.396 838.77 428.396H832.234V418.402ZM865.714 436.414C865.296 438.542 863.586 440.404 860.356 440.404C855.948 440.404 854.238 436.414 854.238 433.108H869.096C869.096 432.804 869.058 432.462 869.058 432.158C868.868 427.978 867.842 421.936 860.128 421.936C851.198 421.936 850.704 429.764 850.704 432.424C850.704 434.172 850.894 442.76 860.47 442.76C866.398 442.76 868.412 439.15 868.906 436.414H865.714ZM854.238 430.752C854.238 428.32 855.264 424.292 860.204 424.292C864.574 424.292 865.448 428.168 865.562 430.752H854.238ZM876.822 438.086V422.696H873.478V442H877.24L887.272 426.572V442H890.616V422.696H886.892L876.822 438.086ZM885.638 415.4C885.752 417.338 883.966 418.402 881.952 418.402C881.382 418.402 880.85 418.364 880.28 418.174C879.786 417.984 879.33 417.68 878.95 417.262C878.228 416.464 878.228 415.704 878.266 415.4H875.416C875.53 415.742 875.568 416.084 875.682 416.426C876.404 418.554 878.152 420.416 881.952 420.416C882.446 420.416 882.978 420.378 883.472 420.302C887.12 419.694 888.184 417.034 888.488 415.4H885.638ZM893.836 442C900.98 443.33 901.588 436.68 901.588 429.954V425.052H908.504V442H911.848V422.696H898.472V429.954C898.472 434.514 898.396 440.442 893.836 439.53V442Z" fill="#F8F5F1"/>
<rect x="393" y="366" width="244" height="68" rx="10" fill="#3A4C7B"/>
<path d="M428.008 388.402H441.384V412H444.956V385.4H424.436V412H428.008V388.402ZM454.265 408.086V392.696H450.921V412H454.683L464.715 396.572V412H468.059V392.696H464.335L454.265 408.086ZM473.52 392.696V419.03H476.864V409.226C478.574 412.57 482.45 412.76 483.21 412.76C487.618 412.76 491.836 409.834 491.836 402.348C491.836 395.128 487.884 391.936 483.134 391.936C481.462 391.936 478.688 392.43 476.75 395.356H476.636V392.696H473.52ZM476.636 402.424C476.636 395.128 480.702 394.292 482.412 394.292C486.212 394.292 488.302 397.37 488.302 402.348C488.302 408.504 485.3 410.404 482.602 410.404C480.056 410.404 476.636 408.39 476.636 402.424ZM498.74 398.396C498.626 394.368 502.54 394.292 503.756 394.292C508.012 394.292 508.088 397.256 508.088 398.168C508.088 400.676 507.176 400.638 504.326 400.828C496.574 401.55 494.864 403.602 494.864 406.946C494.864 411.012 497.6 412.76 501.666 412.76C504.288 412.76 506.948 411.772 508.278 409.34C508.696 411.848 509.836 412.152 511.736 412.152C512.458 412.152 512.8 412.114 513.256 412V409.644C511.204 409.758 511.242 408.846 511.242 407.364L511.432 398.434C511.546 392.81 506.872 391.936 503.756 391.936C496.916 391.936 495.548 395.812 495.548 398.396H498.74ZM508.012 403.754C507.708 409.112 504.668 410.404 502.046 410.404C499.88 410.404 498.322 409.112 498.322 406.832C498.322 403.716 500.868 403.564 503.832 403.07C505.96 402.766 507.1 402.918 508.088 402.12L508.012 403.754ZM527.078 412H529.662L536.198 396.496H536.312L536.198 397.522V412H539.542V392.696H534.944L528.37 408.39L521.796 392.696H517.198V412H520.542V397.522L520.466 396.496H520.542L527.078 412ZM548.374 408.086V392.696H545.03V412H548.792L558.824 396.572V412H562.168V392.696H558.444L548.374 408.086ZM564.894 409.644L565.198 417.016H568.01V412H584.578V417.016H587.39L587.656 409.644H584.312V392.696H570.48V395.926C570.48 402.994 569.264 406.794 567.326 409.644H564.894ZM580.968 395.052V409.644H570.86C572.912 406.452 573.596 401.284 573.596 397.75V395.052H580.968ZM593.072 398.396C592.958 394.368 596.872 394.292 598.088 394.292C602.344 394.292 602.42 397.256 602.42 398.168C602.42 400.676 601.508 400.638 598.658 400.828C590.906 401.55 589.196 403.602 589.196 406.946C589.196 411.012 591.932 412.76 595.998 412.76C598.62 412.76 601.28 411.772 602.61 409.34C603.028 411.848 604.168 412.152 606.068 412.152C606.79 412.152 607.132 412.114 607.588 412V409.644C605.536 409.758 605.574 408.846 605.574 407.364L605.764 398.434C605.878 392.81 601.204 391.936 598.088 391.936C591.248 391.936 589.88 395.812 589.88 398.396H593.072ZM602.344 403.754C602.04 409.112 599 410.404 596.378 410.404C594.212 410.404 592.654 409.112 592.654 406.832C592.654 403.716 595.2 403.564 598.164 403.07C600.292 402.766 601.432 402.918 602.42 402.12L602.344 403.754Z" fill="#F8F5F1"/>
<rect x="840" y="1" width="270" height="68" rx="10" fill="#F7C96E"/>
<path d="M874.834 32.522V20.4H871.262V47H874.834V33.13L887.336 47H892.01L878.52 32.712L891.174 20.4H886.804L874.834 32.522ZM894.592 27.696V47H903.674C906.828 47 910.628 46.392 910.628 41.984C910.628 40.122 910.172 37.842 906.41 36.93V36.816C907.056 36.588 909.906 35.752 909.906 32.294C909.906 27.886 905.726 27.696 903.788 27.696H894.592ZM897.936 30.052H902.724C904.092 30.052 906.524 30.204 906.524 32.788C906.524 34.118 905.726 35.752 902.572 35.752H897.936V30.052ZM897.936 38.108H902.724C904.206 38.108 907.17 38.336 907.17 41.68C907.17 44.568 903.978 44.644 902.838 44.644H897.936V38.108ZM913.975 37.348C913.975 42.478 916.445 47.76 923.475 47.76C930.505 47.76 932.975 42.478 932.975 37.348C932.975 32.218 930.505 26.936 923.475 26.936C916.445 26.936 913.975 32.218 913.975 37.348ZM917.509 37.31C917.509 29.558 921.993 29.216 923.475 29.216C924.957 29.216 929.441 29.558 929.441 37.31C929.441 45.062 924.957 45.404 923.475 45.404C921.993 45.404 917.509 45.062 917.509 37.31ZM940.601 30.052V47H943.945V30.052H950.633V27.696H933.913V30.052H940.601ZM966.799 41.414C966.381 43.542 964.671 45.404 961.441 45.404C957.033 45.404 955.323 41.414 955.323 38.108H970.181C970.181 37.804 970.143 37.462 970.143 37.158C969.953 32.978 968.927 26.936 961.213 26.936C952.283 26.936 951.789 34.764 951.789 37.424C951.789 39.172 951.979 47.76 961.555 47.76C967.483 47.76 969.497 44.15 969.991 41.414H966.799ZM955.323 35.752C955.323 33.32 956.349 29.292 961.289 29.292C965.659 29.292 966.533 33.168 966.647 35.752H955.323ZM974.563 27.696V54.03H977.907V44.226C979.617 47.57 983.493 47.76 984.253 47.76C988.661 47.76 992.879 44.834 992.879 37.348C992.879 30.128 988.927 26.936 984.177 26.936C982.505 26.936 979.731 27.43 977.793 30.356H977.679V27.696H974.563ZM977.679 37.424C977.679 30.128 981.745 29.292 983.455 29.292C987.255 29.292 989.345 32.37 989.345 37.348C989.345 43.504 986.343 45.404 983.645 45.404C981.099 45.404 977.679 43.39 977.679 37.424ZM1000.58 30.052H1010.35V47H1013.69V27.696H997.237V47H1000.58V30.052ZM1021.71 33.396C1021.6 29.368 1025.51 29.292 1026.73 29.292C1030.99 29.292 1031.06 32.256 1031.06 33.168C1031.06 35.676 1030.15 35.638 1027.3 35.828C1019.55 36.55 1017.84 38.602 1017.84 41.946C1017.84 46.012 1020.57 47.76 1024.64 47.76C1027.26 47.76 1029.92 46.772 1031.25 44.34C1031.67 46.848 1032.81 47.152 1034.71 47.152C1035.43 47.152 1035.77 47.114 1036.23 47V44.644C1034.18 44.758 1034.22 43.846 1034.22 42.364L1034.41 33.434C1034.52 27.81 1029.85 26.936 1026.73 26.936C1019.89 26.936 1018.52 30.812 1018.52 33.396H1021.71ZM1030.99 38.754C1030.68 44.112 1027.64 45.404 1025.02 45.404C1022.85 45.404 1021.3 44.112 1021.3 41.832C1021.3 38.716 1023.84 38.564 1026.81 38.07C1028.93 37.766 1030.07 37.918 1031.06 37.12L1030.99 38.754ZM1043.52 43.086V27.696H1040.17V47H1043.93L1053.97 31.572V47H1057.31V27.696H1053.59L1043.52 43.086ZM1052.33 20.4C1052.45 22.338 1050.66 23.402 1048.65 23.402C1048.08 23.402 1047.54 23.364 1046.97 23.174C1046.48 22.984 1046.02 22.68 1045.64 22.262C1044.92 21.464 1044.92 20.704 1044.96 20.4H1042.11C1042.22 20.742 1042.26 21.084 1042.38 21.426C1043.1 23.554 1044.85 25.416 1048.65 25.416C1049.14 25.416 1049.67 25.378 1050.17 25.302C1053.81 24.694 1054.88 22.034 1055.18 20.4H1052.33ZM1066.12 30.052H1075.88V47H1079.23V27.696H1062.77V47H1066.12V30.052Z" fill="#151921"/>
<rect x="1094" y="187" width="238" height="68" rx="10" fill="#151921"/>
<path d="M1133.06 216.85L1126.41 206.4H1121.96L1130.78 219.396L1121.47 233H1126.07L1133.06 221.942L1140.05 233H1144.65L1135.34 219.396L1144.16 206.4H1139.71L1133.06 216.85ZM1149.18 219.396C1149.07 215.368 1152.98 215.292 1154.2 215.292C1158.46 215.292 1158.53 218.256 1158.53 219.168C1158.53 221.676 1157.62 221.638 1154.77 221.828C1147.02 222.55 1145.31 224.602 1145.31 227.946C1145.31 232.012 1148.04 233.76 1152.11 233.76C1154.73 233.76 1157.39 232.772 1158.72 230.34C1159.14 232.848 1160.28 233.152 1162.18 233.152C1162.9 233.152 1163.24 233.114 1163.7 233V230.644C1161.65 230.758 1161.69 229.846 1161.69 228.364L1161.88 219.434C1161.99 213.81 1157.32 212.936 1154.2 212.936C1147.36 212.936 1145.99 216.812 1145.99 219.396H1149.18ZM1158.46 224.754C1158.15 230.112 1155.11 231.404 1152.49 231.404C1150.32 231.404 1148.77 230.112 1148.77 227.832C1148.77 224.716 1151.31 224.564 1154.28 224.07C1156.4 223.766 1157.54 223.918 1158.53 223.12L1158.46 224.754ZM1165.4 233C1172.54 234.33 1173.15 227.68 1173.15 220.954V216.052H1180.07V233H1183.41V213.696H1170.04V220.954C1170.04 225.514 1169.96 231.442 1165.4 230.53V233ZM1199.55 240.03H1202.89V233.494C1211.52 233.304 1214.67 229.01 1214.67 223.234C1214.67 214.57 1207.34 213.088 1202.89 213.24V206.4H1199.55V213.24C1189.25 212.936 1187.77 219.548 1187.77 223.234C1187.77 228.44 1190.43 233.304 1199.55 233.494V240.03ZM1199.55 231.138C1196.66 231.138 1191.3 230.15 1191.3 223.196C1191.3 216.622 1196.2 215.406 1199.55 215.596V231.138ZM1202.89 215.596C1210.03 215.178 1211.14 220.612 1211.14 223.196C1211.14 226.464 1209.77 231.138 1202.89 231.138V215.596ZM1222.38 216.052H1232.15V233H1235.49V213.696H1219.04V233H1222.38V216.052ZM1243.52 219.396C1243.4 215.368 1247.32 215.292 1248.53 215.292C1252.79 215.292 1252.86 218.256 1252.86 219.168C1252.86 221.676 1251.95 221.638 1249.1 221.828C1241.35 222.55 1239.64 224.602 1239.64 227.946C1239.64 232.012 1242.38 233.76 1246.44 233.76C1249.06 233.76 1251.72 232.772 1253.05 230.34C1253.47 232.848 1254.61 233.152 1256.51 233.152C1257.23 233.152 1257.58 233.114 1258.03 233V230.644C1255.98 230.758 1256.02 229.846 1256.02 228.364L1256.21 219.434C1256.32 213.81 1251.65 212.936 1248.53 212.936C1241.69 212.936 1240.32 216.812 1240.32 219.396H1243.52ZM1252.79 224.754C1252.48 230.112 1249.44 231.404 1246.82 231.404C1244.66 231.404 1243.1 230.112 1243.1 227.832C1243.1 224.716 1245.64 224.564 1248.61 224.07C1250.74 223.766 1251.88 223.918 1252.86 223.12L1252.79 224.754ZM1265.32 229.086V213.696H1261.97V233H1265.74L1275.77 217.572V233H1279.11V213.696H1275.39L1265.32 229.086ZM1274.13 206.4C1274.25 208.338 1272.46 209.402 1270.45 209.402C1269.88 209.402 1269.35 209.364 1268.78 209.174C1268.28 208.984 1267.83 208.68 1267.45 208.262C1266.72 207.464 1266.72 206.704 1266.76 206.4H1263.91C1264.03 206.742 1264.06 207.084 1264.18 207.426C1264.9 209.554 1266.65 211.416 1270.45 211.416C1270.94 211.416 1271.47 211.378 1271.97 211.302C1275.62 210.694 1276.68 208.034 1276.98 206.4H1274.13ZM1287.92 216.052H1297.68V233H1301.03V213.696H1284.57V233H1287.92V216.052Z" fill="#F8F5F1"/>
</svg>
