<svg width="1152" height="647" viewBox="0 0 1152 647" fill="none" xmlns="http://www.w3.org/2000/svg">
<g clip-path="url(#clip0_3499_50218)">
<rect width="1152" height="647" rx="20" fill="#151921"/>
<path d="M726.492 179.735H804.255L798.914 205.791H721.152L708.12 270.483H675.007L706.838 113.246H832.668L827.327 139.752H734.611L726.492 179.735Z" fill="#F8F5F1"/>
<path d="M916.311 182.88L971.642 113.246H1008.6L926.351 208.262L913.747 270.483H880.634L893.238 208.262L849.443 113.246H888.752L916.311 182.88Z" fill="#F8F5F1"/>
<path d="M232.74 187.372H306.657L289.993 270.483H265.853L268.844 247.122H267.775C262.363 255.808 255.314 262.621 246.626 267.563C238.08 272.505 226.829 274.976 212.872 274.976C203.045 274.976 194.143 273.927 186.168 271.831C178.334 269.734 170.857 265.392 163.736 258.803C149.779 246.074 142.8 227.88 142.8 204.219C142.8 173.82 152.627 149.486 172.281 131.216C182.109 122.231 192.505 116.241 203.472 113.246C214.438 110.251 226.972 108.754 241.071 108.754C247.48 108.754 252.892 108.979 257.307 109.428C261.865 109.727 267.562 111.075 274.398 113.471C281.377 115.867 287.287 119.236 292.13 123.579C303.239 135.26 309.007 148.812 309.434 164.236H275.253C274.398 154.502 270.482 147.09 263.503 141.998C257.664 137.506 249.403 135.26 238.721 135.26C222.343 135.26 209.098 140.052 198.986 149.635C192.719 155.326 187.663 162.813 183.818 172.098C179.972 181.233 178.05 191.416 178.05 202.647C178.05 217.472 181.753 228.778 189.158 236.565C196.564 244.502 206.748 248.47 219.708 248.47C233.523 248.47 244.917 244.352 253.889 236.116C261.438 229.677 267.063 220.766 270.766 209.385H228.467L232.74 187.372Z" fill="#F8F5F1"/>
<path d="M528.998 193.083C528.67 213.076 516.891 231.511 497.015 245.023C477.153 258.525 449.597 266.772 419.06 266.218C388.523 265.664 361.254 256.422 341.848 242.208C322.427 227.983 311.26 209.131 311.588 189.139C311.916 169.146 323.695 150.711 343.571 137.199C363.432 123.697 390.989 115.45 421.526 116.004C452.063 116.558 479.332 125.8 498.738 140.014C518.159 154.239 529.326 173.091 528.998 193.083Z" stroke="#F7C96E" stroke-width="11"/>
<path d="M686.25 191.961C686.25 236.267 652.09 272.184 609.952 272.184C567.814 272.184 533.655 236.267 533.655 191.961C533.655 147.655 567.814 111.738 609.952 111.738C652.09 111.738 686.25 147.655 686.25 191.961Z" fill="#F8F5F1"/>
<path d="M568.574 547.134L690.897 433.906V477.199L568.574 547.134Z" fill="#644165"/>
<path d="M558.521 360.643L437.871 472.206L568.573 547.136L690.898 433.908L558.521 360.643Z" fill="#B35B58"/>
<path d="M566.755 365.137L444.652 476.359L449.176 479.729L572.408 368.507L566.755 365.137Z" fill="#644165"/>
<path d="M676.421 425.802L552.056 538.147L557.709 541.517L682.071 429.172L676.421 425.802Z" fill="#644165"/>
<path d="M929.712 554.602V525.5L807.177 451.649V480.752L929.712 554.602Z" fill="#B35B58"/>
<path d="M929.714 525.655L967.584 500.842V529.79L929.714 554.603V525.655Z" fill="#644165"/>
<path d="M844.122 427.368L967.584 501.29L930.545 525.93L807.082 452.009L844.122 427.368Z" fill="#F7C96E"/>
<path d="M1013.94 292.348L962.121 315.975L1099.9 400.79L1151.72 365.652L1013.94 292.348Z" fill="#416552"/>
<path d="M1151.73 432.292L1046.87 492.874L1100.51 395.943L1151.73 365.651V432.292Z" fill="#B35B58"/>
<path d="M1046.86 492.876L904.2 411.09C937.123 388.069 962.121 343.844 962.121 315.976L1100.51 395.944C1100.51 436.171 1064.74 477.326 1046.86 492.876Z" fill="#644165"/>
<path d="M351 551.45L391.912 563.754L383.299 571.243L351 551.45Z" fill="#644165"/>
<path d="M512.497 552.52L470.507 563.218L479.12 570.708L512.497 552.52Z" fill="#644165"/>
<path d="M391.912 563.753L430.671 540.751L390.297 528.982L351 551.45L391.912 563.753Z" fill="#B35B58"/>
<path d="M431.209 598.525L390.835 621.527L431.209 585.687L472.122 622.062L431.209 598.525Z" fill="#644165"/>
<path d="M470.508 563.219L431.21 585.686L472.122 622.062L510.882 598.525L470.508 563.219Z" fill="#B35B58"/>
<path d="M431.211 585.686L390.835 621.527L351 598.525L391.912 563.754L431.211 585.686Z" fill="#B35B58"/>
<path d="M512.497 552.52L472.123 528.982L430.672 540.751L470.508 563.218L512.497 552.52Z" fill="#B35B58"/>
<path d="M430.672 540.751L391.913 563.753L431.21 585.686L470.507 563.218L430.672 540.751Z" fill="#F7C96E"/>
<path d="M723.195 502.667L839.635 572.432L817.375 592.851L697.509 514.578L723.195 502.667Z" fill="#F7C96E"/>
<path d="M695.798 509.473L546.822 591.149L663.263 659.213L812.239 574.133L695.798 509.473Z" fill="#F7C96E"/>
<path d="M522.847 618.375L546.82 604.762L668.399 674.527L641.001 689.841L522.847 618.375Z" fill="#F7C96E"/>
<path d="M522.847 631.988V618.376L641.001 689.842L663.262 674.528L546.82 604.763V591.15L663.262 659.214L812.237 574.134V587.747L839.634 572.433V584.344L641.001 703.455L522.847 631.988Z" fill="#B35B58"/>
<path d="M700.934 512.875L809.205 578.418L812.237 574.132L705.659 510.69L700.934 512.875Z" fill="#B35B58"/>
<path d="M531.337 651.357V690.43H538.175V654.754L598.012 588.499L719.394 520.545L799.746 505.255V535.835H806.584V495.062L715.975 513.75L592.883 583.403L531.337 651.357Z" fill="#644165"/>
<path d="M238.523 365.077L415.501 469.98L370.483 486.949L255.602 480.779C224.032 446.325 165.56 377.727 184.19 378.961C202.82 380.196 228.176 370.219 238.523 365.077Z" fill="#3A4C7B"/>
<path d="M-138.721 582.597L41.3634 687.499L61.5437 672.072L212.133 520.889L205.92 436.041L11.8622 360.45C11.8622 438.201 -88.5268 540.944 -138.721 582.597Z" fill="#416552"/>
<path d="M11.8666 360.449L190.395 463.81L264.915 420.614L87.9365 315.712L11.8666 360.449Z" fill="#644165"/>
<path d="M41.359 687.5L415.501 469.982C298.757 504.538 264.917 453.012 264.917 420.616L190.398 463.811C190.398 540.328 91.0406 644.819 41.359 687.5Z" fill="#B35B58"/>
<path d="M214.107 637.967V610.709L328.875 541.54V568.798L214.107 637.967Z" fill="#3A4C7B"/>
<path d="M214.107 610.854L178.636 587.614V614.727L214.107 637.967V610.854Z" fill="#644165"/>
<path d="M294.273 518.798L178.636 588.033L213.328 611.112L328.965 541.876L294.273 518.798Z" fill="#F7C96E"/>
<path d="M1051.83 521.435C1123.49 480.208 1133.55 418.367 1129.62 392.601L1308.78 482.784L1296.99 577.653L1159.09 660.81L1095.44 665.495L929.254 555.4C940.254 561.256 980.17 562.662 1051.83 521.435Z" fill="#F7C96E"/>
<path d="M1052.82 520.97C1124.48 479.743 1134.54 417.902 1130.61 392.136L1309.77 482.319L1297.98 577.188L1160.08 660.345L1096.43 665.03L930.243 554.935C941.243 560.791 981.16 562.197 1052.82 520.97Z" fill="#F7C96E"/>
<path d="M870.318 644.416V542.521L1040.04 640.903V740.456L870.318 644.416Z" fill="#644165"/>
<path d="M1299.35 490.985L1129.63 392.603L1162.63 372.692L1332.35 471.075L1299.35 490.985Z" fill="#3A4C7B"/>
<path d="M1040.04 640.901L870.318 542.519L899.783 524.95L1069.51 623.333L1040.04 640.901Z" fill="#3A4C7B"/>
<path d="M1040.05 740.454V640.9L1069.51 623.332C1095.91 685.172 1166.16 650.183 1209.77 624.503C1273.42 587.024 1300.13 520.655 1299.35 490.984L1332.35 471.073V572.969L1040.05 740.454Z" fill="#B35B58"/>
<ellipse rx="2.64666" ry="2.64582" transform="matrix(0.939102 -0.343638 0.344897 0.938641 321.73 114.235)" fill="#F7C96E"/>
<ellipse rx="2.64661" ry="2.64551" transform="matrix(0.939079 -0.343702 0.344833 0.938664 343.08 106.416)" fill="#F7C96E"/>
<path d="M347.234 96.9463C347.59 97.915 347.093 98.9878 346.124 99.3426C346.114 99.3464 314.588 110.886 314.578 110.89C313.617 111.223 312.562 110.726 312.21 109.768C311.858 108.81 312.339 107.751 313.286 107.384C313.297 107.38 344.824 95.839 344.835 95.8348C345.805 95.48 346.879 95.9777 347.234 96.9463Z" fill="#F7C96E"/>
<ellipse cx="310.944" cy="47.4476" rx="7.32122" ry="7.30993" fill="#F7C96E"/>
<ellipse cx="305.184" cy="78.8641" rx="7.32123" ry="7.31037" fill="#F7C96E"/>
<path d="M342.864 65.6649C342.576 67.7865 340.657 69.2871 338.54 69.0783C338.492 69.0735 278.785 60.9784 278.736 60.9717C276.562 60.677 275.039 58.6785 275.335 56.5081C275.63 54.3376 277.631 52.8171 279.805 53.1118C279.831 53.1153 339.514 61.2085 339.54 61.2125C341.673 61.5434 343.156 63.5202 342.864 65.6649Z" fill="#F7C96E"/>
<ellipse cx="341.239" cy="91.2287" rx="3.81638" ry="3.96602" fill="#F7C96E"/>
<ellipse cx="328.934" cy="73.4963" rx="3.81638" ry="3.96602" fill="#F7C96E"/>
<ellipse cx="305.095" cy="82.8303" rx="3.81638" ry="3.96602" fill="#F7C96E"/>
<path d="M327.455 69.8428L303.622 79.1746L306.115 86.6401L331.194 76.6861L327.455 69.8428Z" fill="#F7C96E"/>
<path d="M327.691 77.5437L338.205 93.6411L344.281 88.8196L331.196 70.3115L327.691 77.5437Z" fill="#F7C96E"/>
<path d="M297.857 79.1739L297.623 63.5439L313.823 65.6435L311.876 75.9857L297.857 79.1739Z" fill="#F7C96E"/>
<path d="M310.544 81.4301C310.544 81.43 310.544 81.4299 310.544 81.4299C310.544 78.7238 308.424 76.4639 305.728 76.4639C303.032 76.4639 300.912 78.7238 300.912 81.4299C300.912 81.4436 300.912 101.318 300.913 101.356C300.962 104.019 303.064 106.226 305.728 106.226C308.359 106.226 310.444 104.072 310.541 101.453C310.541 101.451 310.541 101.438 310.541 101.416H310.542L310.542 100.915C310.544 97.7304 310.544 81.4943 310.544 81.4301Z" fill="#F7C96E" stroke="#151921" stroke-width="2"/>
<path d="M350.207 318.109H352.802V308.491L360.999 318.109H364.145L355.231 307.775L363.759 298.819H360.668L352.802 307.306V298.819H350.207V307.306L342.341 298.819H339.25L347.779 307.775L338.864 318.109H342.01L350.207 308.491V318.109Z" fill="#F8F5F1"/>
<path d="M368.457 315.27V304.11H366.028V318.109H368.76L376.047 306.92V318.109H378.475V304.11H375.771L368.457 315.27Z" fill="#F8F5F1"/>
<path d="M382.442 304.11V318.109H389.039C391.329 318.109 394.089 317.668 394.089 314.471C394.089 313.121 393.758 311.467 391.026 310.806V310.723C391.495 310.558 393.565 309.952 393.565 307.444C393.565 304.247 390.529 304.11 389.121 304.11H382.442ZM384.871 305.818H388.349C389.342 305.818 391.109 305.928 391.109 307.802C391.109 308.767 390.529 309.952 388.238 309.952H384.871V305.818ZM384.871 311.66H388.349C389.425 311.66 391.578 311.826 391.578 314.251C391.578 316.345 389.259 316.4 388.431 316.4H384.871V311.66Z" fill="#F8F5F1"/>
<path d="M399.749 315.27V304.11H397.32V318.109H400.053L407.339 306.92V318.109H409.768V304.11H407.063L399.749 315.27Z" fill="#F8F5F1"/>
<path d="M419.376 311.109C419.376 314.829 421.17 318.66 426.276 318.66C431.382 318.66 433.176 314.829 433.176 311.109C433.176 307.389 431.382 303.558 426.276 303.558C421.17 303.558 419.376 307.389 419.376 311.109ZM421.943 311.082C421.943 305.46 425.2 305.212 426.276 305.212C427.353 305.212 430.609 305.46 430.609 311.082C430.609 316.703 427.353 316.951 426.276 316.951C425.2 316.951 421.943 316.703 421.943 311.082Z" fill="#F8F5F1"/>
<path d="M446.312 297.909C445.953 299.149 444.794 298.515 441.068 299.397C438.06 300.059 435.548 301.822 435.548 309.208C435.548 311.936 435.907 318.66 442.614 318.66C447.499 318.66 449.514 314.967 449.514 311.33C449.514 307.499 447.609 303.779 442.834 303.779C439.274 303.779 437.922 305.928 437.397 307.334H437.342C437.425 303.476 439.191 302.125 441.261 301.547C443.883 300.803 448.161 301.602 448.382 297.909H446.312ZM438.115 311.495C438.115 309.318 438.639 305.487 442.558 305.487C446.45 305.487 446.947 309.401 446.947 311.605C446.947 314.829 445.456 316.951 442.558 316.951C438.888 316.951 438.115 313.617 438.115 311.495Z" fill="#F8F5F1"/>
<path d="M452.682 304.11V318.109H459.472C463.225 318.109 464.274 316.014 464.274 313.92C464.274 309.842 460.603 309.649 458.644 309.649H455.111V304.11H452.682ZM455.111 311.357H458.064C459.61 311.357 461.762 311.33 461.762 313.755C461.762 316.097 459.692 316.4 458.506 316.4H455.111V311.357ZM465.985 304.11V318.109H468.414V304.11H465.985Z" fill="#F8F5F1"/>
<path d="M471.64 304.11V308.794C471.64 310.751 471.778 312.404 476.746 312.404C477.96 312.404 478.816 312.404 480.002 312.322V318.109H482.431V304.11H480.002V310.613H479.423C479.23 310.613 479.036 310.613 478.843 310.641C478.319 310.668 477.767 310.696 477.242 310.696C474.068 310.696 474.068 309.869 474.068 308.409V304.11H471.64Z" fill="#F8F5F1"/>
<path d="M488.829 311.578H495.757V318.109H498.186V304.11H495.757V309.869H488.829V304.11H486.4V318.109H488.829V311.578Z" fill="#F8F5F1"/>
<path d="M501.368 311.109C501.368 314.829 503.162 318.66 508.268 318.66C513.374 318.66 515.168 314.829 515.168 311.109C515.168 307.389 513.374 303.558 508.268 303.558C503.162 303.558 501.368 307.389 501.368 311.109ZM503.934 311.082C503.934 305.46 507.191 305.212 508.268 305.212C509.344 305.212 512.601 305.46 512.601 311.082C512.601 316.703 509.344 316.951 508.268 316.951C507.191 316.951 503.934 316.703 503.934 311.082Z" fill="#F8F5F1"/>
<path d="M520.769 315.27V304.11H518.34V318.109H521.072L528.359 306.92V318.109H530.787V304.11H528.083L520.769 315.27ZM527.172 298.819C527.255 300.224 525.957 300.996 524.495 300.996C524.081 300.996 523.694 300.968 523.28 300.83C522.921 300.692 522.59 300.472 522.314 300.169C521.79 299.59 521.79 299.039 521.817 298.819H519.747C519.83 299.067 519.858 299.315 519.941 299.563C520.465 301.106 521.735 302.456 524.495 302.456C524.853 302.456 525.24 302.429 525.599 302.373C528.248 301.933 529.021 300.004 529.242 298.819H527.172Z" fill="#F8F5F1"/>
<path d="M551.022 313.121C550.939 314.664 550.056 316.951 547.296 316.951C544.205 316.951 542.963 314.168 542.963 310.999C542.963 307.83 544.094 305.267 547.13 305.267C547.986 305.267 550.387 305.377 550.911 308.491H553.23C552.926 305.873 551.022 303.558 547.075 303.558C541.638 303.558 540.396 307.747 540.396 310.999C540.396 318.467 545.833 318.66 547.241 318.66C552.236 318.66 553.202 314.774 553.34 313.121H551.022Z" fill="#F8F5F1"/>
<path d="M558.746 310.227V304.11H556.317V318.109H558.746V311.109L565.038 318.109H567.936L561.009 310.613L567.578 304.11H564.735L558.746 310.227Z" fill="#F8F5F1"/>
<path d="M579.922 314.058C579.618 315.601 578.376 316.951 576.03 316.951C572.829 316.951 571.587 314.058 571.587 311.66H582.378C582.378 311.44 582.351 311.192 582.351 310.971C582.213 307.94 581.468 303.558 575.865 303.558C569.379 303.558 569.02 309.235 569.02 311.164C569.02 312.432 569.158 318.66 576.113 318.66C580.419 318.66 581.882 316.042 582.24 314.058H579.922ZM571.587 309.952C571.587 308.188 572.332 305.267 575.92 305.267C579.094 305.267 579.729 308.078 579.812 309.952H571.587Z" fill="#F8F5F1"/>
<path d="M587.99 315.27V304.11H585.561V318.109H588.293L595.58 306.92V318.109H598.009V304.11H595.304L587.99 315.27ZM594.393 298.819C594.476 300.224 593.179 300.996 591.716 300.996C591.302 300.996 590.915 300.968 590.501 300.83C590.143 300.692 589.811 300.472 589.535 300.169C589.011 299.59 589.011 299.039 589.039 298.819H586.969C587.051 299.067 587.079 299.315 587.162 299.563C587.686 301.106 588.956 302.456 591.716 302.456C592.075 302.456 592.461 302.429 592.82 302.373C595.469 301.933 596.242 300.004 596.463 298.819H594.393Z" fill="#F8F5F1"/>
<path d="M605.205 305.818V318.109H607.633V305.818H612.491V304.11H600.347V305.818H605.205Z" fill="#F8F5F1"/>
<path d="M624.233 314.058C623.929 315.601 622.687 316.951 620.341 316.951C617.14 316.951 615.898 314.058 615.898 311.66H626.689C626.689 311.44 626.662 311.192 626.662 310.971C626.524 307.94 625.779 303.558 620.176 303.558C613.69 303.558 613.331 309.235 613.331 311.164C613.331 312.432 613.469 318.66 620.424 318.66C624.73 318.66 626.193 316.042 626.551 314.058H624.233ZM615.898 309.952C615.898 308.188 616.643 305.267 620.231 305.267C623.405 305.267 624.04 308.078 624.123 309.952H615.898Z" fill="#F8F5F1"/>
<path d="M629.872 304.11V323.207H632.301V316.097C633.543 318.522 636.358 318.66 636.91 318.66C640.112 318.66 643.175 316.538 643.175 311.109C643.175 305.873 640.305 303.558 636.855 303.558C635.64 303.558 633.626 303.917 632.218 306.039H632.135V304.11H629.872ZM632.135 311.164C632.135 305.873 635.088 305.267 636.33 305.267C639.09 305.267 640.608 307.499 640.608 311.109C640.608 315.573 638.428 316.951 636.468 316.951C634.619 316.951 632.135 315.491 632.135 311.164Z" fill="#F8F5F1"/>
<path d="M656.166 313.121C656.083 314.664 655.2 316.951 652.44 316.951C649.349 316.951 648.107 314.168 648.107 310.999C648.107 307.83 649.238 305.267 652.274 305.267C653.13 305.267 655.531 305.377 656.055 308.491H658.374C658.07 305.873 656.166 303.558 652.219 303.558C646.782 303.558 645.54 307.747 645.54 310.999C645.54 318.467 650.977 318.66 652.385 318.66C657.38 318.66 658.346 314.774 658.484 313.121H656.166Z" fill="#F8F5F1"/>
<path d="M663.89 310.227V304.11H661.461V318.109H663.89V311.109L670.183 318.109H673.081L666.153 310.613L672.722 304.11H669.879L663.89 310.227Z" fill="#F8F5F1"/>
<path d="M673.652 311.109C673.652 314.829 675.446 318.66 680.552 318.66C685.658 318.66 687.452 314.829 687.452 311.109C687.452 307.389 685.658 303.558 680.552 303.558C675.446 303.558 673.652 307.389 673.652 311.109ZM676.219 311.082C676.219 305.46 679.476 305.212 680.552 305.212C681.628 305.212 684.885 305.46 684.885 311.082C684.885 316.703 681.628 316.951 680.552 316.951C679.476 316.951 676.219 316.703 676.219 311.082Z" fill="#F8F5F1"/>
<path d="M693.053 315.27V304.11H690.624V318.109H693.357L700.643 306.92V318.109H703.072V304.11H700.367L693.053 315.27ZM699.456 298.819C699.539 300.224 698.242 300.996 696.779 300.996C696.365 300.996 695.979 300.968 695.565 300.83C695.206 300.692 694.875 300.472 694.599 300.169C694.074 299.59 694.074 299.039 694.102 298.819H692.032C692.115 299.067 692.142 299.315 692.225 299.563C692.749 301.106 694.019 302.456 696.779 302.456C697.138 302.456 697.524 302.429 697.883 302.373C700.533 301.933 701.305 300.004 701.526 298.819H699.456Z" fill="#F8F5F1"/>
<path d="M719.967 318.109H722.395V311.192L727.971 318.109H730.979L724.548 310.751L730.62 304.11H727.75L722.395 310.448V304.11H719.967V310.448L714.612 304.11H711.742L717.814 310.751L711.383 318.109H714.391L719.967 311.192V318.109Z" fill="#F8F5F1"/>
<path d="M735.289 315.27V304.11H732.86V318.109H735.592L742.879 306.92V318.109H745.307V304.11H742.603L735.289 315.27Z" fill="#F8F5F1"/>
<path d="M748.17 313.81C748.253 315.381 749.026 318.66 754.408 318.66C759.348 318.66 760.369 316.125 760.369 314.361C760.369 312.101 758.851 310.999 757.416 310.778V310.696C758.244 310.475 759.845 309.842 759.845 307.637C759.845 306.424 759.293 303.558 754.297 303.558C752.862 303.558 748.75 303.806 748.529 307.968H750.847C750.847 307.003 751.427 305.267 754.159 305.267C757.057 305.267 757.333 307.058 757.333 307.802C757.333 309.869 755.401 309.979 754.408 309.979H752.614V311.688H754.684C755.401 311.688 757.858 311.743 757.858 314.196C757.858 316.097 756.34 316.951 754.215 316.951C751.703 316.951 750.489 315.436 750.489 313.81H748.17Z" fill="#F8F5F1"/>
<path d="M765.961 311.578H772.889V318.109H775.318V304.11H772.889V309.869H765.961V304.11H763.532V318.109H765.961V311.578Z" fill="#F8F5F1"/>
<path d="M779.3 304.11V318.109H786.062C787.276 318.109 790.864 317.943 790.864 313.755C790.864 309.924 787.332 309.676 785.234 309.676H781.729V304.11H779.3ZM781.729 311.385H784.682C785.896 311.385 788.353 311.219 788.353 313.755C788.353 314.526 788.27 316.4 785.096 316.4H781.729V311.385Z" fill="#F8F5F1"/>
<path d="M795.906 309.869V304.11H793.477V318.109H795.906V311.578H798.114C798.335 314.664 799.743 318.66 804.987 318.66C805.732 318.66 811.831 318.605 811.831 311.082C811.831 305.653 808.519 303.558 804.931 303.558C800.295 303.558 798.418 306.865 798.114 309.869H795.906ZM800.681 311.082C800.681 305.487 803.938 305.267 804.987 305.267C809.154 305.267 809.265 309.897 809.265 311.082C809.265 312.239 809.182 316.951 804.987 316.951C801.205 316.951 800.681 313.204 800.681 311.082Z" fill="#F8F5F1"/>
</g>
<rect x="1.5" y="1.5" width="1149" height="644" rx="18.5" stroke="#F8F5F1" stroke-width="3"/>
<defs>
<clipPath id="clip0_3499_50218">
<rect width="1152" height="647" rx="20" fill="white"/>
</clipPath>
</defs>
</svg>
