<svg width="1440" height="799" viewBox="0 0 1440 799" fill="none" xmlns="http://www.w3.org/2000/svg">
<g opacity="0.3">
<path d="M1439.5 399.316C1439.5 509.32 1359.1 609.015 1228.87 681.238C1098.67 753.452 918.754 798.133 720 798.133C521.246 798.133 341.333 753.452 211.126 681.238C80.9014 609.015 0.5 509.32 0.5 399.316C0.5 289.313 80.9014 189.617 211.126 117.394C341.333 45.1807 521.246 0.5 720 0.5C918.754 0.5 1098.67 45.1807 1228.87 117.394C1359.1 189.617 1439.5 289.313 1439.5 399.316Z" stroke="#151921"/>
<path d="M1187.51 399.316C1187.51 619.505 978.276 798.133 720.004 798.133C461.731 798.133 252.5 619.505 252.5 399.316C252.5 179.128 461.731 0.5 720.004 0.5C978.276 0.5 1187.51 179.128 1187.51 399.316Z" stroke="#151921"/>
<path d="M1295.51 399.316C1295.51 509.374 1231.16 609.066 1127.01 681.265C1022.87 753.462 878.974 798.133 720.004 798.133C561.034 798.133 417.135 753.462 312.992 681.265C208.848 609.066 144.5 509.374 144.5 399.316C144.5 289.258 208.848 189.566 312.992 117.368C417.135 45.1708 561.034 0.5 720.004 0.5C878.974 0.5 1022.87 45.1708 1127.01 117.368C1231.16 189.566 1295.51 289.258 1295.51 399.316Z" stroke="#151921"/>
<path d="M1006.4 399.527C1006.4 509.721 974.193 609.462 922.152 681.643C870.111 753.824 798.261 798.412 718.948 798.412C639.635 798.412 567.784 753.824 515.744 681.643C463.703 609.462 431.5 509.721 431.5 399.527C431.5 289.332 463.703 189.591 515.744 117.41C567.784 45.2293 639.635 0.640625 718.948 0.640625C798.261 0.640625 870.111 45.2293 922.152 117.41C974.193 189.591 1006.4 289.332 1006.4 399.527Z" stroke="#151921"/>
<path d="M1367.5 399.316C1367.5 509.346 1295.13 609.039 1177.95 681.25C1060.77 753.456 898.866 798.133 720.002 798.133C541.139 798.133 379.232 753.456 262.058 681.25C144.875 609.039 72.5 509.346 72.5 399.316C72.5 289.286 144.875 189.594 262.058 117.383C379.232 45.1767 541.139 0.5 720.002 0.5C898.866 0.5 1060.77 45.1767 1177.95 117.383C1295.13 189.594 1367.5 289.286 1367.5 399.316Z" stroke="#151921"/>
<path d="M1402.46 399.316C1402.46 509.333 1326.19 609.027 1202.67 681.244C1079.17 753.454 908.519 798.133 719.996 798.133C531.474 798.133 360.823 753.454 237.319 681.244C113.804 609.027 37.5312 509.333 37.5312 399.316C37.5312 289.299 113.804 189.606 237.319 117.389C360.823 45.1788 531.474 0.5 719.996 0.5C908.519 0.5 1079.17 45.1788 1202.67 117.389C1326.19 189.606 1402.46 289.299 1402.46 399.316Z" stroke="#151921"/>
<line x1="289.912" y1="718.551" x2="1151.06" y2="718.551" stroke="#151921"/>
<line x1="290.26" y1="79.3911" x2="1149.86" y2="79.3911" stroke="#151921"/>
<line x1="61.3242" y1="239.196" x2="1379.06" y2="239.196" stroke="#151921"/>
<line x1="1.05078" y1="398.986" x2="1438.95" y2="398.986" stroke="#151921"/>
<line x1="59.8721" y1="558.769" x2="1380.13" y2="558.769" stroke="#151921"/>
</g>
</svg>
