<svg width="1024" height="915" viewBox="0 0 1024 915" fill="none" xmlns="http://www.w3.org/2000/svg">
<g opacity="0.3">
<path d="M1023.5 457.296C1023.5 709.526 794.548 914.092 512 914.092C229.452 914.092 0.5 709.526 0.5 457.296C0.5 205.066 229.452 0.5 512 0.5C794.548 0.5 1023.5 205.066 1023.5 457.296Z" stroke="#151921"/>
<path d="M844.304 457.296C844.304 583.481 807.081 697.699 746.924 780.359C686.767 863.019 603.703 914.092 512.002 914.092C420.3 914.092 337.236 863.019 277.079 780.359C216.922 697.699 179.699 583.481 179.699 457.296C179.699 331.112 216.922 216.893 277.079 134.233C337.236 51.5726 420.3 0.5 512.002 0.5C603.703 0.5 686.767 51.5726 746.924 134.233C807.081 216.893 844.304 331.112 844.304 457.296Z" stroke="#151921"/>
<path d="M921.106 457.296C921.106 709.631 737.894 914.092 512.003 914.092C286.112 914.092 102.9 709.631 102.9 457.296C102.9 204.961 286.112 0.5 512.003 0.5C737.894 0.5 921.106 204.961 921.106 457.296Z" stroke="#151921"/>
<path d="M715.514 457.537C715.514 583.784 692.604 698.055 655.584 780.746C637.074 822.092 615.046 855.521 590.611 878.606C566.178 901.689 539.362 914.413 511.251 914.413C483.141 914.413 456.324 901.689 431.892 878.606C407.456 855.521 385.429 822.092 366.918 780.746C329.898 698.055 306.988 583.784 306.988 457.537C306.988 331.29 329.898 217.018 366.918 134.328C385.429 92.9817 407.456 59.553 431.892 36.4674C456.324 13.3844 483.141 0.661133 511.251 0.661133C539.362 0.661133 566.178 13.3844 590.611 36.4674C615.046 59.553 637.074 92.9817 655.584 134.328C692.604 217.018 715.514 331.29 715.514 457.537Z" stroke="#151921"/>
<path d="M972.302 457.296C972.302 709.574 766.222 914.092 512.001 914.092C257.78 914.092 51.6992 709.574 51.6992 457.296C51.6992 205.018 257.78 0.5 512.001 0.5C766.222 0.5 972.302 205.018 972.302 457.296Z" stroke="#151921"/>
<path d="M997.161 457.296C997.161 709.55 779.975 914.092 511.997 914.092C244.02 914.092 26.833 709.55 26.833 457.296C26.833 205.042 244.02 0.5 511.997 0.5C779.975 0.5 997.161 205.042 997.161 457.296Z" stroke="#151921"/>
<line x1="206.159" y1="822.955" x2="818.528" y2="822.955" stroke="#151921"/>
<line x1="206.407" y1="90.9912" x2="817.681" y2="90.9912" stroke="#151921"/>
<line x1="43.6074" y1="274" x2="980.661" y2="274" stroke="#151921"/>
<line x1="0.748047" y1="456.99" x2="1023.26" y2="456.99" stroke="#151921"/>
<line x1="42.5762" y1="639.973" x2="981.426" y2="639.973" stroke="#151921"/>
</g>
</svg>
