<svg width="370" height="353" viewBox="0 0 370 353" fill="none" xmlns="http://www.w3.org/2000/svg">
<g opacity="0.3">
<path d="M369.5 176.438C369.5 273.584 286.919 352.376 185 352.376C83.0809 352.376 0.5 273.584 0.5 176.438C0.5 79.2922 83.0809 0.5 185 0.5C286.919 0.5 369.5 79.2922 369.5 176.438Z" stroke="#151921"/>
<path d="M304.751 176.438C304.751 225.073 291.315 269.081 269.617 300.917C247.918 332.755 217.992 352.376 185 352.376C152.008 352.376 122.082 332.755 100.383 300.917C78.6853 269.081 65.249 225.073 65.249 176.438C65.249 127.803 78.6853 83.7948 100.383 51.9591C122.082 20.1209 152.008 0.5 185 0.5C217.992 0.5 247.918 20.1209 269.617 51.9591C291.315 83.7948 304.751 127.803 304.751 176.438Z" stroke="#151921"/>
<path d="M332.501 176.438C332.501 273.692 266.384 352.376 185 352.376C103.616 352.376 37.499 273.692 37.499 176.438C37.499 79.1842 103.616 0.5 185 0.5C266.384 0.5 332.501 79.1842 332.501 176.438Z" stroke="#151921"/>
<path d="M258.216 176.531C258.216 225.212 249.943 269.261 236.585 301.12C229.906 317.051 221.965 329.911 213.174 338.78C204.384 347.648 194.772 352.5 184.73 352.5C174.687 352.5 165.076 347.648 156.286 338.78C147.494 329.911 139.554 317.051 132.874 301.12C119.517 269.261 111.243 225.212 111.243 176.531C111.243 127.851 119.517 83.8021 132.874 51.9423C139.554 36.0114 147.494 23.1517 156.286 14.2823C165.076 5.41472 174.687 0.5625 184.73 0.5625C194.772 0.5625 204.384 5.41472 213.174 14.2823C221.965 23.1517 229.906 36.0114 236.585 51.9423C249.943 83.8021 258.216 127.851 258.216 176.531Z" stroke="#151921"/>
<path d="M351.002 176.438C351.002 273.634 276.654 352.376 185.002 352.376C93.3489 352.376 19.001 273.634 19.001 176.438C19.001 79.2425 93.3489 0.5 185.002 0.5C276.654 0.5 351.002 79.2425 351.002 176.438Z" stroke="#151921"/>
<path d="M359.983 176.438C359.983 273.609 281.637 352.376 184.999 352.376C88.3603 352.376 10.0146 273.609 10.0146 176.438C10.0146 79.2676 88.3603 0.5 184.999 0.5C281.637 0.5 359.983 79.2676 359.983 176.438Z" stroke="#151921"/>
<line x1="74.4912" y1="317.213" x2="295.757" y2="317.213" stroke="#151921"/>
<line x1="74.5811" y1="34.7993" x2="295.452" y2="34.7993" stroke="#151921"/>
<line x1="15.7568" y1="105.41" x2="354.341" y2="105.41" stroke="#151921"/>
<line x1="0.271484" y1="176.013" x2="369.732" y2="176.013" stroke="#151921"/>
<line x1="15.3838" y1="246.613" x2="354.617" y2="246.613" stroke="#151921"/>
</g>
</svg>
