<svg width="1370" height="1004" viewBox="0 0 1370 1004" fill="none" xmlns="http://www.w3.org/2000/svg">
<path d="M1367.59 501.29C1367.59 620.246 1291.52 728.157 1168.08 806.405C1044.66 884.641 874.059 933.079 685.543 933.079C497.028 933.079 326.431 884.641 203.009 806.405C79.5683 728.157 3.50049 620.246 3.50049 501.29C3.50049 382.334 79.5683 274.422 203.009 196.175C326.431 117.939 497.028 69.5 685.543 69.5C874.059 69.5 1044.66 117.939 1168.08 196.175C1291.52 274.422 1367.59 382.334 1367.59 501.29Z" stroke="#F8F5F1" stroke-width="3"/>
<path d="M1152.5 501.29C1152.5 739.653 943.548 933.079 685.547 933.079C427.545 933.079 218.597 739.653 218.597 501.29C218.597 262.927 427.545 69.5 685.547 69.5C943.548 69.5 1152.5 262.927 1152.5 501.29Z" stroke="#F8F5F1" stroke-width="3"/>
<path d="M970.5 502.5C970.5 621.954 938.33 730.031 886.397 808.201C834.457 886.381 762.869 934.5 684 934.5C605.131 934.5 533.543 886.381 481.603 808.201C429.67 730.031 397.5 621.954 397.5 502.5C397.5 383.046 429.67 274.969 481.603 196.799C533.543 118.619 605.131 70.5 684 70.5C762.869 70.5 834.457 118.619 886.397 196.799C938.33 274.969 970.5 383.046 970.5 502.5Z" stroke="#F8F5F1" stroke-width="3"/>
<path d="M1260.04 501.29C1260.04 620.363 1195.88 728.277 1091.93 806.473C987.983 884.67 844.308 933.079 685.545 933.079C526.782 933.079 383.107 884.67 279.156 806.473C175.205 728.277 111.049 620.363 111.049 501.29C111.049 382.216 175.205 274.302 279.156 196.106C383.107 117.91 526.782 69.5 685.545 69.5C844.308 69.5 987.983 117.91 1091.93 196.106C1195.88 274.302 1260.04 382.216 1260.04 501.29Z" stroke="#F8F5F1" stroke-width="3"/>
<path d="M1332.42 501.29C1332.42 620.283 1260.25 728.194 1143.18 806.425C1026.13 884.648 864.331 933.079 685.54 933.079C506.75 933.079 344.953 884.648 227.897 806.425C110.832 728.194 38.6567 620.283 38.6567 501.29C38.6567 382.296 110.832 274.385 227.897 196.155C344.953 117.931 506.75 69.5 685.54 69.5C864.331 69.5 1026.13 117.931 1143.18 196.155C1260.25 274.385 1332.42 382.296 1332.42 501.29Z" stroke="#F8F5F1" stroke-width="3"/>
<line x1="213" y1="812.5" x2="1159" y2="812.5" stroke="#F8F5F1" stroke-width="3"/>
<line x1="209" y1="192.5" x2="1160" y2="192.5" stroke="#F8F5F1" stroke-width="3"/>
<line x1="68" y1="316.5" x2="1302" y2="316.5" stroke="#F8F5F1" stroke-width="3"/>
<line x1="9" y1="440.5" x2="1361" y2="440.5" stroke="#F8F5F1" stroke-width="3"/>
<line x1="9" y1="564.5" x2="1361" y2="564.5" stroke="#F8F5F1" stroke-width="3"/>
<line x1="68" y1="688.5" x2="1302" y2="688.5" stroke="#F8F5F1" stroke-width="3"/>
<line x1="0.5" y1="6.77257e-08" x2="0.499986" y2="1004" stroke="#F8F5F1" stroke-dasharray="10 10"/>
<line x1="36.5" y1="6.77257e-08" x2="36.5" y2="1004" stroke="#F8F5F1" stroke-dasharray="10 10"/>
<line x1="108.5" y1="6.77257e-08" x2="108.5" y2="1004" stroke="#F8F5F1" stroke-dasharray="10 10"/>
<line x1="213.5" y1="6.77257e-08" x2="213.5" y2="1004" stroke="#F8F5F1" stroke-dasharray="10 10"/>
<line x1="396.5" y1="6.77257e-08" x2="396.5" y2="1004" stroke="#F8F5F1" stroke-dasharray="10 10"/>
<line y1="-0.5" x2="1004" y2="-0.5" transform="matrix(1.41061e-08 1 1 -1.35451e-07 1368 0)" stroke="#F8F5F1" stroke-dasharray="10 10"/>
<line y1="-0.5" x2="1004" y2="-0.5" transform="matrix(1.41061e-08 1 1 -1.35451e-07 1332 0)" stroke="#F8F5F1" stroke-dasharray="10 10"/>
<line y1="-0.5" x2="1004" y2="-0.5" transform="matrix(1.41061e-08 1 1 -1.35451e-07 1260 0)" stroke="#F8F5F1" stroke-dasharray="10 10"/>
<line y1="-0.5" x2="1004" y2="-0.5" transform="matrix(1.41061e-08 1 1 -1.35451e-07 1152 0)" stroke="#F8F5F1" stroke-dasharray="10 10"/>
<line y1="-0.5" x2="1004" y2="-0.5" transform="matrix(1.41061e-08 1 1 -1.35451e-07 972 0)" stroke="#F8F5F1" stroke-dasharray="10 10"/>
<line y1="-0.5" x2="1004" y2="-0.5" transform="matrix(1.41061e-08 1 1 -1.35451e-07 684 0)" stroke="#F8F5F1" stroke-dasharray="10 10"/>
</svg>
