<svg width="546" height="152" viewBox="0 0 546 152" fill="none" xmlns="http://www.w3.org/2000/svg">
<ellipse cx="380.358" cy="11.5027" rx="10.8592" ry="11.5027" fill="#CBC9C7"/>
<path d="M345.225 66.3243C345.225 72.677 350.086 77.827 356.084 77.827C360.783 77.827 364.401 74.4006 366.298 70.2401L384.271 36.7109H359.203L346.149 61.6742C345.555 63.0961 345.225 64.6694 345.225 66.3243Z" fill="#CBC9C7"/>
<path d="M424.122 31.6952C424.122 35.0643 421.602 37.8099 418.449 37.9318C418.376 37.9346 329.004 37.936 328.931 37.936C325.677 37.936 323.039 35.1419 323.039 31.6952C323.039 28.2485 325.677 25.4543 328.931 25.4543C328.969 25.4543 418.307 25.4547 418.346 25.4555C421.546 25.5207 424.122 28.2893 424.122 31.6952Z" fill="#CBC9C7"/>
<path d="M319.115 132.121C321.922 133.864 325.532 132.868 327.178 129.895C327.209 129.839 346.373 95.9332 352.725 84.6927L344.115 75.6374C340.676 81.7204 317.032 123.548 317.014 123.58C315.368 126.554 316.309 130.377 319.115 132.121Z" fill="#CBC9C7"/>
<path d="M359.317 129.428C362.124 131.172 365.734 130.175 367.38 127.202C367.411 127.146 376.941 109.013 383.292 97.7725L374.683 88.7172C371.244 94.8002 357.234 120.855 357.216 120.888C355.569 123.861 356.51 127.685 359.317 129.428Z" fill="#CBC9C7"/>
<path d="M382.429 98.6942C384.645 96.1695 384.508 92.2206 382.125 89.874C382.08 89.8299 367.434 76.045 358.451 67.0411L348.24 73.9822C353.101 78.8567 374.077 98.9911 374.103 99.0169C376.487 101.363 380.214 101.219 382.429 98.6942Z" fill="#CBC9C7"/>
<ellipse cx="378.264" cy="94.7149" rx="5.77616" ry="6.11845" fill="#CBC9C7"/>
<ellipse cx="348.105" cy="147.327" rx="3.92779" ry="4.16055" fill="#CBC9C7"/>
<ellipse cx="381.844" cy="147.327" rx="3.92779" ry="4.16055" fill="#CBC9C7"/>
<path d="M392.462 135.586C392.462 137.207 391.221 138.522 389.69 138.522C389.673 138.522 339.867 138.522 339.851 138.521C338.342 138.494 337.126 137.19 337.126 135.586C337.126 133.984 338.339 132.681 339.845 132.65C339.863 132.65 389.671 132.65 389.69 132.65C391.221 132.65 392.462 133.964 392.462 135.586Z" fill="#CBC9C7"/>
<ellipse cx="301.849" cy="11.5027" rx="10.8592" ry="11.5027" fill="#9D9D9E"/>
<path d="M266.716 66.3243C266.716 72.677 271.578 77.827 277.575 77.827C282.275 77.827 285.893 74.4006 287.789 70.2401L305.763 36.7109H280.695L267.64 61.6742C267.046 63.0961 266.716 64.6694 266.716 66.3243Z" fill="#9D9D9E"/>
<path d="M345.614 31.6952C345.614 35.0643 343.093 37.8099 339.941 37.9318C339.868 37.9346 250.496 37.936 250.422 37.936C247.169 37.936 244.531 35.1419 244.531 31.6952C244.531 28.2485 247.169 25.4543 250.422 25.4543C250.461 25.4543 339.799 25.4547 339.837 25.4555C343.038 25.5207 345.614 28.2893 345.614 31.6952Z" fill="#9D9D9E"/>
<path d="M240.607 132.121C243.414 133.864 247.024 132.868 248.67 129.895C248.701 129.839 267.865 95.9332 274.216 84.6927L265.607 75.6374C262.168 81.7204 238.523 123.548 238.505 123.58C236.859 126.554 237.8 130.377 240.607 132.121Z" fill="#9D9D9E"/>
<path d="M280.809 129.428C283.616 131.172 287.226 130.175 288.872 127.202C288.903 127.146 298.433 109.013 304.784 97.7725L296.174 88.7172C292.735 94.8002 278.725 120.855 278.707 120.888C277.061 123.861 278.002 127.685 280.809 129.428Z" fill="#9D9D9E"/>
<path d="M303.921 98.6942C306.136 96.1695 306 92.2206 303.617 89.874C303.572 89.8299 288.926 76.045 279.943 67.0411L269.732 73.9822C274.592 78.8567 295.569 98.9911 295.595 99.0169C297.978 101.363 301.706 101.219 303.921 98.6942Z" fill="#9D9D9E"/>
<ellipse cx="299.756" cy="94.7149" rx="5.77616" ry="6.11845" fill="#9D9D9E"/>
<ellipse cx="269.597" cy="147.327" rx="3.92779" ry="4.16055" fill="#9D9D9E"/>
<ellipse cx="303.336" cy="147.327" rx="3.92779" ry="4.16055" fill="#9D9D9E"/>
<path d="M313.954 135.586C313.954 137.207 312.712 138.522 311.181 138.522C311.165 138.522 261.358 138.522 261.342 138.521C259.833 138.494 258.618 137.19 258.618 135.586C258.618 133.984 259.83 132.681 261.336 132.65C261.354 132.65 311.163 132.65 311.181 132.65C312.712 132.65 313.954 133.964 313.954 135.586Z" fill="#9D9D9E"/>
<ellipse cx="223.341" cy="11.5027" rx="10.8592" ry="11.5027" fill="#707174"/>
<path d="M188.208 66.3243C188.208 72.677 193.07 77.827 199.067 77.827C203.767 77.827 207.385 74.4006 209.281 70.2401L227.255 36.7109H202.186L189.132 61.6742C188.538 63.0961 188.208 64.6694 188.208 66.3243Z" fill="#707174"/>
<path d="M267.105 31.6952C267.105 35.0643 264.585 37.8099 261.432 37.9318C261.36 37.9346 171.987 37.936 171.914 37.936C168.66 37.936 166.022 35.1419 166.022 31.6952C166.022 28.2485 168.66 25.4543 171.914 25.4543C171.953 25.4543 261.291 25.4547 261.329 25.4555C264.53 25.5207 267.105 28.2893 267.105 31.6952Z" fill="#707174"/>
<path d="M162.099 132.121C164.906 133.864 168.515 132.868 170.162 129.895C170.192 129.839 189.357 95.9332 195.708 84.6927L187.098 75.6374C183.659 81.7204 160.015 123.548 159.997 123.58C158.351 126.554 159.292 130.377 162.099 132.121Z" fill="#707174"/>
<path d="M202.301 129.428C205.108 131.172 208.717 130.175 210.363 127.202C210.394 127.146 219.925 109.013 226.276 97.7725L217.666 88.7172C214.227 94.8002 200.217 120.855 200.199 120.888C198.553 123.861 199.494 127.685 202.301 129.428Z" fill="#707174"/>
<path d="M225.413 98.6942C227.628 96.1695 227.492 92.2206 225.108 89.874C225.063 89.8299 210.417 76.045 201.434 67.0411L191.223 73.9822C196.084 78.8567 217.06 98.9911 217.087 99.0169C219.47 101.363 223.198 101.219 225.413 98.6942Z" fill="#707174"/>
<ellipse cx="221.248" cy="94.7149" rx="5.77616" ry="6.11845" fill="#707174"/>
<ellipse cx="191.088" cy="147.327" rx="3.92779" ry="4.16055" fill="#707174"/>
<ellipse cx="224.828" cy="147.327" rx="3.92779" ry="4.16055" fill="#707174"/>
<path d="M235.446 135.586C235.446 137.207 234.204 138.522 232.673 138.522C232.657 138.522 182.85 138.522 182.834 138.521C181.325 138.494 180.11 137.19 180.11 135.586C180.11 133.984 181.322 132.681 182.828 132.65C182.846 132.65 232.655 132.65 232.673 132.65C234.204 132.65 235.446 133.964 235.446 135.586Z" fill="#707174"/>
<ellipse cx="144.833" cy="11.5027" rx="10.8592" ry="11.5027" fill="#42454B"/>
<path d="M109.7 66.3243C109.7 72.677 114.562 77.827 120.559 77.827C125.258 77.827 128.877 74.4006 130.773 70.2401L148.747 36.7109H123.678L110.624 61.6742C110.03 63.0961 109.7 64.6694 109.7 66.3243Z" fill="#42454B"/>
<path d="M188.597 31.6952C188.597 35.0643 186.077 37.8099 182.924 37.9318C182.852 37.9346 93.4791 37.936 93.4058 37.936C90.152 37.936 87.5142 35.1419 87.5142 31.6952C87.5142 28.2485 90.152 25.4543 93.4058 25.4543C93.4444 25.4543 182.782 25.4547 182.821 25.4555C186.021 25.5207 188.597 28.2893 188.597 31.6952Z" fill="#42454B"/>
<path d="M83.5905 132.121C86.3974 133.864 90.0072 132.868 91.6532 129.895C91.6841 129.839 110.849 95.9332 117.2 84.6927L108.59 75.6374C105.151 81.7204 81.5069 123.548 81.4888 123.58C79.8427 126.554 80.7837 130.377 83.5905 132.121Z" fill="#42454B"/>
<path d="M123.792 129.428C126.599 131.172 130.209 130.175 131.855 127.202C131.886 127.146 141.416 109.013 147.768 97.7725L139.158 88.7172C135.719 94.8002 121.709 120.855 121.691 120.888C120.045 123.861 120.986 127.685 123.792 129.428Z" fill="#42454B"/>
<path d="M146.905 98.6942C149.12 96.1695 148.983 92.2206 146.6 89.874C146.555 89.8299 131.909 76.045 122.926 67.0411L112.715 73.9822C117.576 78.8567 138.552 98.9911 138.578 99.0169C140.962 101.363 144.689 101.219 146.905 98.6942Z" fill="#42454B"/>
<ellipse cx="142.74" cy="94.7149" rx="5.77616" ry="6.11845" fill="#42454B"/>
<ellipse cx="112.58" cy="147.327" rx="3.92779" ry="4.16055" fill="#42454B"/>
<ellipse cx="146.319" cy="147.327" rx="3.92779" ry="4.16055" fill="#42454B"/>
<path d="M156.937 135.586C156.937 137.207 155.696 138.522 154.165 138.522C154.149 138.522 104.342 138.522 104.326 138.521C102.817 138.494 101.602 137.19 101.602 135.586C101.602 133.984 102.814 132.681 104.32 132.65C104.338 132.65 154.146 132.65 154.165 132.65C155.696 132.65 156.937 133.964 156.937 135.586Z" fill="#42454B"/>
<ellipse rx="4.88887" ry="4.88935" transform="matrix(0.93887 -0.344272 0.344262 0.938874 491.639 137.896)" fill="#644165"/>
<ellipse rx="4.88877" ry="4.88877" transform="matrix(0.938846 -0.344336 0.344198 0.938897 531.057 123.44)" fill="#644165"/>
<path d="M538.726 105.927C539.382 107.716 538.463 109.699 536.674 110.355C536.655 110.362 478.453 131.705 478.434 131.711C476.659 132.328 474.712 131.41 474.062 129.639C473.414 127.871 474.304 125.914 476.051 125.235C476.072 125.227 534.277 103.883 534.298 103.875C536.087 103.219 538.07 104.137 538.726 105.927Z" fill="#644165"/>
<circle cx="471.726" cy="14.4071" r="13.516" fill="#644165"/>
<ellipse cx="461.093" cy="72.4961" rx="13.516" ry="13.5168" fill="#644165"/>
<path d="M530.656 48.0912C530.124 52.014 526.581 54.7887 522.674 54.4026C522.584 54.3937 412.357 39.4258 412.267 39.4136C408.253 38.8685 405.442 35.1734 405.987 31.1603C406.532 27.1471 410.227 24.3356 414.24 24.8806C414.288 24.8871 524.472 39.8513 524.519 39.8586C528.456 40.4706 531.195 44.1257 530.656 48.0912Z" fill="#644165"/>
<ellipse cx="527.657" cy="95.3586" rx="7.04558" ry="7.33316" fill="#644165"/>
<ellipse cx="504.94" cy="62.5719" rx="7.04558" ry="7.33316" fill="#644165"/>
<ellipse cx="460.93" cy="79.8302" rx="7.04558" ry="7.33316" fill="#644165"/>
<path d="M502.209 55.8162L458.21 73.0707L462.811 86.8743L509.111 68.4695L502.209 55.8162Z" fill="#644165"/>
<path d="M502.645 70.0544L522.056 99.8184L533.271 90.9035L509.115 56.6821L502.645 70.0544Z" fill="#644165"/>
<path d="M447.566 73.0681L447.135 44.1685L477.043 48.0505L473.448 67.1732L447.566 73.0681Z" fill="#644165"/>
<path d="M470.643 77.2406C470.643 77.2405 470.643 77.2404 470.643 77.2404C470.643 72.4191 466.873 68.4072 462.098 68.4072C457.322 68.4072 453.552 72.4191 453.552 77.2404C453.552 77.27 453.553 114.011 453.554 114.078C453.641 118.822 457.379 122.739 462.098 122.739C466.759 122.739 470.464 118.915 470.637 114.249C470.637 114.247 470.637 114.228 470.637 114.194H470.638L470.638 113.536C470.642 108.406 470.643 77.354 470.643 77.2406Z" fill="#644165" stroke="#F8F5F1" stroke-width="3"/>
<ellipse cx="66.3245" cy="11.9006" rx="10.8592" ry="11.5027" fill="#151921"/>
<path d="M31.1914 66.7222C31.1914 73.075 36.0532 78.2249 42.0506 78.2249C46.7499 78.2249 50.3683 74.7986 52.2643 70.638L70.2383 37.1089H45.1697L32.1153 62.0722C31.5213 63.4941 31.1914 65.0673 31.1914 66.7222Z" fill="#151921"/>
<path d="M110.089 32.0931C110.089 35.4622 107.568 38.2078 104.416 38.3297C104.343 38.3325 14.9708 38.3339 14.8975 38.3339C11.6437 38.3339 9.00586 35.5398 9.00586 32.0931C9.00586 28.6464 11.6437 25.8523 14.8975 25.8523C14.9361 25.8523 104.274 25.8527 104.313 25.8535C107.513 25.9187 110.089 28.6873 110.089 32.0931Z" fill="#151921"/>
<path d="M5.08223 132.519C7.88907 134.262 11.4989 133.266 13.1449 130.293C13.1758 130.237 32.3403 96.3312 38.6916 85.0907L30.0818 76.0354C26.6428 82.1183 2.99856 123.946 2.98045 123.978C1.33439 126.952 2.27539 130.775 5.08223 132.519Z" fill="#151921"/>
<path d="M45.2841 129.826C48.0909 131.57 51.7007 130.573 53.3468 127.6C53.3777 127.544 62.9079 109.411 69.2592 98.1704L60.6495 89.1152C57.2105 95.1981 43.2004 121.253 43.1823 121.286C41.5362 124.259 42.4772 128.082 45.2841 129.826Z" fill="#151921"/>
<path d="M68.3962 99.0922C70.6113 96.5674 70.475 92.6185 68.0916 90.272C68.0468 90.2279 53.4007 76.4429 44.4178 67.4391L34.2067 74.3801C39.0676 79.2547 60.0437 99.389 60.0699 99.4148C62.4533 101.761 66.1811 101.617 68.3962 99.0922Z" fill="#151921"/>
<ellipse cx="64.2312" cy="95.1128" rx="5.77616" ry="6.11845" fill="#151921"/>
<ellipse cx="34.0718" cy="147.725" rx="3.92779" ry="4.16055" fill="#151921"/>
<ellipse cx="67.8111" cy="147.725" rx="3.92779" ry="4.16055" fill="#151921"/>
<path d="M78.4289 135.984C78.4289 137.605 77.1876 138.92 75.6563 138.92C75.6402 138.92 25.8336 138.92 25.8175 138.919C24.3085 138.892 23.0933 137.588 23.0933 135.984C23.0933 134.382 24.3053 133.079 25.8115 133.048C25.8295 133.048 75.6382 133.048 75.6563 133.048C77.1876 133.048 78.4289 134.362 78.4289 135.984Z" fill="#151921"/>
</svg>
