<svg width="1404" height="275" viewBox="0 0 1404 275" fill="none" xmlns="http://www.w3.org/2000/svg">
<path d="M1070.57 117.265H945.442L958.368 52.9047H1107.88H1108.29L1108.37 52.5024L1117.01 9.17391L1117.13 8.57617H1116.52H913.05H912.641L912.56 8.978L861.089 266.012L860.969 266.61H861.579H915.123H915.533L915.613 266.208L936.605 160.859H1061.94H1062.35L1062.43 160.458L1071.06 117.864L1071.19 117.265H1070.57ZM1251.91 121.909L1207.67 8.8939L1207.55 8.57617H1207.21H1143.64H1142.87L1143.19 9.2836L1213.94 164.458L1193.59 266.012L1193.47 266.61H1194.08H1247.62H1248.03L1248.11 266.208L1268.47 164.624L1401.38 9.40138L1402.09 8.57617H1401H1341.24H1341L1340.84 8.76719L1251.91 121.909Z" fill="#F7C96E" stroke="#F7C96E"/>
<path d="M146.432 129.749H146.019L145.941 130.155L139.033 166.14L138.918 166.734H139.524H207.234C201.267 184.957 192.285 199.22 180.305 209.551L180.298 209.557L180.291 209.563C165.887 222.93 147.59 229.625 125.36 229.625C104.514 229.625 88.1921 223.177 76.329 210.325L76.3258 210.321C64.4666 197.716 58.4985 179.375 58.4985 155.218C58.4985 136.916 61.5976 120.336 67.7871 105.472L67.7882 105.47C73.9836 90.3477 82.1208 78.1733 92.1902 68.9295L92.1903 68.9296L92.198 68.9222C108.44 53.3595 129.726 45.5609 156.105 45.5609C173.314 45.5609 186.547 49.2203 195.87 56.4714L195.87 56.4715L195.88 56.4791C207.032 64.7045 213.307 76.6812 214.678 92.4718L214.718 92.9286H215.176H270.447H270.961L270.947 92.4149C270.253 67.0734 260.874 44.8038 242.83 25.6244L242.817 25.6099L242.802 25.5966C234.916 18.4472 225.299 12.9075 213.96 8.97158C202.89 5.04937 193.633 2.83073 186.201 2.3357C179.041 1.5996 170.274 1.23242 159.905 1.23242C137.071 1.23242 116.758 3.68396 98.9734 8.59426C81.1511 13.5148 64.2709 23.3521 48.3321 38.0843L48.329 38.0872C16.4331 68.0601 0.5 107.979 0.5 157.789C0.5 196.566 11.8171 226.457 34.5135 247.382C46.0756 258.197 58.2357 265.343 70.9948 268.796L70.997 268.796C83.9426 272.236 98.3802 273.954 114.306 273.954C136.928 273.954 155.217 269.906 169.137 261.769C183.18 253.694 194.59 242.575 203.364 228.422H204.245L199.48 266.047L199.409 266.61H199.976H239.012H239.422L239.502 266.207L266.447 130.347L266.565 129.749H265.957H146.432Z" fill="#F7C96E" stroke="#F7C96E"/>
<path d="M627.303 139.693C626.732 174.858 606.24 206.611 572.999 229.455C539.764 252.295 493.986 266.053 443.543 265.127C393.101 264.202 347.796 248.773 315.323 224.728C282.843 200.679 263.394 168.193 263.965 133.028C264.536 97.8637 285.028 66.1102 318.269 43.2664C351.503 20.4267 397.282 6.66878 447.724 7.59406C498.167 8.51934 543.472 23.948 575.945 47.993C608.424 72.0423 627.874 104.528 627.303 139.693Z" stroke="#F7C96E" stroke-width="6"/>
<path d="M879.759 137.751C879.759 210.177 824.523 268.891 756.386 268.891C688.249 268.891 633.013 210.177 633.013 137.751C633.013 65.3245 688.249 6.61133 756.386 6.61133C824.523 6.61133 879.759 65.3245 879.759 137.751Z" fill="#B35B58"/>
</svg>
