<svg width="578" height="99" viewBox="0 0 578 99" fill="none" xmlns="http://www.w3.org/2000/svg">
<path d="M123.252 63.9H109.513V35.5H124.022C127.712 35.5 130.029 36.3488 131.194 37.8665L131.194 37.8665L131.199 37.8729C132.237 39.1799 132.758 40.7069 132.758 42.476C132.758 43.8774 132.377 45.0225 131.639 45.9432C130.896 46.8697 129.759 47.6085 128.183 48.1336L127.841 48.2475V48.608V48.65V49.0568L128.239 49.1395C129.641 49.4308 130.907 50.0388 132.044 50.9689L132.052 50.9756L132.06 50.982C133.466 52.0364 134.212 53.7257 134.212 56.168C134.212 58.7817 133.312 60.6744 131.556 61.9359C129.769 63.2193 127.027 63.9 123.252 63.9ZM116.068 40.212H115.568V40.712V46.592V47.092H116.068H122.568C123.838 47.092 124.878 46.7805 125.578 46.0581C126.241 45.3741 126.574 44.5342 126.574 43.568C126.574 42.5867 126.201 41.7612 125.462 41.1324C124.728 40.4837 123.627 40.212 122.269 40.212H116.068ZM116.068 51.51H115.568V52.01V58.688V59.188H116.068H123.381C124.364 59.188 125.32 58.9064 126.243 58.3628L126.243 58.3629L126.253 58.3566C127.282 57.7167 127.772 56.6848 127.772 55.37C127.772 54.0196 127.31 52.9613 126.295 52.3412C125.381 51.7649 124.087 51.51 122.483 51.51H116.068ZM153.754 59.6788C154.377 58.7604 154.746 57.8112 154.84 56.836H160.223C160.152 57.3688 160.036 57.8942 159.873 58.4125L159.871 58.4211L159.868 58.4298C159.684 59.1004 159.351 59.8399 158.857 60.65C158.374 61.4126 157.771 62.0842 157.045 62.6656C156.337 63.2322 155.386 63.7115 154.172 64.0908L154.172 64.0907L154.162 64.0939C152.968 64.4936 151.598 64.698 150.045 64.698C146.518 64.698 143.819 63.7321 141.883 61.8568C139.953 59.9871 138.957 57.3177 138.957 53.774C138.957 52.7126 139.054 51.6952 139.246 50.7211C139.435 49.7674 139.787 48.7921 140.308 47.7944C140.851 46.8101 141.526 45.9622 142.334 45.2473C143.156 44.5446 144.248 43.957 145.628 43.4963L145.628 43.4963L145.633 43.4944C147.025 43.012 148.621 42.766 150.43 42.766C152.151 42.766 153.627 43.0116 154.869 43.4887L154.869 43.4889L154.881 43.4932C156.158 43.9469 157.117 44.5758 157.789 45.3627L157.789 45.3627L157.795 45.3688C158.503 46.1713 159.026 47.0053 159.373 47.8701L159.373 47.8702L159.378 47.8823C159.687 48.5963 159.897 49.3569 160.007 50.166H154.743C154.488 48.815 154.023 47.7647 153.287 47.1024C152.488 46.3833 151.431 46.05 150.173 46.05C148.394 46.05 146.989 46.6649 146.05 47.9448C145.132 49.1958 144.713 51.0116 144.713 53.312C144.713 54.9949 144.887 56.4337 145.248 57.6161L145.248 57.6161L145.251 57.6271C145.637 58.7923 146.165 59.6869 146.88 60.2223C147.498 60.6844 148.061 61.0147 148.564 61.1792C149.045 61.3368 149.554 61.414 150.088 61.414C151.716 61.414 152.982 60.8627 153.754 59.6788ZM167.468 62.0927L167.465 62.0895C166.601 61.3442 165.857 60.2438 165.251 58.7552C164.679 57.2835 164.388 55.5978 164.388 53.69C164.388 50.2179 165.46 47.5643 167.558 45.6615C169.698 43.7463 172.518 42.7678 176.065 42.766C180.287 42.9325 183.024 44.1906 184.465 46.4028L184.465 46.4029L184.471 46.4126C185.434 47.8168 186.045 49.2638 186.316 50.7554L186.317 50.7626L186.319 50.7697C186.458 51.4265 186.57 52.0545 186.653 52.6536L186.779 54.1401L186.803 54.786H170.644H170.144V55.286C170.144 56.7616 170.575 58.1449 171.425 59.4263L171.425 59.4264L171.433 59.4376C172.379 60.7844 173.898 61.414 175.861 61.414C177.014 61.414 178.043 61.1751 178.928 60.678L178.928 60.6782L178.939 60.6714C179.731 60.1996 180.296 59.5476 180.622 58.726H186.169C185.504 60.6214 184.374 62.0467 182.782 63.0296C181.006 64.1269 178.612 64.698 175.562 64.698C173.768 64.698 172.045 64.4003 170.392 63.8057C169.213 63.3473 168.242 62.7741 167.468 62.0927ZM170.145 51.6842L170.111 52.216H170.644H180.565H181.078L181.065 51.7026C181.035 50.5969 180.857 49.6351 180.512 48.8331C180.174 48.0193 179.706 47.3887 179.078 47.0085C178.54 46.6574 178.012 46.4086 177.495 46.279C177.019 46.1253 176.516 46.05 175.989 46.05C174.168 46.05 172.704 46.6216 171.676 47.8206L171.676 47.8205L171.67 47.8277C170.747 48.9451 170.237 50.2355 170.145 51.6842Z" fill="#3A4C7B" stroke="#3A4C7B"/>
<rect x="290.513" y="7.5" width="280" height="84" rx="42" fill="#3A4C7B" stroke="#3A4C7B" stroke-width="9"/>
<path d="M527.013 3L50.5127 3.00114C24.2722 3.00114 3 23.8945 3 49.6678C3 75.4411 24.2722 96.3345 50.5127 96.3345L527.013 96.3333C553.253 96.3333 574.525 75.44 574.525 49.6667C574.525 23.8934 553.253 3 527.013 3Z" stroke="#3A4C7B" stroke-width="5"/>
<path d="M393.173 33.398V64.198H398.805V52.846H405.405C414.293 52.846 417.417 48.534 417.417 42.946C417.417 34.19 410.289 33.398 405.449 33.398H393.173ZM398.805 38.062H405.405C407.561 38.062 411.609 38.326 411.609 43.21C411.609 47.83 407.957 48.182 405.361 48.182H398.805V38.062ZM422.08 64.198H427.712V51.966H434.224C440.516 51.966 440.736 54.958 440.736 57.774C440.736 61.734 440.824 62.79 441.704 64.198H447.512C446.368 62.746 446.412 61.69 446.368 57.554C446.324 54.782 446.236 50.954 441.836 49.546V49.458C444.3 48.754 446.984 46.554 446.984 41.978C446.984 33.926 439.636 33.398 435.852 33.398H422.08V64.198ZM427.712 38.062H434.884C437.172 38.062 441.176 38.238 441.176 42.682C441.176 46.862 437.612 47.302 434.752 47.302H427.712V38.062ZM450.988 48.798C450.988 64.77 463.396 65.122 466.08 65.122C468.764 65.122 481.172 64.77 481.172 48.798C481.172 32.826 468.764 32.474 466.08 32.474C463.396 32.474 450.988 32.826 450.988 48.798ZM457.016 48.798C457.016 44.046 458.468 37.138 466.08 37.138C473.692 37.138 475.144 44.046 475.144 48.798C475.144 53.55 473.692 60.458 466.08 60.458C458.468 60.458 457.016 53.55 457.016 48.798Z" fill="white"/>
</svg>
