<svg width="346" height="65" viewBox="0 0 346 65" fill="none" xmlns="http://www.w3.org/2000/svg">
<path d="M234.315 27.2062H264.966L262.86 36.9739H232.21L227.074 61.2245H214.022L226.568 2.28174H276.165L274.06 12.2178H237.515L234.315 27.2062ZM309.133 28.3851L330.941 2.28174H345.509L313.09 37.9001L308.122 61.2245H295.07L300.038 37.9001L282.777 2.28174H298.27L309.133 28.3851Z" fill="#3A4C7B"/>
<path d="M35.45 30.0709H64.5847L58.0168 61.2262H48.5017L49.6805 52.4692H49.2595C47.1263 55.7251 44.3476 58.2793 40.9233 60.1318C37.5551 61.984 33.1204 62.9103 27.619 62.9103C23.7456 62.9103 20.2371 62.5175 17.0935 61.7314C14.006 60.9459 11.0589 59.3178 8.25203 56.8478C2.75067 52.0763 0 45.2557 0 36.3862C0 24.9906 3.8734 15.8684 11.6202 9.01978C15.4936 5.65162 19.5915 3.40618 23.914 2.28345C28.2365 1.16073 33.1765 0.599365 38.734 0.599365C41.2601 0.599365 43.3933 0.68357 45.1335 0.85198C46.9299 0.964251 49.1753 1.46947 51.8699 2.36766C54.6205 3.26583 56.9502 4.5289 58.8588 6.15685C63.2374 10.5355 65.511 15.6158 65.6794 21.3978H52.2067C51.8699 17.749 50.3261 14.9703 47.5754 13.0616C45.2738 11.3775 42.018 10.5355 37.8077 10.5355C31.3521 10.5355 26.1314 12.3318 22.1457 15.9245C19.6757 18.0577 17.6829 20.8646 16.1672 24.345C14.6516 27.7693 13.8937 31.5865 13.8937 35.7967C13.8937 41.3542 15.3533 45.5925 18.2723 48.5116C21.1914 51.4868 25.2052 52.9744 30.3136 52.9744C35.7587 52.9744 40.2497 51.4307 43.7862 48.3432C46.7615 45.9293 48.9788 42.5893 50.4384 38.3229H33.7659L35.45 30.0709Z" fill="#3A4C7B"/>
<path d="M154.866 32.0818C154.866 40.15 149.994 47.5981 141.822 53.0833C133.659 58.5635 122.312 61.9917 109.719 61.9917C97.1261 61.9917 85.779 58.5635 77.6154 53.0833C69.444 47.5981 64.5728 40.15 64.5728 32.0818C64.5728 24.0137 69.444 16.5655 77.6154 11.0803C85.779 5.60017 97.1261 2.17163 109.719 2.17163C122.312 2.17163 133.659 5.60017 141.822 11.0803C149.994 16.5655 154.866 24.0137 154.866 32.0818Z" fill="#3A4C7B" stroke="#3A4C7B" stroke-width="2"/>
<path d="M218.43 32.4999C218.43 49.4686 204.674 63.2244 187.705 63.2244C170.737 63.2244 156.981 49.4686 156.981 32.4999C156.981 15.5312 170.737 1.77539 187.705 1.77539C204.674 1.77539 218.43 15.5312 218.43 32.4999Z" fill="#3A4C7B" stroke="#3A4C7B" stroke-width="2.5"/>
</svg>
