<svg width="1215" height="743" viewBox="0 0 1215 743" fill="none" xmlns="http://www.w3.org/2000/svg">
<rect width="712.056" height="689.944" rx="20" transform="matrix(0.866025 0.5 -0.866025 0.5 597.509 42)" fill="#644165"/>
<rect width="712.056" height="689.944" rx="20" transform="matrix(0.866025 0.5 -0.866025 0.5 597.509 0)" fill="#416552"/>
<path d="M973.766 249.749L1099.15 329.833C1122.16 344.538 1112.28 359.481 1104.49 365.112C1088.6 377.679 1060.61 397.499 1031.18 416.035C1001.71 434.575 978.101 431.105 966.689 422.677L926.434 394.346C922.288 391.559 914.964 385.058 910.368 389.679C906.7 393.375 899.922 394.981 915.542 407.726C931.12 420.473 915.036 429.604 910.382 433.366C907.056 436.029 877.559 457.42 830.292 485.895C783.026 514.371 773.59 503.813 727.965 470.941C678.35 435.192 693.989 419.194 746.229 391.533C798.466 363.873 790.095 356.389 794.967 341.115C798.865 328.896 807.418 321.499 811.206 319.328C839.531 301.708 900.743 263.863 918.926 253.442C937.11 243.02 954.206 237.27 973.766 249.749Z" fill="#F7C96E"/>
<path d="M848.289 455.752C810.376 482.852 775.654 470.871 763.036 461.492L780.295 412.6L888.709 318.364L996.58 317.92C1023.87 333.129 1077.82 364.612 1075.39 368.867C1072.32 374.188 1055.7 382.125 1020.94 399.807C986.172 417.49 961.139 402.129 944.759 387.89C928.42 373.648 917.929 370.945 912.839 371.288C907.709 371.633 884.068 376.635 895.668 396.309C907.272 415.983 895.678 421.878 848.289 455.752Z" fill="#3A4C7B"/>
<path d="M963.96 276.181L1082.63 349.629C1101.75 361.789 1058.9 379.389 1052.41 384.052C1046.66 388.606 1035.7 370.404 1021.26 353.76C1002.75 332.417 979.606 311.367 965.879 319.987C959.392 324.079 950.913 328.604 941.496 321.629C927.436 311.233 877.538 330.511 867.916 340.22C865.182 342.422 840.752 373.967 801.55 397.532C780.811 410 799.883 446.519 799.073 462.476C798.347 476.68 777.327 472.831 759.513 460.025C718.371 430.454 731.964 416.408 775.29 393.516C818.615 370.624 811.671 364.433 815.714 351.795C818.947 341.685 826.043 335.563 829.184 333.766C852.675 319.185 903.432 287.866 918.52 279.24C933.567 270.618 947.802 265.855 963.96 276.181Z" fill="#B35B58"/>
<path d="M556.896 68.1245L686.234 144.908L653.334 157.328L569.378 152.812C546.306 127.594 503.573 77.3835 517.188 78.287C530.803 79.1905 549.334 71.8882 556.896 68.1245Z" fill="#3A4C7B"/>
<path d="M281.2 227.337L412.809 304.12L427.557 292.828L537.61 182.171L533.069 120.067L391.249 64.7379C391.249 121.648 317.883 196.85 281.2 227.337Z" fill="#3A4C7B"/>
<path d="M391.252 64.7372L521.723 140.391L576.184 108.774L446.845 31.9917L391.252 64.7372Z" fill="#F7C96E"/>
<path d="M412.805 304.12L686.234 144.909C600.916 170.202 576.185 132.488 576.185 108.776L521.725 140.392C521.725 196.398 449.113 272.88 412.805 304.12Z" fill="#B35B58"/>
<path d="M508.009 436.561L597.082 353.984V385.557L508.009 436.561Z" fill="#644165"/>
<path d="M500.687 300.552L412.833 381.915L508.007 436.562L597.082 353.984L500.687 300.552Z" fill="#F7C96E"/>
<path d="M506.686 303.829L417.773 384.944L421.067 387.402L510.802 306.287L506.686 303.829Z" fill="#644165"/>
<path d="M586.541 348.073L495.981 430.007L500.098 432.464L590.655 350.531L586.541 348.073Z" fill="#644165"/>
<path d="M752.176 168.552L846.082 224.902L828.13 241.396L731.461 178.173L752.176 168.552Z" fill="#F7C96E"/>
<path d="M730.082 174.049L609.937 240.021L703.843 294.998L823.988 226.277L730.082 174.049Z" fill="#F7C96E"/>
<path d="M590.602 262.011L609.935 251.015L707.985 307.366L685.889 319.736L590.602 262.011Z" fill="#F7C96E"/>
<path d="M590.602 273.007V262.011L685.889 319.737L703.842 307.367L609.935 251.016V240.021L703.842 294.997L823.987 226.277V237.272L846.082 224.902V234.523L685.889 330.732L590.602 273.007Z" fill="#B35B58"/>
<path d="M734.224 176.797L821.541 229.737L823.987 226.275L738.035 175.032L734.224 176.797Z" fill="#B35B58"/>
<path d="M597.448 288.651V320.212H602.963V291.396L651.22 237.88L749.112 182.992L813.913 170.642V195.342H819.428V162.409L746.354 177.503L647.083 233.763L597.448 288.651Z" fill="#644165"/>
<path d="M187.041 397.591V375.434L93.8927 319.208V341.365L187.041 397.591Z" fill="#B35B58"/>
<path d="M187.042 375.552L215.83 356.661V378.7L187.042 397.591V375.552Z" fill="#644165"/>
<path d="M121.977 300.722L215.83 357.002L187.674 375.762L93.8207 319.482L121.977 300.722Z" fill="#F7C96E"/>
<path d="M340.552 486.808V464.651L247.404 408.426V430.583L340.552 486.808Z" fill="#B35B58"/>
<path d="M340.554 464.769L369.342 445.878V467.917L340.554 486.809V464.769Z" fill="#644165"/>
<path d="M275.489 389.939L369.342 446.219L341.186 464.979L247.332 408.699L275.489 389.939Z" fill="#F7C96E"/>
<path d="M493.26 510.115L541.592 524.673L531.417 533.534L493.26 510.115Z" fill="#644165"/>
<path d="M684.049 511.381L634.442 524.04L644.618 532.901L684.049 511.381Z" fill="#644165"/>
<path d="M541.592 524.673L587.382 497.456L539.685 483.531L493.26 510.115L541.592 524.673Z" fill="#B35B58"/>
<path d="M588.017 565.815L540.32 593.031L588.017 550.624L636.351 593.664L588.017 565.815Z" fill="#644165"/>
<path d="M634.444 524.04L588.019 550.624L636.351 593.664L682.141 565.814L634.444 524.04Z" fill="#B35B58"/>
<path d="M588.019 550.624L540.32 593.031L493.26 565.814L541.592 524.673L588.019 550.624Z" fill="#B35B58"/>
<path d="M684.046 511.381L636.349 483.531L587.38 497.456L634.442 524.04L684.046 511.381Z" fill="#B35B58"/>
<path d="M587.384 497.456L541.594 524.673L588.019 550.623L634.444 524.04L587.384 497.456Z" fill="#F7C96E"/>
</svg>
