<svg width="33" height="45" viewBox="0 0 33 45" fill="none" xmlns="http://www.w3.org/2000/svg">
<path d="M24.2476 8.49204C25.4601 6.49925 22.1259 3.01706 20.3072 1.52506H33C33 9.76348 32.7802 27.1433 31.9012 30.7553C30.8024 35.2702 24.2476 46.2461 14.8512 44.8838C3.84819 43.0778 1.3753 33.6484 1.51423 29.1595H17.0108C16.7204 31.1834 17.2908 33.447 20.3072 33.7911C26.9092 34.5444 29.9941 20.8432 28.6049 16.1207C28.6807 18.8193 27.1272 24.0841 20.3072 23.5547C8.06903 22.6595 11.5548 9.62079 9.35725 3.54902C3.74968 11.8004 10.6834 22.1146 14.8512 26.2403H1.51423C-4.5859 5.10585 9.58459 -3.84613 11.5548 1.52506C15.2679 12.3064 22.7321 10.983 24.2476 8.49204Z" fill="#F8F5F1"/>
</svg>
