<svg width="50" height="51" viewBox="0 0 50 51" fill="none" xmlns="http://www.w3.org/2000/svg">
<path d="M23.0355 6.28919C23.7937 2.31782 24.1729 0.332138 25 0.332138C25.8271 0.332138 26.2063 2.31782 26.9645 6.28919L29.4633 19.3768C29.5859 20.0189 29.6472 20.3399 29.8628 20.5569C30.0783 20.7738 30.3989 20.8371 31.0402 20.9638L44.069 23.5379C47.9168 24.2981 49.8407 24.6782 49.8407 25.5C49.8407 26.3218 47.9168 26.7019 44.069 27.4621L31.0402 30.0362C30.3989 30.1629 30.0783 30.2262 29.8628 30.4431C29.6472 30.6601 29.5859 30.9811 29.4633 31.6232L26.9645 44.7108C26.2063 48.6822 25.8271 50.6679 25 50.6679C24.1729 50.6679 23.7937 48.6822 23.0355 44.7108L20.5367 31.6232C20.4141 30.9811 20.3528 30.6601 20.1372 30.4431C19.9217 30.2262 19.6011 30.1629 18.9598 30.0362L5.93101 27.4621C2.08322 26.7019 0.159328 26.3218 0.159328 25.5C0.159328 24.6782 2.08322 24.2981 5.93101 23.5379L18.9598 20.9638C19.6011 20.8371 19.9217 20.7738 20.1372 20.5569C20.3528 20.3399 20.4141 20.0189 20.5367 19.3768L23.0355 6.28919Z" fill="#F7C96E"/>
</svg>
