<svg width="50" height="51" viewBox="0 0 50 51" fill="none" xmlns="http://www.w3.org/2000/svg">
<path fill-rule="evenodd" clip-rule="evenodd" d="M0 44.2892C8.59882 51.37 28.9402 57.3344 41.0451 34.6817C42.3011 32.3312 42.2509 27.6643 41.0451 23.1035C39.3998 16.5831 45.5404 10.3543 49.9476 20.1969V0.100379C46.9013 -0.585176 40.4535 1.92787 39.0319 17.4645C34.6119 7.65899 25.5723 -1.32594 14.3085 1.9807C-4.40714 7.47494 12.3987 35.6219 38.0483 32.3312C35.2277 35.7982 11.1647 45.2589 0 15.6723V44.2892ZM40.1087 30.0865C38.5123 24.1809 30.2073 11.7877 23.5379 14.2502C17.691 17.5697 32.0289 30.0865 40.1087 30.0865Z" fill="#F8F5F1"/>
</svg>
