<svg width="1079" height="924" viewBox="0 0 1079 924" fill="none" xmlns="http://www.w3.org/2000/svg">
<circle cx="321.915" cy="98.5576" r="93.6006" stroke="#151921" stroke-width="4"/>
<path fill-rule="evenodd" clip-rule="evenodd" d="M300.397 48.7827C300.432 48.8203 367.615 120.467 367.649 120.505C374.779 128.229 374.355 140.272 366.673 147.475C358.991 154.678 346.946 154.327 339.696 146.716C339.66 146.679 272.478 75.0324 272.442 74.9949C265.204 67.2756 265.594 55.15 273.313 47.9117C281.033 40.6734 293.158 41.0633 300.397 48.7827ZM372.503 51.2919C365.265 43.5725 353.139 43.1825 345.42 50.4209C345.383 50.456 327.052 67.6452 327.015 67.6806L353.226 95.6345C353.263 95.5996 371.595 78.4107 371.632 78.3754C379.352 71.137 379.742 59.0113 372.503 51.2919ZM297.108 148.115C289.389 155.353 277.263 154.963 270.025 147.244C262.787 139.524 263.177 127.399 270.896 120.16C270.933 120.125 289.265 102.936 289.303 102.901L315.514 130.855C315.477 130.89 297.146 148.08 297.108 148.115ZM294.236 59.154C294.852 59.8111 294.819 60.8434 294.162 61.4596C293.505 62.0758 292.474 62.0426 291.858 61.3855C291.242 60.7283 291.275 59.6961 291.932 59.0799C292.589 58.4636 293.62 58.4968 294.236 59.154ZM351.589 122.725C352.246 122.109 352.279 121.077 351.663 120.42C351.047 119.762 350.015 119.729 349.359 120.345C348.702 120.962 348.669 121.994 349.285 122.651C349.9 123.308 350.932 123.341 351.589 122.725ZM348.59 63.5022C349.247 62.8863 350.279 62.9195 350.895 63.5764C351.511 64.2333 351.478 65.2651 350.821 65.8811C350.164 66.4971 349.132 66.4639 348.516 65.807C347.9 65.1501 347.933 64.1182 348.59 63.5022ZM280.716 129.384C280.1 128.726 279.068 128.693 278.411 129.31C277.755 129.926 277.722 130.958 278.337 131.615C278.953 132.272 279.985 132.305 280.642 131.689C281.298 131.073 281.332 130.041 280.716 129.384ZM299.251 64.5099C299.867 65.1668 299.834 66.1987 299.177 66.8147C298.52 67.4306 297.488 67.3974 296.872 66.7405C296.256 66.0836 296.289 65.0518 296.946 64.4358C297.603 63.8198 298.635 63.853 299.251 64.5099ZM356.604 128.078C357.261 127.462 357.294 126.431 356.678 125.774C356.062 125.117 355.03 125.084 354.373 125.699C353.716 126.315 353.682 127.347 354.298 128.004C354.915 128.661 355.947 128.694 356.604 128.078ZM353.95 58.4847C354.607 57.8687 355.639 57.9019 356.255 58.5588C356.871 59.2157 356.838 60.2476 356.181 60.8635C355.524 61.4795 354.492 61.4463 353.876 60.7894C353.26 60.1325 353.293 59.1006 353.95 58.4847ZM286.068 124.364C285.452 123.707 284.42 123.674 283.764 124.29C283.107 124.906 283.074 125.938 283.689 126.596C284.305 127.253 285.337 127.286 285.994 126.67C286.65 126.053 286.684 125.021 286.068 124.364ZM285.896 66.9631C286.512 67.62 286.479 68.6518 285.822 69.2678C285.165 69.8837 284.133 69.8505 283.516 69.1936C282.9 68.5367 282.934 67.5049 283.591 66.8889C284.248 66.273 285.28 66.3061 285.896 66.9631ZM343.272 130.532C343.928 129.916 343.962 128.883 343.346 128.226C342.73 127.569 341.698 127.536 341.042 128.152C340.385 128.768 340.352 129.801 340.967 130.458C341.583 131.115 342.615 131.148 343.272 130.532ZM356.395 71.829C357.052 71.2128 358.084 71.246 358.7 71.9031C359.316 72.5603 359.282 73.5925 358.626 74.2088C357.969 74.825 356.937 74.7918 356.321 74.1347C355.705 73.4775 355.739 72.4453 356.395 71.829ZM288.521 137.709C287.905 137.052 286.873 137.019 286.216 137.635C285.559 138.251 285.526 139.283 286.142 139.94C286.758 140.597 287.79 140.63 288.447 140.014C289.104 139.398 289.137 138.366 288.521 137.709ZM290.917 72.3185C291.533 72.9754 291.5 74.0073 290.843 74.6232C290.186 75.2392 289.154 75.206 288.538 74.5491C287.922 73.8922 287.955 72.8604 288.612 72.2444C289.269 71.6285 290.301 71.6616 290.917 72.3185ZM348.278 135.881C348.935 135.265 348.968 134.233 348.352 133.576C347.736 132.919 346.704 132.886 346.047 133.502C345.39 134.118 345.357 135.15 345.973 135.807C346.589 136.464 347.621 136.497 348.278 135.881ZM361.756 66.8076C362.413 66.1913 363.444 66.2245 364.06 66.8817C364.676 67.5388 364.643 68.5711 363.986 69.1873C363.329 69.8035 362.297 69.7703 361.682 69.1132C361.066 68.456 361.099 67.4238 361.756 66.8076ZM293.873 132.692C293.257 132.035 292.225 132.002 291.568 132.617C290.911 133.233 290.878 134.265 291.494 134.922C292.11 135.579 293.142 135.612 293.799 134.996C294.456 134.38 294.489 133.349 293.873 132.692Z" fill="#151921"/>
<circle cx="95.4733" cy="827.473" r="93.4733" stroke="#151921" stroke-width="4"/>
<ellipse rx="4.56454" ry="4.56498" transform="matrix(0.93887 -0.344272 0.344262 0.938874 111.594 886.625)" fill="#151921"/>
<circle r="4.56444" transform="matrix(0.938846 -0.344336 0.344198 0.938897 148.397 873.128)" fill="#151921"/>
<path d="M155.558 856.776C156.17 858.447 155.313 860.298 153.642 860.911C153.624 860.917 99.283 880.844 99.2653 880.85C97.6087 881.426 95.7902 880.569 95.1841 878.916C94.5788 877.265 95.4091 875.438 97.0408 874.804C97.0604 874.796 151.404 854.868 151.424 854.861C153.094 854.248 154.945 855.106 155.558 856.776Z" fill="#151921"/>
<circle cx="93.0029" cy="771.328" r="12.6193" fill="#151921"/>
<ellipse cx="83.0752" cy="825.563" rx="12.6193" ry="12.6201" fill="#151921"/>
<path d="M148.023 802.778C147.526 806.44 144.218 809.031 140.57 808.67C140.486 808.662 37.572 794.687 37.4877 794.676C33.7408 794.167 31.1158 790.717 31.6246 786.97C32.1334 783.223 35.5834 780.598 39.3303 781.107C39.3747 781.113 142.249 795.084 142.293 795.091C145.969 795.663 148.526 799.075 148.023 802.778Z" fill="#151921"/>
<ellipse cx="145.223" cy="846.909" rx="6.57817" ry="6.84667" fill="#151921"/>
<ellipse cx="124.013" cy="816.3" rx="6.57817" ry="6.84667" fill="#151921"/>
<ellipse cx="82.9229" cy="832.409" rx="6.57817" ry="6.84667" fill="#151921"/>
<path d="M121.464 809.99L80.3835 826.1L84.6795 838.988L127.907 821.804L121.464 809.99Z" fill="#151921"/>
<path d="M121.87 823.284L139.993 851.073L150.465 842.75L127.911 810.799L121.87 823.284Z" fill="#151921"/>
<path d="M70.4457 826.098L70.043 799.115L97.9666 802.74L94.6104 820.594L70.4457 826.098Z" fill="#151921"/>
<path d="M92.5851 864.569C92.5902 864.431 92.5914 830.034 92.5914 829.993C92.5914 825.183 88.8255 821.146 84.0132 821.146C79.201 821.146 75.4351 825.183 75.4351 829.993C75.4351 830.013 75.4354 864.328 75.4366 864.398C75.5241 869.131 79.2585 873.073 84.0132 873.073C88.7103 873.073 92.4126 869.225 92.5851 864.569Z" fill="#151921" stroke="#F8F5F1" stroke-width="4"/>
<circle cx="982.977" cy="96.9773" r="91.9773" stroke="#151921" stroke-width="4"/>
<path fill-rule="evenodd" clip-rule="evenodd" d="M958.016 32.7785C963.498 23.9385 979.147 23.9374 975.257 45.1562C971.367 66.375 974.225 83.173 976.141 88.9196C978.056 78.4577 983.479 55.0583 989.844 45.1562C997.801 32.7785 1003.55 29.6845 1010.62 32.7785C1017.69 35.8726 1012.39 46.482 1010.62 49.5764C1009.74 51.1116 998.243 73.4475 999.128 88.9196C1006.2 86.7076 1011.95 88.9196 1015.04 92.4577C1026.36 91.7504 1028.89 109.551 1028.75 118.539C1029.04 128.559 1028.75 144.67 1020.03 149.797C1007.79 156.998 989.844 162.303 965.09 156.998C940.335 151.694 927.957 134.453 928.841 115.003C929.548 99.4422 945.934 95.551 954.038 95.5505C946.258 63.015 953.449 40.1461 958.016 32.7785ZM954.869 117.211C955.164 121.336 955.223 130.029 953.101 131.797C950.449 134.007 941.166 115.443 954.869 117.211Z" fill="#151921"/>
<path d="M951.783 92.2672C950.696 92.0679 949.654 92.7871 949.455 93.8736C949.255 94.96 949.975 96.0023 951.061 96.2016L951.783 92.2672ZM984.655 115.894L986.553 116.525L984.655 115.894ZM950.444 117.82C949.831 118.739 950.079 119.981 950.998 120.593C951.917 121.206 953.159 120.958 953.772 120.039L950.444 117.82ZM951.061 96.2016C956.68 97.2321 965.639 100.032 972.722 103.799C976.276 105.688 979.203 107.741 981.021 109.818C982.826 111.881 983.293 113.651 982.757 115.263L986.553 116.525C987.715 113.032 986.327 109.808 984.031 107.184C981.748 104.575 978.33 102.25 974.6 100.267C967.118 96.2884 957.763 93.364 951.783 92.2672L951.061 96.2016ZM982.757 115.263C981.252 119.792 979.136 121.121 977.541 121.538C975.714 122.016 974.023 121.502 972.769 121.233L971.929 125.143C972.797 125.33 975.592 126.183 978.554 125.408C981.748 124.572 984.725 122.025 986.553 116.525L982.757 115.263ZM972.769 121.233C972.351 121.143 971.044 120.736 969.072 120.129C967.181 119.547 964.82 118.828 962.475 118.187C960.146 117.55 957.764 116.969 955.845 116.684C954.898 116.543 953.963 116.458 953.164 116.506C952.766 116.53 952.312 116.592 951.873 116.747C951.442 116.899 950.856 117.202 950.444 117.82L953.772 120.039C953.531 120.4 953.237 120.507 953.203 120.519C953.161 120.534 953.21 120.511 953.405 120.499C953.793 120.476 954.408 120.514 955.257 120.641C956.93 120.89 959.125 121.417 961.419 122.045C963.699 122.669 966.008 123.372 967.896 123.952C969.705 124.509 971.286 125.005 971.929 125.143L972.769 121.233Z" fill="#F8F5F1"/>
<path d="M1000.43 89.1115C1001.39 88.5634 1001.73 87.3417 1001.18 86.3827C1000.63 85.4237 999.408 85.0905 998.449 85.6385L1000.43 89.1115ZM985.287 111.159L983.311 110.851L985.287 111.159ZM986.582 136.432L988.016 135.038L986.582 136.432ZM1016.63 92.6686C1017.66 92.268 1018.17 91.1088 1017.77 90.0794C1017.37 89.0501 1016.21 88.5404 1015.18 88.941L1016.63 92.6686ZM1011.58 135.102L1013.29 136.129L1011.58 135.102ZM1020.87 112.439C1021.58 111.591 1021.46 110.33 1020.61 109.623C1019.77 108.915 1018.51 109.03 1017.8 109.879L1020.87 112.439ZM998.449 85.6385C996.135 86.961 992.855 90.2032 989.95 94.506C987.009 98.8617 984.298 104.527 983.311 110.851L987.263 111.467C988.138 105.863 990.564 100.744 993.265 96.7444C996.001 92.6916 998.868 90.006 1000.43 89.1115L998.449 85.6385ZM983.311 110.851C982.24 117.714 981.564 123.201 981.676 127.506C981.788 131.818 982.697 135.306 985.148 137.826L988.016 135.038C986.587 133.569 985.776 131.292 985.675 127.402C985.573 123.504 986.19 118.349 987.263 111.467L983.311 110.851ZM985.148 137.826C987.428 140.172 990.801 140.183 993.243 139.637C994.526 139.35 995.745 138.874 996.737 138.303C997.632 137.789 998.69 137.001 999.175 135.921L995.526 134.283C995.579 134.164 995.463 134.422 994.744 134.836C994.121 135.194 993.283 135.529 992.37 135.733C990.42 136.17 988.839 135.885 988.016 135.038L985.148 137.826ZM999.348 135.004C999.076 129.478 1000.46 119.905 1003.52 111.092C1005.04 106.702 1006.94 102.591 1009.19 99.3106C1011.45 96.0111 1013.96 93.7077 1016.63 92.6686L1015.18 88.941C1011.47 90.3849 1008.39 93.4008 1005.89 97.0481C1003.38 100.715 1001.33 105.178 999.737 109.783C996.559 118.958 995.05 129.05 995.353 135.2L999.348 135.004ZM995.662 136.175C996.993 138.268 999.523 141.075 1002.8 141.936C1004.53 142.389 1006.42 142.286 1008.29 141.306C1010.13 140.349 1011.79 138.635 1013.29 136.129L1009.86 134.075C1008.6 136.181 1007.41 137.253 1006.44 137.761C1005.51 138.245 1004.65 138.287 1003.82 138.067C1001.97 137.583 1000.15 135.779 999.038 134.029L995.662 136.175ZM1013.29 136.129C1016.95 130.013 1017.64 125.255 1018.09 121.363C1018.53 117.478 1018.73 115.008 1020.87 112.439L1017.8 109.879C1014.77 113.518 1014.53 117.255 1014.11 120.908C1013.7 124.554 1013.1 128.663 1009.86 134.075L1013.29 136.129Z" fill="#F8F5F1"/>
<circle cx="542.915" cy="98.915" r="93.915" stroke="#151921" stroke-width="4"/>
<path fill-rule="evenodd" clip-rule="evenodd" d="M495.335 80.6815C495.386 80.6815 592.455 80.6817 592.506 80.6821C602.894 80.7641 611.29 89.2111 611.29 99.6191C611.29 110.027 602.894 118.474 592.506 118.556C592.46 118.557 512.749 118.557 497.752 118.557L496.387 118.557L495.495 118.557L495.335 118.557C484.877 118.557 476.399 110.078 476.399 99.6191C476.399 89.1602 484.877 80.6815 495.335 80.6815ZM498.072 92.8224C498.962 92.8224 499.684 93.5442 499.684 94.4347C499.684 95.3251 498.962 96.047 498.072 96.047C497.182 96.047 496.461 95.3251 496.461 94.4347C496.461 93.5442 497.182 92.8224 498.072 92.8224ZM582.689 94.4405C582.689 93.5501 581.968 92.8282 581.078 92.8282C580.187 92.8282 579.466 93.5501 579.466 94.4405C579.466 95.331 580.187 96.0529 581.078 96.0529C581.968 96.0529 582.689 95.331 582.689 94.4405ZM505.332 92.8282C506.222 92.8282 506.944 93.5501 506.944 94.4405C506.944 95.331 506.222 96.0528 505.332 96.0528C504.442 96.0528 503.72 95.331 503.72 94.4405C503.72 93.5501 504.442 92.8282 505.332 92.8282ZM589.933 94.4444C589.933 93.554 589.211 92.8321 588.321 92.8321C587.431 92.8321 586.71 93.554 586.71 94.4444C586.71 95.3349 587.431 96.0568 588.321 96.0568C589.211 96.0568 589.933 95.3349 589.933 94.4444ZM498.072 104.109C498.962 104.109 499.683 104.831 499.683 105.722C499.683 106.612 498.962 107.334 498.072 107.334C497.182 107.334 496.46 106.612 496.46 105.722C496.46 104.831 497.182 104.109 498.072 104.109ZM582.689 105.72C582.689 104.829 581.968 104.108 581.078 104.108C580.187 104.108 579.466 104.829 579.466 105.72C579.466 106.61 580.187 107.332 581.078 107.332C581.968 107.332 582.689 106.61 582.689 105.72ZM505.332 104.117C506.222 104.117 506.944 104.839 506.944 105.73C506.944 106.62 506.222 107.342 505.332 107.342C504.442 107.342 503.72 106.62 503.72 105.73C503.72 104.839 504.442 104.117 505.332 104.117ZM589.933 105.722C589.933 104.831 589.211 104.109 588.321 104.109C587.431 104.109 586.71 104.831 586.71 105.722C586.71 106.612 587.431 107.334 588.321 107.334C589.211 107.334 589.933 106.612 589.933 105.722Z" fill="#151921"/>
<circle cx="99" cy="339" r="94" stroke="#151921" stroke-width="4"/>
<path fill-rule="evenodd" clip-rule="evenodd" d="M161.437 339.669C160.366 320.182 148.059 279.137 109.76 275.571C61.8858 271.113 55.3711 328.439 55.3711 339.669H35.4844C36.2987 363.999 50.991 409.857 103.245 403.377C122.317 399.734 146.436 367.27 141.979 339.669H161.437ZM93.519 291.015C81.5975 291.208 67.016 314 67.016 339.594L93.8793 339.594L93.8794 339.594C94.2714 339.582 119.874 290.586 93.519 291.015ZM127.6 339.594H99.5094C94.2377 348.509 78.0897 390.607 103.248 383.75C123.375 374.11 127.743 353.292 127.6 339.594Z" fill="#151921"/>
<path fill-rule="evenodd" clip-rule="evenodd" d="M346.204 378.11C318.675 404.155 293.966 398.306 285.052 392.125C227.408 352.156 282.568 274.694 330.496 280.951C351.425 283.683 365.177 305.973 365.675 330.444C371.315 331.262 378.083 329.082 380.761 327.889C380.98 341.978 381.287 372.169 380.761 380.228C371.877 381.923 354.021 379.522 346.204 378.11ZM338.525 328.256C341.423 313.6 340.497 282.779 319.748 288.108C303.017 298.109 316.753 321.906 338.525 328.256ZM304.628 293.654C297.103 306.599 288.058 337.087 312.08 355.483C300.318 362.417 262.107 340.518 304.628 293.654Z" fill="#151921"/>
<circle cx="320" cy="339" r="94" stroke="#151921" stroke-width="4"/>
<circle cx="541" cy="339" r="94" stroke="#151921" stroke-width="4"/>
<path d="M590.005 324.737V275.225C577.666 283.36 558.981 281.385 554.281 281.385C549.58 281.385 515.971 269.994 501.634 281.385C478.367 304.514 498.814 330.2 502.927 339.382C496.699 344.496 488.238 363.208 491.293 368.322C496.229 356.816 507.393 347.517 509.155 352.399C521.612 383.664 500.851 397.262 491.293 404.12C510.37 403.81 553.952 403.376 575.668 404.12C568.147 370.763 541.237 354.259 537.359 350.656C555.597 354.561 570.498 374.288 575.668 383.664C575.237 369.755 574.376 339.591 574.376 330.2C553.576 324.853 529.368 327.643 515.971 332.757C504.102 316.369 503.162 311.836 501.634 297.308C513.973 293.472 531.6 307.187 548.523 317.88C562.06 326.434 581.818 326.016 590.005 324.737Z" fill="#151921"/>
<circle cx="762" cy="339" r="94" stroke="#151921" stroke-width="4"/>
<path d="M784.032 299.549C787.584 293.841 777.816 283.866 772.489 279.593H809.671C809.671 303.19 809.028 352.972 806.453 363.318C803.234 376.25 784.032 407.689 756.506 403.787C724.273 398.614 717.029 371.605 717.436 358.747H762.832C761.981 364.544 763.652 371.028 772.489 372.014C791.829 374.171 800.866 334.927 796.796 321.4C797.018 329.129 792.467 344.21 772.489 342.693C736.638 340.129 746.849 302.782 740.411 285.39C723.984 309.025 744.296 338.568 756.506 350.386H717.436C699.566 289.849 741.077 264.208 746.849 279.593C757.726 310.474 779.592 306.684 784.032 299.549Z" fill="#151921"/>
<circle cx="97.4733" cy="98.4733" r="93.4733" stroke="#151921" stroke-width="4"/>
<ellipse cx="107.979" cy="39.1107" rx="10.1388" ry="10.7396" fill="#151921"/>
<path d="M75.177 90.2952C75.177 96.2265 79.7163 101.035 85.3158 101.035C89.7033 101.035 93.0816 97.8358 94.8519 93.9512L111.633 62.6465H88.228L76.0396 85.9537C75.485 87.2812 75.177 88.7501 75.177 90.2952Z" fill="#151921"/>
<path d="M148.84 57.9635C148.84 61.1091 146.486 63.6726 143.543 63.7864C143.475 63.789 60.0319 63.7903 59.9635 63.7903C56.9254 63.7903 54.4626 61.1816 54.4626 57.9635C54.4626 54.7455 56.9254 52.1367 59.9635 52.1367C59.9995 52.1367 143.411 52.1371 143.447 52.1378C146.435 52.1987 148.84 54.7836 148.84 57.9635Z" fill="#151921"/>
<path d="M50.7998 151.727C53.4204 153.355 56.7907 152.424 58.3275 149.648C58.3564 149.596 76.2495 117.94 82.1794 107.445L74.1408 98.9906C70.93 104.67 48.8543 143.723 48.8374 143.753C47.3006 146.529 48.1791 150.099 50.7998 151.727Z" fill="#151921"/>
<path d="M88.3348 149.213C90.9554 150.841 94.3258 149.91 95.8626 147.134C95.8915 147.082 104.789 130.152 110.719 119.657L102.681 111.203C99.47 116.882 86.3894 141.208 86.3725 141.239C84.8356 144.015 85.7142 147.585 88.3348 149.213Z" fill="#151921"/>
<path d="M109.914 120.518C111.982 118.161 111.854 114.474 109.629 112.283C109.587 112.242 95.9128 99.3711 87.5259 90.9646L77.9922 97.4452C82.5306 101.996 102.115 120.795 102.14 120.819C104.365 123.01 107.845 122.875 109.914 120.518Z" fill="#151921"/>
<ellipse cx="106.025" cy="116.802" rx="5.39296" ry="5.71255" fill="#151921"/>
<ellipse cx="77.8659" cy="165.924" rx="3.66722" ry="3.88453" fill="#151921"/>
<ellipse cx="109.367" cy="165.924" rx="3.66722" ry="3.88453" fill="#151921"/>
<path d="M119.281 154.962C119.281 156.476 118.122 157.703 116.692 157.703C116.677 157.703 70.1747 157.703 70.1597 157.703C68.7509 157.677 67.6162 156.46 67.6162 154.962C67.6162 153.466 68.7479 152.25 70.1541 152.221C70.171 152.221 116.675 152.221 116.692 152.221C118.122 152.221 119.281 153.448 119.281 154.962Z" fill="#151921"/>
<circle cx="319" cy="828" r="94" stroke="#151921" stroke-width="4"/>
<path fill-rule="evenodd" clip-rule="evenodd" d="M259.25 872.867C279.822 889.808 328.488 904.077 357.448 849.882C360.453 844.259 360.333 833.093 357.448 822.182C353.512 806.582 368.203 791.68 378.747 815.228V767.148C371.459 765.508 356.033 771.521 352.632 808.691C342.057 785.232 320.43 763.736 293.482 771.647C248.706 784.792 288.913 852.131 350.278 844.259C343.53 852.553 285.961 875.187 259.25 804.403V872.867ZM355.208 838.888C351.388 824.76 331.519 795.109 315.563 801.001C301.575 808.943 335.877 838.888 355.208 838.888Z" fill="#151921"/>
<path d="M721.782 60.0359C708.78 48.0608 714.57 35.1353 722.132 34.7889C747.347 33.6375 749.073 71.4583 746.2 77.5304C793.017 61.1841 794.384 82.4874 794.655 88.0402C801.733 95.6977 800.643 100.83 798.679 107.182C805.205 110.195 799.46 122.339 795.054 126.942C799.41 128.289 818.007 127.743 826.761 127.301C830.741 128.366 836.671 132.553 828.558 140.783C818.416 151.07 785.769 148.929 771.033 148.349C756.297 147.77 752.305 157.473 739.564 152.041C695.701 131.517 708.566 94.7278 712.801 89.077C717.035 83.4261 727.564 70.2758 721.782 60.0359Z" fill="#151921"/>
<circle cx="763.915" cy="98.915" r="93.915" stroke="#151921" stroke-width="4"/>
<path d="M772.84 83.2158C773.917 82.97 774.59 81.8978 774.345 80.8209C774.099 79.7441 773.027 79.0703 771.95 79.3161L772.84 83.2158ZM797.586 89.7747C798.338 88.9652 798.291 87.6998 797.481 86.9482C796.672 86.1967 795.406 86.2437 794.655 87.0531L797.586 89.7747ZM801.956 107.768C802.594 106.866 802.38 105.618 801.478 104.98C800.577 104.342 799.329 104.556 798.691 105.457L801.956 107.768ZM780.142 133.378L780.7 135.299L780.794 135.272L780.885 135.235L780.142 133.378ZM800.366 125.303C801.13 124.505 801.102 123.239 800.304 122.475C799.507 121.711 798.241 121.739 797.477 122.537L800.366 125.303ZM771.95 79.3161C764.484 81.0203 754.159 84.4553 747.96 89.3225C744.875 91.7442 742.395 94.8518 742.367 98.6197C742.339 102.43 744.818 106.058 749.568 109.499L751.915 106.26C747.567 103.11 746.353 100.536 746.367 98.649C746.381 96.7186 747.677 94.6301 750.43 92.4687C755.906 88.1695 765.507 84.8896 772.84 83.2158L771.95 79.3161ZM749.632 109.544C752.545 111.486 756.608 111.488 760.695 110.683C764.883 109.857 769.593 108.082 774.225 105.85C783.459 101.4 792.812 94.9174 797.586 89.7747L794.655 87.0531C790.329 91.713 781.443 97.9311 772.488 102.247C768.026 104.397 763.654 106.022 759.921 106.758C756.086 107.514 753.389 107.241 751.851 106.215L749.632 109.544ZM749.652 106.202C748.013 107.267 746.518 109.02 745.489 110.975C744.459 112.932 743.782 115.308 744.062 117.664C744.354 120.117 745.671 122.385 748.293 123.913C750.822 125.388 754.433 126.103 759.28 125.919L759.128 121.922C754.668 122.091 751.92 121.398 750.308 120.458C748.787 119.571 748.18 118.417 748.035 117.192C747.877 115.87 748.251 114.315 749.029 112.838C749.807 111.359 750.877 110.177 751.831 109.557L749.652 106.202ZM759.28 125.919C768.889 125.554 778.174 122.916 785.7 119.471C793.156 116.057 799.156 111.724 801.956 107.768L798.691 105.457C796.487 108.571 791.233 112.538 784.035 115.834C776.905 119.098 768.133 121.579 759.128 121.922L759.28 125.919ZM757.212 123.738C756.93 126.838 757.787 131.282 761.554 134.179C765.341 137.09 771.468 137.978 780.7 135.299L779.585 131.457C770.902 133.977 766.318 132.795 763.992 131.008C761.648 129.205 760.993 126.321 761.196 124.102L757.212 123.738ZM780.885 135.235C785.728 133.298 790.302 131.094 793.761 129.277C795.491 128.369 796.953 127.551 798.04 126.904C798.582 126.582 799.043 126.295 799.403 126.055C799.698 125.859 800.098 125.584 800.366 125.303L797.477 122.537C797.562 122.448 797.535 122.493 797.186 122.726C796.903 122.914 796.504 123.164 795.995 123.466C794.982 124.069 793.583 124.853 791.901 125.736C788.537 127.503 784.089 129.645 779.4 131.521L780.885 135.235Z" fill="#F8F5F1"/>
<path d="M1001.32 271.03C1001.32 282.309 992.177 291.453 980.897 291.453C969.617 291.453 960.474 282.309 960.474 271.03C960.474 259.751 969.617 250.607 980.897 250.607C992.177 250.607 1001.32 259.751 1001.32 271.03Z" fill="#151921" stroke="#F8F5F1" stroke-width="4"/>
<path d="M1041.96 282.241C1041.96 293.52 1032.82 302.664 1021.54 302.664C1010.26 302.664 1001.12 293.52 1001.12 282.241C1001.12 270.962 1010.26 261.818 1021.54 261.818C1032.82 261.818 1041.96 270.962 1041.96 282.241Z" fill="#151921" stroke="#F8F5F1" stroke-width="4"/>
<circle cx="1048.17" cy="315.876" r="20.4234" fill="#151921" stroke="#F8F5F1" stroke-width="4"/>
<path d="M1069.99 357.921C1069.99 369.2 1060.85 378.344 1049.57 378.344C1038.29 378.344 1029.14 369.2 1029.14 357.921C1029.14 346.642 1038.29 337.498 1049.57 337.498C1060.85 337.498 1069.99 346.642 1069.99 357.921Z" fill="#151921" stroke="#F8F5F1" stroke-width="4"/>
<path d="M1046.16 392.956C1046.16 404.235 1037.02 413.379 1025.74 413.379C1014.46 413.379 1005.32 404.235 1005.32 392.956C1005.32 381.677 1014.46 372.533 1025.74 372.533C1037.02 372.533 1046.16 381.677 1046.16 392.956Z" fill="#151921" stroke="#F8F5F1" stroke-width="4"/>
<circle r="20.4234" transform="matrix(-1 0 0 1 941.659 285.044)" fill="#151921" stroke="#F8F5F1" stroke-width="4"/>
<path d="M897.411 320.081C897.411 331.36 906.554 340.504 917.834 340.504C929.114 340.504 938.257 331.36 938.257 320.081C938.257 308.802 929.114 299.658 917.834 299.658C906.554 299.658 897.411 308.802 897.411 320.081Z" fill="#151921" stroke="#F8F5F1" stroke-width="4"/>
<circle r="20.4234" transform="matrix(-1 0 0 1 919.232 362.125)" fill="#151921" stroke="#F8F5F1" stroke-width="4"/>
<path d="M924.031 395.761C924.031 407.04 933.175 416.184 944.455 416.184C955.734 416.184 964.878 407.04 964.878 395.761C964.878 384.482 955.734 375.338 944.455 375.338C933.175 375.338 924.031 384.482 924.031 395.761Z" fill="#151921" stroke="#F8F5F1" stroke-width="4"/>
<path d="M1005.52 406.972C1005.52 418.251 996.379 427.395 985.099 427.395C973.82 427.395 964.676 418.251 964.676 406.972C964.676 395.692 973.82 386.549 985.099 386.549C996.379 386.549 1005.52 395.692 1005.52 406.972Z" fill="#151921" stroke="#F8F5F1" stroke-width="4"/>
<circle cx="983.701" cy="339.701" r="44.2482" stroke="#151921" stroke-width="4"/>
<circle cx="983" cy="339" r="94" stroke="#151921" stroke-width="4"/>
<path d="M187.373 581.589C186.494 631.515 145.105 671.317 94.9082 670.468C44.711 669.619 4.74781 628.441 5.6268 578.514C6.5058 528.588 47.8947 488.786 98.0919 489.635C148.289 490.484 188.252 531.662 187.373 581.589Z" stroke="#151921" stroke-width="4"/>
<path d="M97.9243 490.475C168.654 503.856 169.563 659.645 96.2606 669.53" stroke="#151921" stroke-width="4"/>
<path d="M96.7767 487.891L96.0125 668.827" stroke="#151921" stroke-width="4"/>
<path d="M96.4773 490.602C25.3187 501.582 22.1444 656.686 95.0557 669.044" stroke="#151921" stroke-width="4"/>
<path d="M165.694 522.949C132.303 551.005 62.0407 549.745 27.929 521.529" stroke="#151921" stroke-width="4"/>
<path d="M167.086 636.105C126.73 602.689 62.796 603.834 27.929 636.105" stroke="#151921" stroke-width="4"/>
<circle cx="543" cy="828" r="94" stroke="#151921" stroke-width="4"/>
<path fill-rule="evenodd" clip-rule="evenodd" d="M539.593 734.805L548.07 734.839L547.771 806.245L539.294 806.21L539.593 734.805ZM582.101 744.716L574.214 741.643L547.767 808.084L555.654 811.158L582.101 744.716ZM613.547 766.004L607.499 760.127L556.938 811.08L562.987 816.957L613.547 766.004ZM637.567 832.496L637.597 824.109L568.577 823.866L632.576 796.037L629.166 788.357L563.098 817.086L566.105 823.857L565.431 823.855L565.401 832.241L637.567 832.496ZM473.829 766.004L479.878 760.127L530.438 811.08L524.39 816.957L473.829 766.004ZM513.152 741.643L505.265 744.716L531.712 811.158L539.599 808.084L513.152 741.643ZM449.834 832.498L449.802 824.109L518.825 823.882L454.789 796.037L458.199 788.357L524.268 817.086L521.254 823.874L521.968 823.871L522 832.26L449.834 832.498ZM473.829 891.389L479.878 897.266L530.44 846.314L524.391 840.438L473.829 891.389ZM513.152 915.75L505.265 912.676L531.712 846.236L539.599 849.31L513.152 915.75ZM539.317 922.565L547.794 922.6L548.093 851.193L539.617 851.158L539.317 922.565ZM458.199 869.041L454.789 861.362L520.858 832.633L524.268 840.312L458.199 869.041ZM613.547 891.389L607.499 897.266L556.937 846.314L562.985 840.438L613.547 891.389ZM574.214 915.75L582.101 912.676L555.654 846.236L547.767 849.31L574.214 915.75ZM632.576 861.362L629.166 869.041L563.098 840.312L566.508 832.633L632.576 861.362Z" fill="#151921"/>
<ellipse cx="543.953" cy="829.072" rx="48.0878" ry="47.5835" fill="#F8F5F1"/>
<ellipse cx="543.701" cy="829.4" rx="39.2409" ry="38.5401" fill="#151921"/>
<circle cx="542.999" cy="583.999" r="93.9985" stroke="#151921" stroke-width="4"/>
<mask id="mask0_3457_50022" style="mask-type:alpha" maskUnits="userSpaceOnUse" x="447" y="488" width="192" height="192">
<circle cx="543.001" cy="583.999" r="95.9985" fill="#222222"/>
</mask>
<g mask="url(#mask0_3457_50022)">
<rect x="443.911" y="486.6" width="97.5451" height="97.5451" fill="#151921"/>
<rect x="541.464" y="584.145" width="97.5451" height="97.5451" fill="#151921"/>
</g>
<path d="M315.073 503.217C316.592 495.399 317.351 491.49 319 491.49C320.649 491.49 321.408 495.399 322.927 503.217L334.749 564.087C334.998 565.371 335.123 566.012 335.555 566.445C335.988 566.877 336.629 567.002 337.913 567.251L398.783 579.073C406.601 580.592 410.51 581.351 410.51 583C410.51 584.649 406.601 585.408 398.783 586.927L337.913 598.749C336.629 598.998 335.988 599.123 335.555 599.555C335.123 599.988 334.998 600.629 334.749 601.913L322.927 662.783C321.408 670.601 320.649 674.51 319 674.51C317.351 674.51 316.592 670.601 315.073 662.783L303.251 601.913C303.002 600.629 302.877 599.988 302.445 599.555C302.012 599.123 301.371 598.998 300.087 598.749L239.217 586.927C231.399 585.408 227.49 584.649 227.49 583C227.49 581.351 231.399 580.592 239.217 579.073L300.087 567.251C301.371 567.002 302.012 566.877 302.445 566.445C302.877 566.012 303.002 565.371 303.251 564.087L315.073 503.217Z" fill="#151921"/>
<circle cx="319.481" cy="582.941" r="94" stroke="#151921" stroke-width="4"/>
<path d="M763.693 488L770.366 563.001L818.884 506.334L781.165 571.022L852.995 554.334L785.289 584L852.995 613.666L781.165 596.978L818.884 661.666L770.366 604.999L763.693 680L757.019 604.999L708.501 661.666L746.221 596.978L674.391 613.666L742.096 584L674.391 554.334L746.221 571.022L708.501 506.334L757.019 563.001L763.693 488Z" fill="#151921"/>
<circle cx="763" cy="584" r="94" stroke="#151921" stroke-width="4"/>
<path d="M983.703 487L1003.14 521.828L1038.89 505.334L1034.6 545.194L1073 553.334L1046.61 583L1073 612.666L1034.6 620.806L1038.89 660.666L1003.14 644.172L983.703 679L964.262 644.172L928.511 660.666L932.806 620.806L894.4 612.666L920.791 583L894.4 553.334L932.806 545.194L928.511 505.334L964.262 521.828L983.703 487Z" fill="#151921"/>
<circle cx="983" cy="583" r="94" stroke="#151921" stroke-width="4"/>
</svg>
