<svg width="1059" height="571" viewBox="0 0 1059 571" fill="none" xmlns="http://www.w3.org/2000/svg">
<path d="M774.214 412.783C775.73 404.77 776.488 400.763 778.145 400.763C779.802 400.763 780.56 404.77 782.075 412.783L791.816 464.293C792.059 465.577 792.18 466.219 792.611 466.654C793.041 467.089 793.682 467.216 794.964 467.472L845.624 477.577C853.252 479.099 857.065 479.86 857.065 481.5C857.065 483.14 853.252 483.901 845.624 485.423L794.964 495.528C793.682 495.784 793.041 495.911 792.611 496.346C792.18 496.781 792.059 497.423 791.816 498.707L782.075 550.217C780.56 558.23 779.802 562.237 778.145 562.237C776.488 562.237 775.73 558.23 774.214 550.217L764.473 498.707C764.231 497.423 764.109 496.781 763.679 496.346C763.249 495.911 762.608 495.784 761.326 495.528L710.666 485.423C703.038 483.901 699.224 483.14 699.224 481.5C699.224 479.86 703.038 479.099 710.666 477.577L761.326 467.472C762.608 467.216 763.249 467.089 763.679 466.654C764.109 466.219 764.231 465.577 764.473 464.293L774.214 412.783Z" fill="#151921"/>
<path d="M311.08 404L316.75 467.726L357.975 419.578L325.925 474.542L386.958 460.363L329.43 485.569L386.958 510.775L325.925 496.596L357.975 551.56L316.75 503.412L311.08 567.138L305.409 503.412L264.184 551.56L296.234 496.596L235.201 510.775L292.729 485.569L235.201 460.363L296.234 474.542L264.184 419.578L305.409 467.726L311.08 404Z" fill="#151921"/>
<path d="M537.08 404L553.598 433.593L583.975 419.578L580.325 453.446L612.958 460.363L590.534 485.569L612.958 510.775L580.325 517.692L583.975 551.56L553.598 537.546L537.08 567.138L520.561 537.546L490.184 551.56L493.834 517.692L461.201 510.775L483.625 485.569L461.201 460.363L493.834 453.446L490.184 419.578L520.561 433.593L537.08 404Z" fill="#151921"/>
<path fill-rule="evenodd" clip-rule="evenodd" d="M283.397 48.7837C283.432 48.8212 350.615 120.468 350.65 120.506C357.779 128.23 357.355 140.273 349.673 147.476C341.991 154.679 329.946 154.328 322.696 146.717C322.66 146.68 255.478 75.0334 255.443 74.9959C248.204 67.2766 248.594 55.151 256.314 47.9127C264.033 40.6744 276.159 41.0643 283.397 48.7837ZM355.504 51.2949C348.266 43.5755 336.14 43.1855 328.421 50.4239C328.383 50.4591 310.052 67.6483 310.015 67.6836L336.226 95.6375C336.264 95.6026 354.595 78.4136 354.633 78.3784C362.352 71.14 362.742 59.0143 355.504 51.2949ZM280.108 148.118C272.389 155.356 260.264 154.966 253.025 147.247C245.787 139.527 246.177 127.402 253.896 120.163C253.934 120.128 272.265 102.939 272.303 102.904L298.514 130.858C298.477 130.893 280.146 148.083 280.108 148.118ZM277.237 59.1529C277.853 59.81 277.819 60.8423 277.163 61.4585C276.506 62.0747 275.474 62.0415 274.858 61.3844C274.242 60.7272 274.276 59.695 274.932 59.0788C275.589 58.4625 276.621 58.4957 277.237 59.1529ZM334.589 122.724C335.246 122.108 335.279 121.076 334.663 120.418C334.048 119.761 333.016 119.728 332.359 120.344C331.702 120.961 331.669 121.993 332.285 122.65C332.901 123.307 333.932 123.34 334.589 122.724ZM331.59 63.5011C332.247 62.8852 333.279 62.9184 333.895 63.5753C334.511 64.2322 334.478 65.264 333.821 65.88C333.164 66.496 332.132 66.4628 331.516 65.8059C330.9 65.149 330.933 64.1171 331.59 63.5011ZM263.716 129.383C263.1 128.726 262.069 128.693 261.412 129.309C260.755 129.925 260.722 130.957 261.338 131.614C261.954 132.271 262.985 132.304 263.642 131.688C264.299 131.072 264.332 130.04 263.716 129.383ZM282.251 64.5088C282.868 65.1657 282.834 66.1976 282.177 66.8135C281.52 67.4295 280.488 67.3963 279.872 66.7394C279.256 66.0825 279.289 65.0507 279.946 64.4347C280.603 63.8187 281.635 63.8519 282.251 64.5088ZM339.604 128.077C340.261 127.461 340.294 126.429 339.678 125.773C339.062 125.116 338.03 125.082 337.373 125.698C336.716 126.314 336.683 127.346 337.299 128.003C337.915 128.66 338.947 128.693 339.604 128.077ZM336.95 58.4836C337.608 57.8676 338.64 57.9008 339.256 58.5577C339.872 59.2146 339.839 60.2465 339.182 60.8624C338.525 61.4784 337.492 61.4452 336.876 60.7883C336.26 60.1314 336.293 59.0995 336.95 58.4836ZM269.068 124.363C268.452 123.706 267.421 123.673 266.764 124.289C266.107 124.905 266.074 125.937 266.69 126.594C267.306 127.252 268.337 127.285 268.994 126.669C269.651 126.052 269.684 125.02 269.068 124.363ZM268.896 66.962C269.512 67.6189 269.479 68.6507 268.822 69.2667C268.165 69.8826 267.133 69.8494 266.517 69.1925C265.901 68.5356 265.934 67.5038 266.591 66.8878C267.248 66.2719 268.28 66.3051 268.896 66.962ZM326.272 130.531C326.929 129.915 326.962 128.882 326.346 128.225C325.731 127.568 324.699 127.535 324.042 128.151C323.385 128.767 323.352 129.8 323.968 130.457C324.584 131.114 325.616 131.147 326.272 130.531ZM339.396 71.8279C340.053 71.2117 341.084 71.2449 341.7 71.902C342.316 72.5592 342.283 73.5914 341.626 74.2077C340.969 74.8239 339.938 74.7907 339.322 74.1336C338.706 73.4764 338.739 72.4441 339.396 71.8279ZM271.522 137.708C270.905 137.051 269.873 137.018 269.216 137.634C268.559 138.25 268.526 139.282 269.142 139.939C269.758 140.596 270.79 140.629 271.447 140.013C272.104 139.397 272.138 138.365 271.522 137.708ZM273.918 72.3174C274.534 72.9743 274.501 74.0062 273.844 74.6221C273.187 75.2381 272.154 75.2049 271.538 74.548C270.922 73.8911 270.955 72.8593 271.612 72.2433C272.27 71.6273 273.302 71.6605 273.918 72.3174ZM331.279 135.88C331.936 135.264 331.969 134.232 331.353 133.575C330.737 132.918 329.705 132.885 329.048 133.501C328.391 134.117 328.357 135.149 328.973 135.806C329.59 136.463 330.622 136.496 331.279 135.88ZM344.756 66.8064C345.413 66.1902 346.445 66.2234 347.06 66.8805C347.676 67.5377 347.643 68.57 346.986 69.1862C346.33 69.8024 345.298 69.7692 344.682 69.1121C344.066 68.4549 344.099 67.4227 344.756 66.8064ZM276.874 132.691C276.258 132.034 275.225 132 274.568 132.616C273.911 133.232 273.878 134.264 274.494 134.921C275.11 135.578 276.142 135.611 276.799 134.995C277.457 134.379 277.49 133.347 276.874 132.691Z" fill="#151921"/>
<ellipse rx="4.56454" ry="4.56498" transform="matrix(0.93887 -0.344272 0.344262 0.938874 80.891 545.916)" fill="#151921"/>
<circle r="4.56444" transform="matrix(0.938846 -0.344336 0.344198 0.938897 117.694 532.419)" fill="#151921"/>
<path d="M124.854 516.067C125.467 517.738 124.609 519.589 122.939 520.202C122.921 520.208 68.5796 540.135 68.562 540.141C66.9053 540.717 65.0868 539.86 64.4807 538.207C63.8754 536.556 64.7058 534.729 66.3375 534.095C66.3571 534.087 120.7 514.159 120.72 514.152C122.391 513.539 124.242 514.397 124.854 516.067Z" fill="#151921"/>
<circle cx="62.2995" cy="430.619" r="12.6193" fill="#151921"/>
<ellipse cx="52.3718" cy="484.854" rx="12.6193" ry="12.6201" fill="#151921"/>
<path d="M117.32 462.069C116.823 465.731 113.515 468.322 109.867 467.961C109.783 467.953 6.86865 453.978 6.78431 453.967C3.03739 453.458 0.412401 450.008 0.921224 446.261C1.43005 442.514 4.88 439.889 8.62692 440.398C8.67136 440.404 111.546 454.375 111.59 454.382C115.266 454.954 117.823 458.366 117.32 462.069Z" fill="#151921"/>
<ellipse cx="114.519" cy="506.2" rx="6.57817" ry="6.84667" fill="#151921"/>
<ellipse cx="93.3094" cy="475.589" rx="6.57817" ry="6.84667" fill="#151921"/>
<ellipse cx="52.2195" cy="491.702" rx="6.57817" ry="6.84667" fill="#151921"/>
<path d="M90.7602 469.281L49.6802 485.391L53.9761 498.279L97.2041 481.095L90.7602 469.281Z" fill="#151921"/>
<path d="M91.1665 482.575L109.29 510.364L119.761 502.041L97.2077 470.09L91.1665 482.575Z" fill="#151921"/>
<path d="M39.7423 485.389L39.3396 458.406L67.2632 462.031L63.907 479.885L39.7423 485.389Z" fill="#151921"/>
<path d="M61.8817 523.86C61.8868 523.722 61.888 489.325 61.888 489.284C61.888 484.474 58.1221 480.438 53.3099 480.438C48.4976 480.438 44.7317 484.474 44.7317 489.284C44.7317 489.305 44.732 523.619 44.7333 523.689C44.8207 528.422 48.5551 532.364 53.3099 532.364C58.0069 532.364 61.7092 528.516 61.8817 523.86Z" fill="#151921" stroke="#F8F5F1" stroke-width="4"/>
<path fill-rule="evenodd" clip-rule="evenodd" d="M493.586 80.5155C493.637 80.5155 590.706 80.5157 590.756 80.5161C601.145 80.5981 609.541 89.0451 609.541 99.4531C609.541 109.861 601.144 118.308 590.756 118.39C590.71 118.39 511 118.391 496.003 118.391L494.638 118.391L493.745 118.391L493.586 118.391C483.127 118.391 474.649 109.912 474.649 99.4531C474.649 88.9942 483.127 80.5155 493.586 80.5155ZM496.323 92.6563C497.213 92.6563 497.934 93.3782 497.934 94.2687C497.934 95.1591 497.213 95.881 496.323 95.881C495.433 95.881 494.711 95.1591 494.711 94.2687C494.711 93.3782 495.433 92.6563 496.323 92.6563ZM580.94 94.2745C580.94 93.3841 580.218 92.6622 579.328 92.6622C578.438 92.6622 577.716 93.3841 577.716 94.2745C577.716 95.165 578.438 95.8868 579.328 95.8868C580.218 95.8868 580.94 95.165 580.94 94.2745ZM503.582 92.6622C504.472 92.6622 505.194 93.3841 505.194 94.2745C505.194 95.165 504.472 95.8868 503.582 95.8868C502.692 95.8868 501.971 95.165 501.971 94.2745C501.971 93.3841 502.692 92.6622 503.582 92.6622ZM588.183 94.2784C588.183 93.388 587.462 92.6661 586.572 92.6661C585.682 92.6661 584.96 93.388 584.96 94.2784C584.96 95.1689 585.682 95.8907 586.572 95.8907C587.462 95.8907 588.183 95.1689 588.183 94.2784ZM496.322 103.943C497.212 103.943 497.934 104.665 497.934 105.556C497.934 106.446 497.212 107.168 496.322 107.168C495.432 107.168 494.71 106.446 494.71 105.556C494.71 104.665 495.432 103.943 496.322 103.943ZM580.94 105.554C580.94 104.663 580.218 103.942 579.328 103.941C578.438 103.941 577.716 104.663 577.716 105.554C577.716 106.444 578.438 107.166 579.328 107.166C580.218 107.166 580.94 106.444 580.94 105.554ZM503.582 103.951C504.472 103.951 505.194 104.673 505.194 105.564C505.194 106.454 504.472 107.176 503.582 107.176C502.692 107.176 501.971 106.454 501.971 105.564C501.971 104.673 502.692 103.951 503.582 103.951ZM588.183 105.556C588.183 104.665 587.462 103.943 586.572 103.943C585.682 103.943 584.96 104.665 584.96 105.556C584.96 106.446 585.682 107.168 586.572 107.168C587.462 107.168 588.183 106.446 588.183 105.556Z" fill="#151921"/>
<path fill-rule="evenodd" clip-rule="evenodd" d="M359.187 284.442C358.116 264.956 345.809 223.91 307.51 220.344C259.636 215.887 253.121 273.213 253.121 284.442H233.234C234.049 308.772 248.741 354.631 300.995 348.15C320.067 344.507 344.186 312.044 339.729 284.442H359.187ZM291.269 235.788C279.347 235.982 264.766 258.773 264.766 284.367L291.629 284.367L291.629 284.367C292.021 284.355 317.624 235.359 291.269 235.788ZM325.35 284.367H297.259C291.988 293.282 275.84 335.381 300.998 328.523C321.125 318.883 325.493 298.066 325.35 284.367Z" fill="#151921"/>
<path fill-rule="evenodd" clip-rule="evenodd" d="M563.954 322.883C536.425 348.928 511.716 343.079 502.802 336.899C445.158 296.93 500.318 219.468 548.246 225.724C569.175 228.457 582.927 250.746 583.425 275.218C589.065 276.035 595.833 273.855 598.511 272.663C598.73 286.751 599.037 316.943 598.511 325.002C589.627 326.696 571.771 324.295 563.954 322.883ZM556.275 273.03C559.173 258.374 558.247 227.553 537.498 232.881C520.767 242.882 534.503 266.679 556.275 273.03ZM522.378 238.428C514.853 251.372 505.808 281.861 529.83 300.256C518.068 307.191 479.857 285.292 522.378 238.428Z" fill="#151921"/>
<path d="M822.755 269.512V220C810.416 228.136 791.731 226.16 787.031 226.16C782.33 226.16 748.721 214.77 734.384 226.16C711.117 249.289 731.564 274.975 735.677 284.157C729.449 289.271 720.988 307.983 724.043 313.097C728.979 301.591 740.143 292.293 741.905 297.174C754.362 328.439 733.601 342.038 724.043 348.895C743.12 348.585 786.702 348.151 808.418 348.895C800.897 315.538 773.987 299.034 770.109 295.431C788.347 299.336 803.248 319.064 808.418 328.439C807.987 314.531 807.126 284.366 807.126 274.975C786.326 269.629 762.118 272.418 748.721 277.532C736.852 261.144 735.912 256.611 734.384 242.083C746.723 238.248 764.35 251.962 781.273 262.655C794.81 271.209 814.568 270.791 822.755 269.512Z" fill="#151921"/>
<path d="M1032.78 244.324C1036.33 238.616 1026.57 228.642 1021.24 224.368H1058.42C1058.42 247.966 1057.78 297.748 1055.2 308.093C1051.98 321.026 1032.78 352.464 1005.26 348.562C973.023 343.389 965.779 316.38 966.186 303.522H1011.58C1010.73 309.32 1012.4 315.803 1021.24 316.789C1040.58 318.947 1049.62 279.702 1045.55 266.175C1045.77 273.905 1041.22 288.985 1021.24 287.469C985.388 284.905 995.599 247.557 989.161 230.166C972.734 253.8 993.046 283.344 1005.26 295.161H966.186C948.316 234.625 989.827 208.983 995.599 224.368C1006.48 255.25 1028.34 251.459 1032.78 244.324Z" fill="#151921"/>
<ellipse cx="78.9869" cy="39.3099" rx="10.1388" ry="10.7396" fill="#151921"/>
<path d="M46.1848 90.4944C46.1848 96.4257 50.7241 101.234 56.3236 101.234C60.7112 101.234 64.0895 98.035 65.8597 94.1505L82.6412 62.8457H59.2358L47.0474 86.1529C46.4928 87.4804 46.1848 88.9493 46.1848 90.4944Z" fill="#151921"/>
<path d="M119.847 58.1627C119.847 61.3083 117.494 63.8718 114.551 63.9856C114.483 63.9882 31.0397 63.9895 30.9713 63.9895C27.9333 63.9895 25.4705 61.3808 25.4705 58.1627C25.4705 54.9447 27.9333 52.3359 30.9713 52.3359C31.0073 52.3359 114.418 52.3363 114.454 52.337C117.443 52.3979 119.847 54.9829 119.847 58.1627Z" fill="#151921"/>
<path d="M21.8076 151.926C24.4282 153.554 27.7985 152.623 29.3354 149.847C29.3642 149.795 47.2573 118.139 53.1872 107.644L45.1486 99.1898C41.9378 104.869 19.8621 143.922 19.8452 143.952C18.3084 146.728 19.1869 150.298 21.8076 151.926Z" fill="#151921"/>
<path d="M59.3426 149.412C61.9633 151.04 65.3336 150.109 66.8704 147.333C66.8993 147.281 75.7973 130.351 81.7272 119.856L73.6887 111.402C70.4778 117.081 57.3972 141.408 57.3803 141.438C55.8434 144.214 56.722 147.784 59.3426 149.412Z" fill="#151921"/>
<path d="M80.9214 120.717C82.9895 118.36 82.8622 114.673 80.6369 112.482C80.5951 112.441 66.9207 99.5703 58.5337 91.1638L49.0001 97.6444C53.5384 102.196 73.123 120.994 73.1475 121.018C75.3727 123.209 78.8532 123.074 80.9214 120.717Z" fill="#151921"/>
<ellipse cx="77.0329" cy="117.002" rx="5.39296" ry="5.71255" fill="#151921"/>
<ellipse cx="48.8738" cy="166.123" rx="3.66722" ry="3.88453" fill="#151921"/>
<ellipse cx="80.3747" cy="166.123" rx="3.66722" ry="3.88453" fill="#151921"/>
<path d="M90.2886 155.161C90.2886 156.675 89.1296 157.902 87.7 157.902C87.6849 157.902 41.1825 157.902 41.1675 157.902C39.7587 157.876 38.624 156.659 38.624 155.161C38.624 153.665 39.7557 152.449 41.1619 152.42C41.1788 152.42 87.683 152.42 87.7 152.42C89.1296 152.42 90.2886 153.647 90.2886 155.161Z" fill="#151921"/>
<path fill-rule="evenodd" clip-rule="evenodd" d="M7 328.959C27.5721 345.9 76.2377 360.169 105.198 305.974C108.203 300.351 108.083 289.185 105.198 278.274C101.262 262.674 115.953 247.772 126.497 271.32V223.24C119.209 221.6 103.783 227.612 100.382 264.783C89.8069 241.324 68.1802 219.828 41.2322 227.739C-3.54381 240.883 36.6632 308.223 98.0282 300.351C91.2802 308.645 33.711 331.279 7 260.495V328.959ZM102.958 294.98C99.1384 280.851 79.269 251.201 63.3128 257.093C49.3247 265.034 83.6272 294.98 102.958 294.98Z" fill="#151921"/>
<path fill-rule="evenodd" clip-rule="evenodd" d="M986.878 36.5754C992.36 27.7354 1008.01 27.7342 1004.12 48.9531C1000.23 70.1719 1003.09 86.9698 1005 92.7165C1006.92 82.2546 1012.34 58.8552 1018.71 48.9531C1026.66 36.5754 1032.41 33.4814 1039.48 36.5754C1046.56 39.6694 1041.25 50.2788 1039.48 53.3732C1038.6 54.9085 1027.1 77.2444 1027.99 92.7165C1035.06 90.5045 1040.81 92.7165 1043.9 96.2546C1055.22 95.5473 1057.75 113.348 1057.61 122.336C1057.9 132.356 1057.61 148.467 1048.89 153.594C1036.65 160.795 1018.71 166.1 993.951 160.795C969.196 155.49 956.818 138.25 957.702 118.8C958.41 103.239 974.795 99.3479 982.899 99.3474C975.119 66.8118 982.31 43.9429 986.878 36.5754ZM983.731 121.008C984.025 125.133 984.084 133.826 981.962 135.594C979.31 137.804 970.027 119.24 983.731 121.008Z" fill="#151921"/>
<path d="M980.644 96.0641C979.558 95.8648 978.515 96.584 978.316 97.6705C978.117 98.7569 978.836 99.7992 979.922 99.9984L980.644 96.0641ZM1013.52 119.691L1015.41 120.322L1013.52 119.691ZM979.305 121.617C978.692 122.536 978.941 123.777 979.86 124.39C980.779 125.003 982.021 124.754 982.633 123.835L979.305 121.617ZM979.922 99.9984C985.541 101.029 994.5 103.829 1001.58 107.596C1005.14 109.485 1008.06 111.538 1009.88 113.615C1011.69 115.678 1012.15 117.448 1011.62 119.06L1015.41 120.322C1016.58 116.829 1015.19 113.605 1012.89 110.981C1010.61 108.372 1007.19 106.047 1003.46 104.064C995.98 100.085 986.624 97.1609 980.644 96.0641L979.922 99.9984ZM1011.62 119.06C1010.11 123.589 1008 124.917 1006.4 125.335C1004.58 125.813 1002.88 125.299 1001.63 125.03L1000.79 128.94C1001.66 129.127 1004.45 129.98 1007.42 129.205C1010.61 128.369 1013.59 125.822 1015.41 120.322L1011.62 119.06ZM1001.63 125.03C1001.21 124.94 999.905 124.533 997.934 123.926C996.042 123.344 993.681 122.625 991.336 121.984C989.007 121.346 986.625 120.766 984.707 120.481C983.759 120.34 982.824 120.255 982.025 120.303C981.627 120.327 981.173 120.389 980.734 120.544C980.303 120.695 979.717 120.998 979.305 121.617L982.633 123.835C982.393 124.196 982.098 124.304 982.064 124.316C982.023 124.331 982.071 124.308 982.266 124.296C982.654 124.272 983.269 124.311 984.118 124.437C985.792 124.686 987.986 125.214 990.281 125.842C992.56 126.465 994.869 127.168 996.757 127.749C998.566 128.306 1000.15 128.802 1000.79 128.94L1001.63 125.03Z" fill="#F8F5F1"/>
<path d="M1029.29 92.9084C1030.25 92.3603 1030.59 91.1386 1030.04 90.1796C1029.49 89.2206 1028.27 88.8874 1027.31 89.4354L1029.29 92.9084ZM1014.15 114.956L1012.17 114.648L1014.15 114.956ZM1015.44 140.229L1016.88 138.835L1015.44 140.229ZM1045.49 96.4655C1046.52 96.0649 1047.03 94.9057 1046.63 93.8763C1046.23 92.847 1045.07 92.3373 1044.04 92.7379L1045.49 96.4655ZM1040.44 138.899L1042.15 139.926L1040.44 138.899ZM1049.73 116.236C1050.44 115.388 1050.32 114.127 1049.48 113.419C1048.63 112.712 1047.37 112.827 1046.66 113.676L1049.73 116.236ZM1027.31 89.4354C1025 90.7579 1021.72 94.0001 1018.81 98.3029C1015.87 102.659 1013.16 108.324 1012.17 114.648L1016.12 115.264C1017 109.66 1019.43 104.541 1022.13 100.541C1024.86 96.4884 1027.73 93.8028 1029.29 92.9084L1027.31 89.4354ZM1012.17 114.648C1011.1 121.511 1010.43 126.998 1010.54 131.303C1010.65 135.615 1011.56 139.102 1014.01 141.623L1016.88 138.835C1015.45 137.365 1014.64 135.089 1014.54 131.199C1014.43 127.301 1015.05 122.146 1016.12 115.264L1012.17 114.648ZM1014.01 141.623C1016.29 143.969 1019.66 143.98 1022.1 143.434C1023.39 143.146 1024.61 142.671 1025.6 142.1C1026.49 141.586 1027.55 140.797 1028.04 139.718L1024.39 138.08C1024.44 137.961 1024.32 138.219 1023.6 138.632C1022.98 138.99 1022.14 139.326 1021.23 139.53C1019.28 139.966 1017.7 139.682 1016.88 138.835L1014.01 141.623ZM1028.21 138.801C1027.94 133.275 1029.33 123.702 1032.38 114.889C1033.9 110.499 1035.8 106.388 1038.05 103.108C1040.32 99.8079 1042.82 97.5046 1045.49 96.4655L1044.04 92.7379C1040.33 94.1818 1037.26 97.1976 1034.75 100.845C1032.24 104.511 1030.19 108.975 1028.6 113.58C1025.42 122.755 1023.91 132.847 1024.21 138.997L1028.21 138.801ZM1024.52 139.972C1025.85 142.065 1028.38 144.872 1031.66 145.733C1033.39 146.186 1035.28 146.083 1037.16 145.103C1038.99 144.146 1040.65 142.431 1042.15 139.926L1038.72 137.872C1037.46 139.978 1036.27 141.05 1035.3 141.558C1034.38 142.042 1033.52 142.084 1032.68 141.864C1030.83 141.38 1029.01 139.576 1027.9 137.826L1024.52 139.972ZM1042.15 139.926C1045.81 133.81 1046.5 129.052 1046.95 125.159C1047.39 121.275 1047.59 118.805 1049.73 116.236L1046.66 113.676C1043.63 117.314 1043.39 121.052 1042.98 124.705C1042.56 128.35 1041.96 132.46 1038.72 137.872L1042.15 139.926Z" fill="#F8F5F1"/>
<path d="M735.245 59.9578C722.243 47.9826 728.033 35.0572 735.595 34.7108C760.81 33.5594 762.536 71.3802 759.664 77.4523C806.481 61.106 807.847 82.4094 808.118 87.9621C815.196 95.6197 814.107 100.751 812.142 107.104C818.668 110.117 812.924 122.261 808.517 126.864C812.873 128.211 831.47 127.665 840.224 127.223C844.204 128.288 850.134 132.475 842.021 140.705C831.879 150.992 799.232 148.851 784.496 148.271C769.76 147.692 765.769 157.395 753.027 151.963C709.164 131.439 722.03 94.6497 726.264 88.9988C730.498 83.348 741.027 70.1976 735.245 59.9578Z" fill="#151921"/>
<path d="M786.303 83.1377C787.38 82.8919 788.054 81.8197 787.808 80.7428C787.562 79.6659 786.49 78.9922 785.413 79.238L786.303 83.1377ZM811.049 89.6966C811.801 88.8871 811.754 87.6216 810.944 86.8701C810.135 86.1186 808.87 86.1655 808.118 86.975L811.049 89.6966ZM815.419 107.69C816.057 106.788 815.843 105.54 814.942 104.902C814.04 104.264 812.792 104.478 812.154 105.379L815.419 107.69ZM793.606 133.3L794.163 135.221L794.257 135.193L794.349 135.157L793.606 133.3ZM813.829 125.225C814.593 124.427 814.566 123.161 813.768 122.397C812.97 121.633 811.704 121.661 810.94 122.459L813.829 125.225ZM785.413 79.238C777.947 80.9421 767.623 84.3772 761.423 89.2443C758.338 91.6661 755.858 94.7737 755.83 98.5415C755.802 102.352 758.281 105.979 763.031 109.421L765.378 106.182C761.03 103.032 759.816 100.458 759.83 98.5708C759.844 96.6404 761.14 94.552 763.893 92.3906C769.369 88.0913 778.97 84.8115 786.303 83.1377L785.413 79.238ZM763.095 109.466C766.008 111.408 770.071 111.41 774.158 110.605C778.346 109.779 783.056 108.004 787.688 105.772C796.922 101.322 806.275 94.8393 811.049 89.6966L808.118 86.975C803.792 91.6349 794.906 97.8529 785.952 102.169C781.489 104.319 777.117 105.944 773.384 106.68C769.55 107.436 766.852 107.163 765.314 106.137L763.095 109.466ZM763.115 106.124C761.476 107.189 759.981 108.942 758.952 110.897C757.922 112.854 757.246 115.23 757.526 117.586C757.817 120.038 759.135 122.307 761.756 123.835C764.285 125.31 767.896 126.025 772.743 125.841L772.591 121.843C768.131 122.013 765.383 121.32 763.771 120.38C762.25 119.493 761.643 118.339 761.498 117.114C761.341 115.792 761.714 114.237 762.492 112.76C763.27 111.281 764.34 110.098 765.294 109.479L763.115 106.124ZM772.743 125.841C782.352 125.476 791.637 122.838 799.163 119.393C806.619 115.979 812.619 111.646 815.419 107.69L812.154 105.379C809.95 108.493 804.696 112.46 797.498 115.756C790.368 119.02 781.596 121.501 772.591 121.843L772.743 125.841ZM770.675 123.66C770.393 126.76 771.25 131.204 775.018 134.101C778.804 137.012 784.932 137.9 794.163 135.221L793.048 131.379C784.365 133.899 779.781 132.717 777.456 130.93C775.112 129.127 774.457 126.243 774.659 124.024L770.675 123.66ZM794.349 135.157C799.191 133.219 803.765 131.016 807.224 129.199C808.954 128.29 810.417 127.472 811.503 126.826C812.045 126.504 812.507 126.216 812.866 125.977C813.161 125.78 813.561 125.505 813.829 125.225L810.94 122.459C811.025 122.37 810.998 122.415 810.649 122.648C810.366 122.836 809.967 123.086 809.459 123.388C808.445 123.991 807.046 124.775 805.364 125.658C802 127.425 797.552 129.567 792.863 131.443L794.349 135.157Z" fill="#F8F5F1"/>
</svg>
