<svg width="1155" height="727" viewBox="0 0 1155 727" fill="none" xmlns="http://www.w3.org/2000/svg">
<rect width="1155" height="727" rx="20" fill="#B35B58"/>
<ellipse cx="578" cy="363.5" rx="575" ry="363.5" fill="#F8F5F1"/>
<line x1="117" y1="2" x2="117" y2="725" stroke="#151921" stroke-width="2" stroke-dasharray="10 10"/>
<line x1="1041" y1="2" x2="1041" y2="725" stroke="#151921" stroke-width="2" stroke-dasharray="10 10"/>
<line x1="2" y1="590" x2="1153" y2="590" stroke="#151921" stroke-width="2" stroke-dasharray="10 10"/>
<line x1="2" y1="135" x2="1153" y2="135" stroke="#151921" stroke-width="2" stroke-dasharray="10 10"/>
<path d="M132.915 236.85V270H147.875V236.85H163.685V226.82H117.105V236.85H132.915ZM181.516 243.565C181.771 240.335 183.386 238.125 185.086 236.765C187.636 234.725 190.441 234.385 193.501 234.385C196.306 234.385 199.791 234.64 202.341 236.935C203.531 237.955 205.231 240.08 205.401 243.565H181.516ZM205.146 255.89C204.551 258.695 202.936 260.14 201.321 260.905C199.196 261.925 195.796 262.095 193.586 262.095C190.696 262.095 186.616 261.755 184.066 259.205C182.621 257.76 181.261 255.21 181.261 251.47V251.215H220.786V249.685C220.786 244.5 220.276 237.53 214.921 232.175C209.056 226.31 200.131 225.205 193.416 225.205C186.616 225.205 178.371 226.14 172.421 231.92C166.726 237.445 165.961 244.67 165.961 249.09C165.961 254.445 166.981 260.31 171.911 265.24C177.436 270.765 184.831 271.615 194.606 271.615C201.576 271.615 206.761 271.105 210.841 269.32C216.706 266.685 219.681 261.415 220.191 255.89H205.146ZM244.221 245.69V226.82H229.261V270H244.221V249.94L261.221 270H279.071L257.821 246.965L277.796 226.82H260.796L244.221 245.69ZM331.791 242.12C331.706 238.38 330.686 232.77 323.971 228.86C321.506 227.415 316.321 225.205 306.206 225.205C299.661 225.205 291.076 226.225 285.296 232.345C282.491 235.32 279.516 240.505 279.516 249.09C279.516 258.525 283.256 263.37 285.381 265.495C291.076 271.19 299.661 271.615 306.631 271.615C314.451 271.615 322.186 271.19 327.371 265.835C329.496 263.625 331.961 259.715 331.961 254.02V253.765H317.511C317.426 256.655 316.066 258.95 314.281 260.225C312.156 261.755 309.181 261.925 307.226 261.925C304.421 261.925 301.021 261.585 298.471 259.035C296.516 257.08 294.986 253.68 294.986 248.835C294.986 247.305 295.071 241.95 298.216 238.38C300.596 235.66 303.826 234.895 307.141 234.895C309.521 234.895 312.241 235.32 314.196 236.51C317.001 238.295 317.341 240.845 317.426 242.12H331.791ZM349.648 236.85V270H364.608V236.85H380.418V226.82H333.838V236.85H349.648ZM409.338 234.895C412.058 234.895 415.798 235.405 418.518 238.125C420.728 240.42 422.088 244.16 422.088 248.41C422.088 252.66 420.728 256.4 418.518 258.695C415.798 261.415 412.058 261.925 409.338 261.925C406.618 261.925 402.878 261.415 400.158 258.695C397.948 256.4 396.588 252.66 396.588 248.41C396.588 244.16 397.948 240.42 400.158 238.125C402.878 235.405 406.618 234.895 409.338 234.895ZM437.558 248.41C437.558 242.715 436.283 235.915 430.078 230.9C423.788 225.8 414.948 225.205 409.338 225.205C403.728 225.205 394.888 225.8 388.598 230.9C382.393 235.915 381.118 242.715 381.118 248.41C381.118 254.105 382.393 260.905 388.598 265.92C394.888 271.02 403.728 271.615 409.338 271.615C414.948 271.615 423.788 271.02 430.078 265.92C436.283 260.905 437.558 254.105 437.558 248.41ZM461.038 251.895H471.663C474.213 251.895 475.913 252.065 477.273 252.575C478.973 253.255 480.078 254.275 480.078 256.4C480.078 258.865 478.633 260.055 477.698 260.565C476.168 261.33 473.108 261.5 471.833 261.5H461.038V251.895ZM461.038 235.15H471.408C474.808 235.15 476.168 235.915 476.338 236C477.018 236.425 478.293 237.445 478.293 239.655C478.293 241.78 477.018 242.715 476.423 243.055C475.063 243.905 471.408 244.075 469.708 244.075H461.038V235.15ZM446.078 226.82V270H477.273C482.543 270 488.408 270 492.148 266.345C493.508 265.07 495.293 262.435 495.293 257.93C495.293 255.295 494.613 252.745 492.233 250.62C490.193 248.835 487.133 247.73 484.413 247.56V247.135C486.283 246.795 489.003 245.86 490.533 244.33C491.638 243.225 493.083 241.015 493.083 237.275C493.083 233.11 491.213 230.39 488.408 228.775C485.518 227.075 481.438 226.82 476.423 226.82H446.078ZM518.479 251.13H528.424C529.529 251.13 532.674 251.215 534.034 251.895C534.884 252.32 536.329 253.34 536.329 255.975C536.329 258.185 535.309 259.46 534.374 260.055C532.929 260.99 530.209 261.16 528.679 261.16H518.479V251.13ZM518.479 226.82H503.519V270H532.249C536.074 270 541.599 269.83 545.594 267.11C549.844 264.22 550.864 259.885 550.864 256.145C550.864 253 550.269 248.835 546.529 245.775C542.449 242.46 536.329 242.29 532.589 242.29H518.479V226.82ZM556.134 226.82V270H571.094V226.82H556.134ZM596.755 255.72V226.82H581.795V270H597.435L619.535 241.1V270H634.495V226.82H618.77L596.755 255.72ZM615.37 208.715C615.455 210.925 614.52 212.54 613.585 213.305C612.055 214.665 609.675 214.75 607.89 214.75C606.105 214.75 603.725 214.665 602.195 213.305C601.26 212.54 600.325 210.925 600.41 208.715H589.53C589.36 212.88 591.23 215.6 592.675 217.13C596.5 221.04 602.875 221.21 607.89 221.21C612.905 221.21 619.28 221.04 623.105 217.13C624.55 215.6 626.42 212.88 626.25 208.715H615.37Z" fill="black"/>
<path d="M503.13 320C505.68 320 509.25 320.425 511.97 323.145C514.35 325.525 515.54 329.52 515.54 332.92C515.54 336.15 514.435 340.23 511.885 342.865C509.165 345.67 505.85 346.095 503.13 346.095C500.155 346.095 497.095 345.67 494.375 342.865C491.91 340.315 490.805 336.49 490.805 332.92C490.805 329.435 491.91 325.61 494.375 323.145C497.01 320.51 500.495 320 503.13 320ZM516.645 290.845C516.56 291.44 516.305 292.035 515.71 292.545C514.265 293.82 512.055 293.99 507.55 294.33C501.26 294.84 498.115 295.435 496.67 295.69C491.57 296.71 486.47 298.58 482.22 302.745C474.91 309.885 474.145 319.915 474.145 326.97C474.145 333.09 474.91 342.44 481.54 348.9C488.17 355.36 497.01 355.615 503.98 355.615C510.695 355.615 518.685 355.445 524.89 349.325C529.905 344.395 531.01 338.105 531.01 332.92C531.01 327.99 530.16 320.85 522.935 315.835C517.325 311.925 509.76 311.33 504.32 311.33C500.24 311.33 495.48 311.67 491.06 314.135C487.32 316.175 485.45 318.81 484.26 321.53H483.58C483.835 314.815 487.575 311.245 489.19 309.97C493.015 306.91 498.54 305.89 503.3 305.38L509.335 304.7C514.945 304.105 521.15 303.255 524.465 299.855C526.42 297.815 527.78 294.415 527.695 290.845H516.645ZM534.361 353.915C536.656 354.425 538.271 354.51 540.396 354.51C543.626 354.51 548.301 354.425 552.041 350.77C555.441 347.455 556.461 342.44 556.801 339.55C557.141 336.66 557.396 330.03 557.396 327.31V320.85H572.016V354H586.976V310.82H544.051V324.335C544.051 328.16 544.051 331.9 543.711 335.47C543.456 338.02 543.031 340.995 541.076 342.865C539.801 344.055 538.441 344.48 536.826 344.48C535.891 344.48 535.126 344.395 534.361 344.14V353.915ZM623.888 318.895C626.608 318.895 630.348 319.405 633.068 322.125C635.278 324.42 636.638 328.16 636.638 332.41C636.638 336.66 635.278 340.4 633.068 342.695C630.348 345.415 626.608 345.925 623.888 345.925C621.168 345.925 617.428 345.415 614.708 342.695C612.498 340.4 611.138 336.66 611.138 332.41C611.138 328.16 612.498 324.42 614.708 322.125C617.428 319.405 621.168 318.895 623.888 318.895ZM652.108 332.41C652.108 326.715 650.833 319.915 644.628 314.9C638.338 309.8 629.498 309.205 623.888 309.205C618.278 309.205 609.438 309.8 603.148 314.9C596.943 319.915 595.668 326.715 595.668 332.41C595.668 338.105 596.943 344.905 603.148 349.92C609.438 355.02 618.278 355.615 623.888 355.615C629.498 355.615 638.338 355.02 644.628 349.92C650.833 344.905 652.108 338.105 652.108 332.41ZM675.588 329.69V310.82H660.628V354H675.588V333.94L692.588 354H710.438L689.188 330.965L709.163 310.82H692.163L675.588 329.69Z" fill="black"/>
<path d="M119.825 453.5V485H133.145C142.1 485 144.395 480.725 144.395 476.225C144.395 470.6 140.39 468.845 137.78 468.395V468.26C140.75 467.81 143.045 464.885 143.045 461.51C143.045 457.82 141.29 453.5 133.64 453.5H119.825ZM124.055 457.055H132.695C137.96 457.055 138.725 460.16 138.725 461.96C138.725 464.57 137.195 466.865 132.56 466.865H124.055V457.055ZM124.055 470.42H132.83C137.24 470.42 140.075 471.815 140.075 475.865C140.075 480.995 135.755 481.445 132.83 481.445H124.055V470.42ZM148.96 473.57C148.96 479.645 151.885 485.9 160.21 485.9C168.535 485.9 171.46 479.645 171.46 473.57C171.46 467.495 168.535 461.24 160.21 461.24C151.885 461.24 148.96 467.495 148.96 473.57ZM153.145 473.525C153.145 464.345 158.455 463.94 160.21 463.94C161.965 463.94 167.275 464.345 167.275 473.525C167.275 482.705 161.965 483.11 160.21 483.11C158.455 483.11 153.145 482.705 153.145 473.525ZM174.833 477.98C174.968 480.545 176.228 485.9 185.003 485.9C193.058 485.9 194.723 481.76 194.723 478.88C194.723 475.19 192.248 473.39 189.908 473.03V472.895C191.258 472.535 193.868 471.5 193.868 467.9C193.868 465.92 192.968 461.24 184.823 461.24C182.483 461.24 175.778 461.645 175.418 468.44H179.198C179.198 466.865 180.143 464.03 184.598 464.03C189.323 464.03 189.773 466.955 189.773 468.17C189.773 471.545 186.623 471.725 185.003 471.725H182.078V474.515H185.453C186.623 474.515 190.628 474.605 190.628 478.61C190.628 481.715 188.153 483.11 184.688 483.11C180.593 483.11 178.613 480.635 178.613 477.98H174.833ZM211.58 485H214.64L222.38 466.64H222.515L222.38 467.855V485H226.34V462.14H220.895L213.11 480.725L205.325 462.14H199.88V485H203.84V467.855L203.75 466.64H203.84L211.58 485ZM231.534 473.57C231.534 479.645 234.459 485.9 242.784 485.9C251.109 485.9 254.034 479.645 254.034 473.57C254.034 467.495 251.109 461.24 242.784 461.24C234.459 461.24 231.534 467.495 231.534 473.57ZM235.719 473.525C235.719 464.345 241.029 463.94 242.784 463.94C244.539 463.94 249.849 464.345 249.849 473.525C249.849 482.705 244.539 483.11 242.784 483.11C241.029 483.11 235.719 482.705 235.719 473.525ZM269.21 485H273.17V473.705L282.26 485H287.165L276.68 472.985L286.58 462.14H281.9L273.17 472.49V462.14H269.21V472.49L260.48 462.14H255.8L265.7 472.985L255.215 485H260.12L269.21 473.705V485ZM306.701 478.385C306.206 480.905 304.181 483.11 300.356 483.11C295.136 483.11 293.111 478.385 293.111 474.47H310.706C310.706 474.11 310.661 473.705 310.661 473.345C310.436 468.395 309.221 461.24 300.086 461.24C289.511 461.24 288.926 470.51 288.926 473.66C288.926 475.73 289.151 485.9 300.491 485.9C307.511 485.9 309.896 481.625 310.481 478.385H306.701ZM293.111 471.68C293.111 468.8 294.326 464.03 300.176 464.03C305.351 464.03 306.386 468.62 306.521 471.68H293.111ZM319.855 474.335H331.15V485H335.11V462.14H331.15V471.545H319.855V462.14H315.895V485H319.855V474.335ZM356.066 464.93H367.631V485H371.591V462.14H352.106V485H356.066V464.93ZM376.773 473.57C376.773 479.645 379.698 485.9 388.023 485.9C396.348 485.9 399.273 479.645 399.273 473.57C399.273 467.495 396.348 461.24 388.023 461.24C379.698 461.24 376.773 467.495 376.773 473.57ZM380.958 473.525C380.958 464.345 386.268 463.94 388.023 463.94C389.778 463.94 395.088 464.345 395.088 473.525C395.088 482.705 389.778 483.11 388.023 483.11C386.268 483.11 380.958 482.705 380.958 473.525ZM401.205 482.21L401.565 490.94H404.895V485H424.515V490.94H427.845L428.16 482.21H424.2V462.14H407.82V465.965C407.82 474.335 406.38 478.835 404.085 482.21H401.205ZM420.24 464.93V482.21H408.27C410.7 478.43 411.51 472.31 411.51 468.125V464.93H420.24ZM429.759 477.98C429.894 480.545 431.154 485.9 439.929 485.9C447.984 485.9 449.649 481.76 449.649 478.88C449.649 475.19 447.174 473.39 444.834 473.03V472.895C446.184 472.535 448.794 471.5 448.794 467.9C448.794 465.92 447.894 461.24 439.749 461.24C437.409 461.24 430.704 461.645 430.344 468.44H434.124C434.124 466.865 435.069 464.03 439.524 464.03C444.249 464.03 444.699 466.955 444.699 468.17C444.699 471.545 441.549 471.725 439.929 471.725H437.004V474.515H440.379C441.549 474.515 445.554 474.605 445.554 478.61C445.554 481.715 443.079 483.11 439.614 483.11C435.519 483.11 433.539 480.635 433.539 477.98H429.759ZM457.821 468.89C457.686 464.12 462.321 464.03 463.761 464.03C468.801 464.03 468.891 467.54 468.891 468.62C468.891 471.59 467.811 471.545 464.436 471.77C455.256 472.625 453.231 475.055 453.231 479.015C453.231 483.83 456.471 485.9 461.286 485.9C464.391 485.9 467.541 484.73 469.116 481.85C469.611 484.82 470.961 485.18 473.211 485.18C474.066 485.18 474.471 485.135 475.011 485V482.21C472.581 482.345 472.626 481.265 472.626 479.51L472.851 468.935C472.986 462.275 467.451 461.24 463.761 461.24C455.661 461.24 454.041 465.83 454.041 468.89H457.821ZM468.801 475.235C468.441 481.58 464.841 483.11 461.736 483.11C459.171 483.11 457.326 481.58 457.326 478.88C457.326 475.19 460.341 475.01 463.851 474.425C466.371 474.065 467.721 474.245 468.891 473.3L468.801 475.235ZM483.639 464.93H495.339V462.14H479.679V485H483.639V464.93ZM496.7 473.57C496.7 479.645 499.625 485.9 507.95 485.9C516.275 485.9 519.2 479.645 519.2 473.57C519.2 467.495 516.275 461.24 507.95 461.24C499.625 461.24 496.7 467.495 496.7 473.57ZM500.885 473.525C500.885 464.345 506.195 463.94 507.95 463.94C509.705 463.94 515.015 464.345 515.015 473.525C515.015 482.705 509.705 483.11 507.95 483.11C506.195 483.11 500.885 482.705 500.885 473.525ZM521.717 485C530.177 486.575 530.897 478.7 530.897 470.735V464.93H539.087V485H543.047V462.14H527.207V470.735C527.207 476.135 527.117 483.155 521.717 482.075V485ZM548.204 473.57C548.204 479.645 551.129 485.9 559.454 485.9C567.779 485.9 570.704 479.645 570.704 473.57C570.704 467.495 567.779 461.24 559.454 461.24C551.129 461.24 548.204 467.495 548.204 473.57ZM552.389 473.525C552.389 464.345 557.699 463.94 559.454 463.94C561.209 463.94 566.519 464.345 566.519 473.525C566.519 482.705 561.209 483.11 559.454 483.11C557.699 483.11 552.389 482.705 552.389 473.525ZM575.876 462.14V485H586.631C590.366 485 594.866 484.28 594.866 479.06C594.866 476.855 594.326 474.155 589.871 473.075V472.94C590.636 472.67 594.011 471.68 594.011 467.585C594.011 462.365 589.061 462.14 586.766 462.14H575.876ZM579.836 464.93H585.506C587.126 464.93 590.006 465.11 590.006 468.17C590.006 469.745 589.061 471.68 585.326 471.68H579.836V464.93ZM579.836 474.47H585.506C587.261 474.47 590.771 474.74 590.771 478.7C590.771 482.12 586.991 482.21 585.641 482.21H579.836V474.47ZM598.829 473.57C598.829 479.645 601.754 485.9 610.079 485.9C618.404 485.9 621.329 479.645 621.329 473.57C621.329 467.495 618.404 461.24 610.079 461.24C601.754 461.24 598.829 467.495 598.829 473.57ZM603.014 473.525C603.014 464.345 608.324 463.94 610.079 463.94C611.834 463.94 617.144 464.345 617.144 473.525C617.144 482.705 611.834 483.11 610.079 483.11C608.324 483.11 603.014 482.705 603.014 473.525ZM630.461 472.13V462.14H626.501V485H630.461V473.57L640.721 485H645.446L634.151 472.76L644.861 462.14H640.226L630.461 472.13Z" fill="black"/>
<path d="M205.825 512.5V544H210.055V531.445H218.245C226.39 531.445 229.315 527.44 229.315 521.545C229.315 515.02 225.085 512.5 218.65 512.5H205.825ZM210.055 516.055H217.795C222.655 516.055 224.995 517.72 224.995 521.635C224.995 525.775 222.835 527.89 217.795 527.89H210.055V516.055ZM236.248 527.89C236.113 523.12 240.748 523.03 242.188 523.03C247.228 523.03 247.318 526.54 247.318 527.62C247.318 530.59 246.238 530.545 242.863 530.77C233.683 531.625 231.658 534.055 231.658 538.015C231.658 542.83 234.898 544.9 239.713 544.9C242.818 544.9 245.968 543.73 247.543 540.85C248.038 543.82 249.388 544.18 251.638 544.18C252.493 544.18 252.898 544.135 253.438 544V541.21C251.008 541.345 251.053 540.265 251.053 538.51L251.278 527.935C251.413 521.275 245.878 520.24 242.188 520.24C234.088 520.24 232.468 524.83 232.468 527.89H236.248ZM247.228 534.235C246.868 540.58 243.268 542.11 240.163 542.11C237.598 542.11 235.753 540.58 235.753 537.88C235.753 534.19 238.768 534.01 242.278 533.425C244.798 533.065 246.148 533.245 247.318 532.3L247.228 534.235ZM256.306 536.98C256.441 539.545 257.701 544.9 266.476 544.9C274.531 544.9 276.196 540.76 276.196 537.88C276.196 534.19 273.721 532.39 271.381 532.03V531.895C272.731 531.535 275.341 530.5 275.341 526.9C275.341 524.92 274.441 520.24 266.296 520.24C263.956 520.24 257.251 520.645 256.891 527.44H260.671C260.671 525.865 261.616 523.03 266.071 523.03C270.796 523.03 271.246 525.955 271.246 527.17C271.246 530.545 268.096 530.725 266.476 530.725H263.551V533.515H266.926C268.096 533.515 272.101 533.605 272.101 537.61C272.101 540.715 269.626 542.11 266.161 542.11C262.066 542.11 260.086 539.635 260.086 536.98H256.306ZM278.113 541.21L278.473 549.94H281.803V544H301.423V549.94H304.753L305.068 541.21H301.108V521.14H284.728V524.965C284.728 533.335 283.288 537.835 280.993 541.21H278.113ZM297.148 523.93V541.21H285.178C287.608 537.43 288.418 531.31 288.418 527.125V523.93H297.148ZM324.938 537.385C324.443 539.905 322.418 542.11 318.593 542.11C313.373 542.11 311.348 537.385 311.348 533.47H328.943C328.943 533.11 328.898 532.705 328.898 532.345C328.673 527.395 327.458 520.24 318.323 520.24C307.748 520.24 307.163 529.51 307.163 532.66C307.163 534.73 307.388 544.9 318.728 544.9C325.748 544.9 328.133 540.625 328.718 537.385H324.938ZM311.348 530.68C311.348 527.8 312.563 523.03 318.413 523.03C323.588 523.03 324.623 527.62 324.758 530.68H311.348ZM331.477 544C339.937 545.575 340.657 537.7 340.657 529.735V523.93H348.847V544H352.807V521.14H336.967V529.735C336.967 535.135 336.877 542.155 331.477 541.075V544ZM375.738 537.385C375.243 539.905 373.218 542.11 369.393 542.11C364.173 542.11 362.148 537.385 362.148 533.47H379.743C379.743 533.11 379.698 532.705 379.698 532.345C379.473 527.395 378.258 520.24 369.123 520.24C358.548 520.24 357.963 529.51 357.963 532.66C357.963 534.73 358.188 544.9 369.528 544.9C376.548 544.9 378.933 540.625 379.518 537.385H375.738ZM362.148 530.68C362.148 527.8 363.363 523.03 369.213 523.03C374.388 523.03 375.423 527.62 375.558 530.68H362.148ZM388.892 533.335H400.187V544H404.147V521.14H400.187V530.545H388.892V521.14H384.932V544H388.892V533.335ZM414.6 533.335H425.895V544H429.855V521.14H425.895V530.545H414.6V521.14H410.64V544H414.6V533.335ZM436.348 521.14V544H447.418C453.538 544 455.248 540.58 455.248 537.16C455.248 530.5 449.263 530.185 446.068 530.185H440.308V521.14H436.348ZM440.308 532.975H445.123C447.643 532.975 451.153 532.93 451.153 536.89C451.153 540.715 447.778 541.21 445.843 541.21H440.308V532.975ZM458.038 521.14V544H461.998V521.14H458.038ZM472.432 539.365V521.14H468.472V544H472.927L484.807 525.73V544H488.767V521.14H484.357L472.432 539.365ZM482.872 512.5C483.007 514.795 480.892 516.055 478.507 516.055C477.832 516.055 477.202 516.01 476.527 515.785C475.942 515.56 475.402 515.2 474.952 514.705C474.097 513.76 474.097 512.86 474.142 512.5H470.767C470.902 512.905 470.947 513.31 471.082 513.715C471.937 516.235 474.007 518.44 478.507 518.44C479.092 518.44 479.722 518.395 480.307 518.305C484.627 517.585 485.887 514.435 486.247 512.5H482.872ZM509.698 533.335H520.993V544H524.953V521.14H520.993V530.545H509.698V521.14H505.738V544H509.698V533.335ZM534.461 527.89C534.326 523.12 538.961 523.03 540.401 523.03C545.441 523.03 545.531 526.54 545.531 527.62C545.531 530.59 544.451 530.545 541.076 530.77C531.896 531.625 529.871 534.055 529.871 538.015C529.871 542.83 533.111 544.9 537.926 544.9C541.031 544.9 544.181 543.73 545.756 540.85C546.251 543.82 547.601 544.18 549.851 544.18C550.706 544.18 551.111 544.135 551.651 544V541.21C549.221 541.345 549.266 540.265 549.266 538.51L549.491 527.935C549.626 521.275 544.091 520.24 540.401 520.24C532.301 520.24 530.681 524.83 530.681 527.89H534.461ZM545.441 534.235C545.081 540.58 541.481 542.11 538.376 542.11C535.811 542.11 533.966 540.58 533.966 537.88C533.966 534.19 536.981 534.01 540.491 533.425C543.011 533.065 544.361 533.245 545.531 532.3L545.441 534.235ZM570.782 533.335H582.077V544H586.037V521.14H582.077V530.545H570.782V521.14H566.822V544H570.782V533.335ZM609 537.385C608.505 539.905 606.48 542.11 602.655 542.11C597.435 542.11 595.41 537.385 595.41 533.47H613.005C613.005 533.11 612.96 532.705 612.96 532.345C612.735 527.395 611.52 520.24 602.385 520.24C591.81 520.24 591.225 529.51 591.225 532.66C591.225 534.73 591.45 544.9 602.79 544.9C609.81 544.9 612.195 540.625 612.78 537.385H609ZM595.41 530.68C595.41 527.8 596.625 523.03 602.475 523.03C607.65 523.03 608.685 527.62 608.82 530.68H595.41ZM634.214 535.855C634.079 538.375 632.639 542.11 628.139 542.11C623.099 542.11 621.074 537.565 621.074 532.39C621.074 527.215 622.919 523.03 627.869 523.03C629.264 523.03 633.179 523.21 634.034 528.295H637.814C637.319 524.02 634.214 520.24 627.779 520.24C618.914 520.24 616.889 527.08 616.889 532.39C616.889 544.585 625.754 544.9 628.049 544.9C636.194 544.9 637.769 538.555 637.994 535.855H634.214ZM646.807 531.13V521.14H642.847V544H646.807V532.57L657.067 544H661.792L650.497 531.76L661.207 521.14H656.572L646.807 531.13ZM662.724 532.57C662.724 538.645 665.649 544.9 673.974 544.9C682.299 544.9 685.224 538.645 685.224 532.57C685.224 526.495 682.299 520.24 673.974 520.24C665.649 520.24 662.724 526.495 662.724 532.57ZM666.909 532.525C666.909 523.345 672.219 522.94 673.974 522.94C675.729 522.94 681.039 523.345 681.039 532.525C681.039 541.705 675.729 542.11 673.974 542.11C672.219 542.11 666.909 541.705 666.909 532.525ZM687.741 544C696.201 545.575 696.921 537.7 696.921 529.735V523.93H705.111V544H709.071V521.14H693.231V529.735C693.231 535.135 693.141 542.155 687.741 541.075V544ZM715.533 521.14V544H726.558C728.538 544 734.388 543.73 734.388 536.89C734.388 530.635 728.628 530.23 725.208 530.23H719.493V521.14H715.533ZM719.493 533.02H724.308C726.288 533.02 730.293 532.75 730.293 536.89C730.293 538.15 730.158 541.21 724.983 541.21H719.493V533.02ZM742.608 531.13V521.14H738.648V544H742.608V532.57L752.868 544H757.593L746.298 531.76L757.008 521.14H752.373L742.608 531.13ZM758.525 532.57C758.525 538.645 761.45 544.9 769.775 544.9C778.1 544.9 781.025 538.645 781.025 532.57C781.025 526.495 778.1 520.24 769.775 520.24C761.45 520.24 758.525 526.495 758.525 532.57ZM762.71 532.525C762.71 523.345 768.02 522.94 769.775 522.94C771.53 522.94 776.84 523.345 776.84 532.525C776.84 541.705 771.53 542.11 769.775 542.11C768.02 542.11 762.71 541.705 762.71 532.525ZM812.72 535.855C812.585 538.375 811.145 542.11 806.645 542.11C801.605 542.11 799.58 537.565 799.58 532.39C799.58 527.215 801.425 523.03 806.375 523.03C807.77 523.03 811.685 523.21 812.54 528.295H816.32C815.825 524.02 812.72 520.24 806.285 520.24C797.42 520.24 795.395 527.08 795.395 532.39C795.395 544.585 804.26 544.9 806.555 544.9C814.7 544.9 816.275 538.555 816.5 535.855H812.72ZM825.827 523.93V544H829.787V523.93H837.707V521.14H817.907V523.93H825.827ZM840.382 521.14V552.325H844.342V540.715C846.367 544.675 850.957 544.9 851.857 544.9C857.077 544.9 862.072 541.435 862.072 532.57C862.072 524.02 857.392 520.24 851.767 520.24C849.787 520.24 846.502 520.825 844.207 524.29H844.072V521.14H840.382ZM844.072 532.66C844.072 524.02 848.887 523.03 850.912 523.03C855.412 523.03 857.887 526.675 857.887 532.57C857.887 539.86 854.332 542.11 851.137 542.11C848.122 542.11 844.072 539.725 844.072 532.66ZM865.927 532.57C865.927 538.645 868.852 544.9 877.177 544.9C885.502 544.9 888.427 538.645 888.427 532.57C888.427 526.495 885.502 520.24 877.177 520.24C868.852 520.24 865.927 526.495 865.927 532.57ZM870.112 532.525C870.112 523.345 875.422 522.94 877.177 522.94C878.932 522.94 884.242 523.345 884.242 532.525C884.242 541.705 878.932 542.11 877.177 542.11C875.422 542.11 870.112 541.705 870.112 532.525ZM897.559 531.13V521.14H893.599V544H897.559V532.57L907.819 544H912.544L901.249 531.76L911.959 521.14H907.324L897.559 531.13Z" fill="black"/>
</svg>
