<svg width="1152" height="744" viewBox="0 0 1152 744" fill="none" xmlns="http://www.w3.org/2000/svg">
<rect width="1152" height="744" rx="20" fill="#F8F5F1"/>
<path d="M91.4855 188.536V173.862H87.1615V206.062H91.4855V189.272L106.619 206.062H112.277L95.9475 188.766L111.265 173.862H105.975L91.4855 188.536ZM119.092 201.324V182.694H115.044V206.062H119.598L131.742 187.386V206.062H135.79V182.694H131.282L119.092 201.324ZM146.449 195.16H157.995V206.062H162.043V182.694H157.995V192.308H146.449V182.694H142.401V206.062H146.449V195.16ZM167.347 194.378C167.347 200.588 170.337 206.982 178.847 206.982C187.357 206.982 190.347 200.588 190.347 194.378C190.347 188.168 187.357 181.774 178.847 181.774C170.337 181.774 167.347 188.168 167.347 194.378ZM171.625 194.332C171.625 184.948 177.053 184.534 178.847 184.534C180.641 184.534 186.069 184.948 186.069 194.332C186.069 203.716 180.641 204.13 178.847 204.13C177.053 204.13 171.625 203.716 171.625 194.332ZM199.682 185.546H211.504V206.062H215.552V182.694H195.634V206.062H199.682V185.546ZM220.849 194.378C220.849 200.588 223.839 206.982 232.349 206.982C240.859 206.982 243.849 200.588 243.849 194.378C243.849 188.168 240.859 181.774 232.349 181.774C223.839 181.774 220.849 188.168 220.849 194.378ZM225.127 194.332C225.127 184.948 230.555 184.534 232.349 184.534C234.143 184.534 239.571 184.948 239.571 194.332C239.571 203.716 234.143 204.13 232.349 204.13C230.555 204.13 225.127 203.716 225.127 194.332ZM253.184 192.906V182.694H249.136V206.062H253.184V194.378L263.672 206.062H268.502L256.956 193.55L267.904 182.694H263.166L253.184 192.906ZM274.724 189.594C274.586 184.718 279.324 184.626 280.796 184.626C285.948 184.626 286.04 188.214 286.04 189.318C286.04 192.354 284.936 192.308 281.486 192.538C272.102 193.412 270.032 195.896 270.032 199.944C270.032 204.866 273.344 206.982 278.266 206.982C281.44 206.982 284.66 205.786 286.27 202.842C286.776 205.878 288.156 206.246 290.456 206.246C291.33 206.246 291.744 206.2 292.296 206.062V203.21C289.812 203.348 289.858 202.244 289.858 200.45L290.088 189.64C290.226 182.832 284.568 181.774 280.796 181.774C272.516 181.774 270.86 186.466 270.86 189.594H274.724ZM285.948 196.08C285.58 202.566 281.9 204.13 278.726 204.13C276.104 204.13 274.218 202.566 274.218 199.806C274.218 196.034 277.3 195.85 280.888 195.252C283.464 194.884 284.844 195.068 286.04 194.102L285.948 196.08ZM295.227 198.886C295.365 201.508 296.653 206.982 305.623 206.982C313.857 206.982 315.559 202.75 315.559 199.806C315.559 196.034 313.029 194.194 310.637 193.826V193.688C312.017 193.32 314.685 192.262 314.685 188.582C314.685 186.558 313.765 181.774 305.439 181.774C303.047 181.774 296.193 182.188 295.825 189.134H299.689C299.689 187.524 300.655 184.626 305.209 184.626C310.039 184.626 310.499 187.616 310.499 188.858C310.499 192.308 307.279 192.492 305.623 192.492H302.633V195.344H306.083C307.279 195.344 311.373 195.436 311.373 199.53C311.373 202.704 308.843 204.13 305.301 204.13C301.115 204.13 299.091 201.6 299.091 198.886H295.227Z" fill="#151921"/>
<path d="M103.47 72.608C103.356 67.592 101.988 60.068 92.9816 54.824C89.6756 52.886 82.7216 49.922 69.1556 49.922C60.3776 49.922 48.8636 51.29 41.1116 59.498C37.3496 63.488 33.3596 70.442 33.3596 81.956C33.3596 94.61 38.3756 101.108 41.2256 103.958C48.8636 111.596 60.3776 112.166 69.7256 112.166C80.2136 112.166 90.5876 111.596 97.5416 104.414C100.392 101.45 103.698 96.206 103.698 88.568V88.226H84.3176C84.2036 92.102 82.3796 95.18 79.9856 96.89C77.1356 98.942 73.1456 99.17 70.5236 99.17C66.7616 99.17 62.2016 98.714 58.7816 95.294C56.1596 92.672 54.1076 88.112 54.1076 81.614C54.1076 79.562 54.2216 72.38 58.4396 67.592C61.6316 63.944 65.9636 62.918 70.4096 62.918C73.6016 62.918 77.2496 63.488 79.8716 65.084C83.6336 67.478 84.0896 70.898 84.2036 72.608H103.47ZM129.925 74.546C130.267 70.214 132.433 67.25 134.713 65.426C138.133 62.69 141.895 62.234 145.999 62.234C149.761 62.234 154.435 62.576 157.855 65.654C159.451 67.022 161.731 69.872 161.959 74.546H129.925ZM161.617 91.076C160.819 94.838 158.653 96.776 156.487 97.802C153.637 99.17 149.077 99.398 146.113 99.398C142.237 99.398 136.765 98.942 133.345 95.522C131.407 93.584 129.583 90.164 129.583 85.148V84.806H182.593V82.754C182.593 75.8 181.909 66.452 174.727 59.27C166.861 51.404 154.891 49.922 145.885 49.922C136.765 49.922 125.707 51.176 117.727 58.928C110.089 66.338 109.063 76.028 109.063 81.956C109.063 89.138 110.431 97.004 117.043 103.616C124.453 111.026 134.371 112.166 147.481 112.166C156.829 112.166 163.783 111.482 169.255 109.088C177.121 105.554 181.111 98.486 181.795 91.076H161.617ZM229.527 63.032C235.113 63.032 238.875 64.97 241.383 67.82C244.005 70.784 245.601 75.344 245.601 80.93C245.601 82.982 245.373 89.708 241.383 94.382C238.191 98.144 234.429 99.056 229.869 99.056C223.827 99.056 220.179 96.776 218.013 94.61C214.821 91.304 213.453 85.946 213.453 81.272C213.453 76.142 215.163 70.898 218.355 67.478C221.775 63.83 225.879 63.032 229.527 63.032ZM193.959 52.088V131.09H214.023V103.844C215.847 106.238 218.697 108.632 221.775 109.886C223.599 110.684 227.247 111.824 235.113 111.824C242.295 111.824 250.845 111.254 257.913 104.414C265.095 97.346 266.349 87.77 266.349 80.588C266.349 73.634 265.209 64.4 257.913 57.56C251.073 51.062 242.637 50.264 235.341 50.264C231.237 50.264 225.765 50.606 220.977 53C218.355 54.368 215.619 56.534 213.453 59.384H213.111V52.088H193.959ZM295.915 74.546C296.257 70.214 298.423 67.25 300.703 65.426C304.123 62.69 307.885 62.234 311.989 62.234C315.751 62.234 320.425 62.576 323.845 65.654C325.441 67.022 327.721 69.872 327.949 74.546H295.915ZM327.607 91.076C326.809 94.838 324.643 96.776 322.477 97.802C319.627 99.17 315.067 99.398 312.103 99.398C308.227 99.398 302.755 98.942 299.335 95.522C297.397 93.584 295.573 90.164 295.573 85.148V84.806H348.583V82.754C348.583 75.8 347.899 66.452 340.717 59.27C332.851 51.404 320.881 49.922 311.875 49.922C302.755 49.922 291.697 51.176 283.717 58.928C276.079 66.338 275.053 76.028 275.053 81.956C275.053 89.138 276.421 97.004 283.033 103.616C290.443 111.026 300.361 112.166 313.471 112.166C322.819 112.166 329.773 111.482 335.245 109.088C343.111 105.554 347.101 98.486 347.785 91.076H327.607ZM405.147 64.856V97.232H377.787C380.637 92.672 382.689 87.884 383.715 83.438C384.741 79.334 385.311 73.862 385.311 68.732V64.856H405.147ZM350.769 97.232L351.909 125.048H367.299V110H417.687V125.048H433.077L434.217 97.232H424.527V52.088H368.667V61.322C368.667 66.794 368.553 73.178 366.843 79.904C364.905 87.656 361.599 93.47 358.863 97.232H350.769ZM462.396 90.848V52.088H442.332V110H463.308L492.948 71.24V110H513.012V52.088H491.922L462.396 90.848ZM547.451 86.402H574.925V110H594.989V52.088H574.925V72.95H547.451V52.088H527.387V110H547.451V86.402ZM654.468 84.236C654.468 90.392 652.758 93.926 650.364 96.32C646.83 99.854 642.726 100.31 639.078 100.31C636.684 100.31 633.606 100.196 631.44 98.486C630.072 97.46 629.046 95.636 629.046 93.584C629.046 90.848 630.756 89.366 631.782 88.682C633.72 87.428 636.57 86.972 639.876 86.63L644.094 86.174C649.794 85.604 652.188 85.262 654.468 83.324V84.236ZM630.756 70.784C630.87 67.25 633.036 65.312 634.062 64.514C636.798 62.576 641.358 62.462 642.726 62.462C645.348 62.462 648.54 62.918 650.706 64.058C653.67 65.654 654.354 67.934 654.354 69.758C654.354 71.126 653.898 72.608 652.986 73.52C651.276 75.344 647.742 75.572 642.384 76.028L633.264 76.826C627.222 77.396 617.532 78.08 612.06 83.324C608.868 86.402 607.728 90.392 607.728 94.724C607.728 102.248 611.376 106.352 614.454 108.518C619.356 111.824 626.766 112.166 632.466 112.166C636.798 112.166 641.7 111.938 646.26 110.456C650.022 109.202 652.872 107.378 655.266 104.3H655.722L656.976 110H678.864V108.404C676.926 108.062 676.014 106.694 675.672 106.124C675.558 105.782 674.76 104.3 674.76 99.17V73.406C674.76 68.618 674.646 62.576 669.858 57.56C663.36 50.72 650.478 49.922 642.384 49.922C632.01 49.922 622.548 50.834 616.05 57.218C612.63 60.638 610.464 65.084 610.464 70.784H630.756ZM752.554 71.924C747.31 71.924 742.864 70.556 740.128 68.162C737.734 66.11 735.682 62.462 735.682 57.56C735.682 52.316 737.848 48.782 740.128 46.73C744.346 43.082 750.73 42.968 752.554 42.968C757.798 42.968 762.244 44.336 764.98 46.73C768.628 49.808 769.198 53.798 769.198 57.104C769.198 60.182 768.628 64.742 764.752 68.162C762.586 70.1 758.824 71.924 752.554 71.924ZM716.986 89.024C717.442 98.828 722.8 104.414 727.474 107.264C732.262 110.114 739.216 111.938 751.756 111.938C760.876 111.938 770.908 111.254 778.774 103.844C784.36 98.6 790.288 87.77 790.288 67.136C790.288 58.13 789.148 46.274 780.484 37.61C771.82 28.946 760.876 28.376 751.3 28.376C743.548 28.376 733.174 28.604 724.738 35.33C719.38 39.548 714.934 46.388 714.934 56.99C714.934 65.426 717.67 72.608 724.396 77.852C732.034 83.78 741.724 84.464 748.792 84.464C760.534 84.464 766.462 81.044 770.566 76.256C770.338 82.64 768.286 90.05 764.41 93.584C760.42 97.232 754.378 97.346 751.756 97.346C745.03 97.346 741.952 95.75 741.496 95.522C737.962 93.698 737.164 91.076 737.05 89.024H716.986ZM879.879 69.986C879.879 61.094 878.625 47.87 868.935 38.408C859.815 29.516 847.731 28.262 838.839 28.262C829.947 28.262 817.863 29.516 808.743 38.408C799.053 47.87 797.799 61.094 797.799 69.986C797.799 78.764 799.053 91.988 808.743 101.45C817.863 110.342 829.947 111.596 838.839 111.596C847.731 111.596 859.815 110.342 868.935 101.45C878.625 91.988 879.879 78.764 879.879 69.986ZM838.839 43.766C842.487 43.766 846.135 43.994 850.011 47.642C855.597 52.772 857.307 61.436 857.307 69.986C857.307 78.422 855.597 87.2 850.011 92.33C846.249 95.75 842.487 96.206 838.839 96.206C835.077 96.206 831.201 95.522 827.667 92.33C822.879 87.998 820.371 80.132 820.371 69.986C820.371 61.436 822.081 52.772 827.667 47.642C831.543 43.994 835.191 43.766 838.839 43.766Z" fill="#151921"/>
<path d="M278.628 237.21V240.844H287.828C287.828 244.8 285.988 251.332 278.076 251.332C267.772 251.332 267.082 240.062 267.082 237.716C267.082 234.266 267.956 224.468 278.122 224.468C284.792 224.468 286.77 228.378 287 231.322H291.324C290.726 226.032 286.816 220.834 278.214 220.834C268.646 220.834 262.482 226.676 262.482 237.578C262.482 250.504 269.934 254.966 277.616 254.966C282.722 254.966 286.494 252.666 288.334 248.802H288.426V254H291.784V237.21H278.628ZM300.857 237.532C300.719 232.656 305.457 232.564 306.929 232.564C312.081 232.564 312.173 236.152 312.173 237.256C312.173 240.292 311.069 240.246 307.619 240.476C298.235 241.35 296.165 243.834 296.165 247.882C296.165 252.804 299.477 254.92 304.399 254.92C307.573 254.92 310.793 253.724 312.403 250.78C312.909 253.816 314.289 254.184 316.589 254.184C317.463 254.184 317.877 254.138 318.429 254V251.148C315.945 251.286 315.991 250.182 315.991 248.388L316.221 237.578C316.359 230.77 310.701 229.712 306.929 229.712C298.649 229.712 296.993 234.404 296.993 237.532H300.857ZM312.081 244.018C311.713 250.504 308.033 252.068 304.859 252.068C302.237 252.068 300.351 250.504 300.351 247.744C300.351 243.972 303.433 243.788 307.021 243.19C309.597 242.822 310.977 243.006 312.173 242.04L312.081 244.018ZM336.265 229.712L335.069 229.758C331.803 229.896 328.445 231.69 327.341 235.14H327.249V230.632H323.201V254H327.249V243.236V241.994C327.249 241.58 327.249 241.166 327.295 240.752C327.663 234.864 330.837 232.794 336.265 232.564V229.712ZM341.646 237.532C341.508 232.656 346.246 232.564 347.718 232.564C352.87 232.564 352.962 236.152 352.962 237.256C352.962 240.292 351.858 240.246 348.408 240.476C339.024 241.35 336.954 243.834 336.954 247.882C336.954 252.804 340.266 254.92 345.188 254.92C348.362 254.92 351.582 253.724 353.192 250.78C353.698 253.816 355.078 254.184 357.378 254.184C358.252 254.184 358.666 254.138 359.218 254V251.148C356.734 251.286 356.78 250.182 356.78 248.388L357.01 237.578C357.148 230.77 351.49 229.712 347.718 229.712C339.438 229.712 337.782 234.404 337.782 237.532H341.646ZM352.87 244.018C352.502 250.504 348.822 252.068 345.648 252.068C343.026 252.068 341.14 250.504 341.14 247.744C341.14 243.972 344.222 243.788 347.81 243.19C350.386 242.822 351.766 243.006 352.962 242.04L352.87 244.018ZM364.45 256.622C365.922 262.97 372.224 262.878 374.478 262.878C376.732 262.878 384.966 262.372 384.966 253.402V230.632H381.194V233.852H381.056C379.584 231.138 376.824 229.712 372.96 229.712C362.84 229.712 362.84 239.97 362.84 242.132C362.84 251.148 367.854 254.92 373.374 254.92C376.824 254.92 378.756 253.678 380.918 250.182V252.712C380.918 253.954 380.826 259.98 374.478 259.98C371.994 259.98 369.05 259.336 368.314 256.622H364.45ZM374.294 252.068C372.408 252.068 367.118 251.424 367.118 241.994C367.118 240.108 367.118 232.564 373.926 232.564C378.71 232.564 381.194 236.152 381.194 242.04C381.194 251.056 375.766 252.068 374.294 252.068ZM408.408 247.238C407.902 249.814 405.832 252.068 401.922 252.068C396.586 252.068 394.516 247.238 394.516 243.236H412.502C412.502 242.868 412.456 242.454 412.456 242.086C412.226 237.026 410.984 229.712 401.646 229.712C390.836 229.712 390.238 239.188 390.238 242.408C390.238 244.524 390.468 254.92 402.06 254.92C409.236 254.92 411.674 250.55 412.272 247.238H408.408ZM394.516 240.384C394.516 237.44 395.758 232.564 401.738 232.564C407.028 232.564 408.086 237.256 408.224 240.384H394.516ZM416.564 243.788C417.07 253.954 425.258 254.966 429.858 254.966C432.526 254.966 442.6 254.874 442.6 245.26C442.6 237.532 436.068 236.336 430.318 235.232C426.086 234.404 422.268 233.76 422.268 229.85C422.268 226.538 425.258 224.468 429.72 224.468C431.79 224.468 436.85 224.836 437.448 230.172H441.772C441.404 225.204 437.816 220.834 429.858 220.834C422.59 220.834 417.668 224.008 417.668 230.08C417.668 237.486 424.154 238.084 431.514 239.694C434.504 240.338 438 241.396 438 245.352C438 248.434 435.792 251.332 430.088 251.332C424.2 251.332 420.75 248.066 420.888 243.788H416.564ZM464.37 245.674C464.232 248.25 462.76 252.068 458.16 252.068C453.008 252.068 450.938 247.422 450.938 242.132C450.938 236.842 452.824 232.564 457.884 232.564C459.31 232.564 463.312 232.748 464.186 237.946H468.05C467.544 233.576 464.37 229.712 457.792 229.712C448.73 229.712 446.66 236.704 446.66 242.132C446.66 254.598 455.722 254.92 458.068 254.92C466.394 254.92 468.004 248.434 468.234 245.674H464.37ZM486.259 229.712L485.063 229.758C481.797 229.896 478.439 231.69 477.335 235.14H477.243V230.632H473.195V254H477.243V243.236V241.994C477.243 241.58 477.243 241.166 477.289 240.752C477.657 234.864 480.831 232.794 486.259 232.564V229.712ZM505.259 247.238C504.753 249.814 502.683 252.068 498.773 252.068C493.437 252.068 491.367 247.238 491.367 243.236H509.353C509.353 242.868 509.307 242.454 509.307 242.086C509.077 237.026 507.835 229.712 498.497 229.712C487.687 229.712 487.089 239.188 487.089 242.408C487.089 244.524 487.319 254.92 498.911 254.92C506.087 254.92 508.525 250.55 509.123 247.238H505.259ZM491.367 240.384C491.367 237.44 492.609 232.564 498.589 232.564C503.879 232.564 504.937 237.256 505.075 240.384H491.367ZM531.494 247.238C530.988 249.814 528.918 252.068 525.008 252.068C519.672 252.068 517.602 247.238 517.602 243.236H535.588C535.588 242.868 535.542 242.454 535.542 242.086C535.312 237.026 534.07 229.712 524.732 229.712C513.922 229.712 513.324 239.188 513.324 242.408C513.324 244.524 513.554 254.92 525.146 254.92C532.322 254.92 534.76 250.55 535.358 247.238H531.494ZM517.602 240.384C517.602 237.44 518.844 232.564 524.824 232.564C530.114 232.564 531.172 237.256 531.31 240.384H517.602ZM540.892 230.632V254H544.94V241.258C544.94 233.53 549.448 232.564 551.656 232.564C556.67 232.564 556.578 237.21 556.578 239.694V254H560.626V238.452C560.626 233.806 559.062 229.712 552.944 229.712C549.264 229.712 546.55 231.552 544.94 233.898V230.632H540.892Z" fill="black"/>
<path d="M650.814 575.812H606.81C607.722 572.962 609.318 571.708 611.37 570.34C613.878 568.744 617.298 566.806 624.708 563.386L631.776 560.08C636.792 557.686 642.264 555.634 646.14 552.1C650.814 547.768 652.182 542.41 652.182 536.71C652.182 528.73 649.56 521.89 642.036 516.646C634.284 511.174 623.91 510.262 616.044 510.262C609.774 510.262 597.576 510.718 589.368 517.216C584.466 521.092 579.792 527.59 579.792 538.534V538.99H600.54V538.192C600.54 533.176 603.048 530.44 604.416 529.186C607.608 526.45 612.168 525.994 615.702 525.994C621.06 525.994 624.252 527.02 626.19 528.16C628.584 529.528 630.978 532.036 630.978 536.71C630.978 540.244 629.382 542.866 626.76 545.032C623.682 547.54 619.692 549.136 614.676 551.53L605.784 555.862C599.286 559.054 593.13 562.36 588.456 566.692C579.906 574.672 578.994 583.45 578.994 591.43V592H650.814V575.812ZM662.349 535.684H678.309V592H699.285V512.2H683.439C682.413 517.33 679.563 520.636 677.169 522.346C673.977 524.626 668.163 526.108 663.033 526.108H662.349V535.684ZM782.538 572.848V534.088H762.474V592H783.45L813.09 553.24V592H833.154V534.088H812.064L782.538 572.848ZM914.56 544.348C920.488 544.348 924.364 546.514 926.53 548.566C929.722 551.644 931.66 556.774 931.66 562.588C931.66 568.06 929.95 573.76 926.53 577.294C922.996 580.828 918.892 581.626 914.788 581.626C910.342 581.626 906.124 580.942 902.59 577.522C898.258 573.418 897.46 567.718 897.46 563.5C897.46 556.66 899.626 551.758 902.59 548.794C906.466 544.918 911.254 544.348 914.56 544.348ZM867.592 555.406V534.088H847.528V592H867.592V567.946H877.966C878.764 576.61 882.868 582.196 885.946 585.274C894.04 593.368 904.642 594.166 915.472 594.166C924.592 594.166 935.878 593.482 944.428 584.59C948.646 580.144 952.408 573.304 952.408 563.044C952.408 552.214 948.19 545.488 943.744 541.27C938.044 535.912 928.354 531.808 913.99 531.808C906.01 531.808 895.636 533.176 887.998 539.788C885.946 541.612 880.816 546.628 878.878 555.406H867.592ZM983.819 568.402H1011.29V592H1031.36V534.088H1011.29V554.95H983.819V534.088H963.755V592H983.819V568.402ZM1088.56 545.716V560.536H1075.9C1069.18 560.536 1066.9 559.054 1066.1 558.256C1064.84 557.116 1064.05 555.178 1064.05 553.126C1064.05 550.96 1064.84 549.364 1065.98 548.224C1068.61 545.716 1073.39 545.716 1076.81 545.716H1088.56ZM1079.21 572.164H1088.56V592H1108.62V534.088H1069.4C1064.05 534.088 1057.09 534.772 1052.08 538.306C1046.15 542.524 1044.89 548.68 1044.89 553.354C1044.89 555.976 1045.12 561.448 1049 565.324C1051.73 568.174 1056.86 570.112 1061.08 570.568L1042.96 592H1064.73L1079.21 572.164Z" fill="black"/>
<path d="M760.494 646.684H776.454V703H797.43V623.2H781.584C780.558 628.33 777.708 631.636 775.314 633.346C772.122 635.626 766.308 637.108 761.178 637.108H760.494V646.684ZM858.454 664.924C853.21 664.924 848.764 663.556 846.028 661.162C843.634 659.11 841.582 655.462 841.582 650.56C841.582 645.316 843.748 641.782 846.028 639.73C850.246 636.082 856.63 635.968 858.454 635.968C863.698 635.968 868.144 637.336 870.88 639.73C874.528 642.808 875.098 646.798 875.098 650.104C875.098 653.182 874.528 657.742 870.652 661.162C868.486 663.1 864.724 664.924 858.454 664.924ZM822.886 682.024C823.342 691.828 828.7 697.414 833.374 700.264C838.162 703.114 845.116 704.938 857.656 704.938C866.776 704.938 876.808 704.254 884.674 696.844C890.26 691.6 896.188 680.77 896.188 660.136C896.188 651.13 895.048 639.274 886.384 630.61C877.72 621.946 866.776 621.376 857.2 621.376C849.448 621.376 839.074 621.604 830.638 628.33C825.28 632.548 820.834 639.388 820.834 649.99C820.834 658.426 823.57 665.608 830.296 670.852C837.934 676.78 847.624 677.464 854.692 677.464C866.434 677.464 872.362 674.044 876.466 669.256C876.238 675.64 874.186 683.05 870.31 686.584C866.32 690.232 860.278 690.346 857.656 690.346C850.93 690.346 847.852 688.75 847.396 688.522C843.862 686.698 843.064 684.076 842.95 682.024H822.886ZM913.73 703H934.706V684.304H913.73V703ZM913.73 663.784H934.706V645.088H913.73V663.784ZM951.406 676.438V676.78C951.406 682.48 952.432 690.232 958.246 696.388C965.884 704.368 978.31 704.824 990.166 704.824C1003.28 704.824 1013.54 703.57 1020.49 696.274C1024.14 692.512 1026.53 687.04 1026.53 679.744C1026.53 674.842 1025.16 670.624 1021.63 667.09C1019.01 664.582 1015.02 662.302 1010.12 661.732V661.162C1015.47 660.592 1018.67 657.742 1019.58 656.83C1022.77 653.638 1023.68 649.648 1023.68 645.772C1023.68 639.388 1021.4 631.864 1012.85 626.734C1008.86 624.34 1001.45 621.49 987.316 621.49C979.45 621.49 968.392 622.402 961.096 628.102C957.562 630.838 951.862 637.108 951.862 648.28V648.622H972.382C972.382 643.834 975.004 641.212 976.6 640.072C979.222 638.134 983.326 637.222 987.43 637.222C990.508 637.222 995.296 637.792 997.918 639.16C1001.57 640.984 1002.71 643.948 1002.71 646.456C1002.71 648.85 1001.68 651.13 1000.08 652.498C997.348 654.892 992.446 655.348 985.264 655.348H980.818V669.484H985.15C990.508 669.484 995.182 669.37 998.83 670.738C1002.36 672.106 1004.64 674.386 1004.64 678.49C1004.64 682.48 1002.48 685.444 999.97 686.926C996.778 688.75 991.42 689.092 988.114 689.092C985.15 689.092 979.45 688.75 976.03 686.242C972.154 683.278 971.926 679.06 971.926 676.894V676.438H951.406ZM1117.03 662.986C1117.03 654.094 1115.78 640.87 1106.09 631.408C1096.97 622.516 1084.89 621.262 1075.99 621.262C1067.1 621.262 1055.02 622.516 1045.9 631.408C1036.21 640.87 1034.95 654.094 1034.95 662.986C1034.95 671.764 1036.21 684.988 1045.9 694.45C1055.02 703.342 1067.1 704.596 1075.99 704.596C1084.89 704.596 1096.97 703.342 1106.09 694.45C1115.78 684.988 1117.03 671.764 1117.03 662.986ZM1075.99 636.766C1079.64 636.766 1083.29 636.994 1087.17 640.642C1092.75 645.772 1094.46 654.436 1094.46 662.986C1094.46 671.422 1092.75 680.2 1087.17 685.33C1083.4 688.75 1079.64 689.206 1075.99 689.206C1072.23 689.206 1068.36 688.522 1064.82 685.33C1060.03 680.998 1057.53 673.132 1057.53 662.986C1057.53 654.436 1059.24 645.772 1064.82 640.642C1068.7 636.994 1072.35 636.766 1075.99 636.766Z" fill="black"/>
<path d="M185.12 682.265H205.433L204.038 688.143H183.724L180.32 702.736H171.67L179.985 667.266H212.856L211.461 673.245H187.24L185.12 682.265Z" fill="#151921"/>
<path d="M234.706 682.974L249.16 667.266H258.815L237.329 688.7L234.036 702.736H225.386L228.679 688.7L217.238 667.266H227.507L234.706 682.974Z" fill="#151921"/>
<path d="M56.5353 683.989H75.8447L71.4917 702.738H65.1854L65.9667 697.468H65.6877C64.2739 699.427 62.4322 700.964 60.1627 702.079C57.9304 703.194 54.9912 703.751 51.3451 703.751C48.778 703.751 46.4527 703.515 44.3692 703.042C42.3229 702.569 40.3697 701.589 38.5094 700.103C34.8633 697.231 33.0403 693.127 33.0403 687.789C33.0403 680.932 35.6074 675.442 40.7417 671.321C43.3089 669.294 46.0248 667.943 48.8896 667.267C51.7544 666.591 55.0285 666.253 58.7118 666.253C60.386 666.253 61.7998 666.304 62.9531 666.405C64.1437 666.473 65.6319 666.777 67.4177 667.318C69.2408 667.858 70.7848 668.618 72.0497 669.598C74.9517 672.233 76.4585 675.29 76.5702 678.77H67.6409C67.4177 676.574 66.3946 674.902 64.5715 673.753C63.0461 672.739 60.8882 672.233 58.0979 672.233C53.8193 672.233 50.3592 673.314 47.7177 675.476C46.0806 676.76 44.7599 678.449 43.7553 680.543C42.7508 682.604 42.2485 684.901 42.2485 687.435C42.2485 690.779 43.2159 693.329 45.1505 695.086C47.0852 696.876 49.7453 697.772 53.131 697.772C56.7399 697.772 59.7163 696.843 62.0602 694.985C64.0321 693.532 65.5017 691.522 66.469 688.955H55.4191L56.5353 683.989Z" fill="#151921"/>
<path d="M104.25 684.369C104.25 694.514 97.6916 702.738 89.6009 702.738C81.5102 702.738 74.9514 694.514 74.9514 684.369C74.9514 674.224 81.5102 666 89.6009 666C97.6916 666 104.25 674.224 104.25 684.369Z" fill="#151921"/>
<path fill-rule="evenodd" clip-rule="evenodd" d="M163.694 696.259C169.86 693.044 173.312 688.794 173.312 684.369C173.312 679.944 169.86 675.694 163.694 672.479C157.566 669.283 149.007 667.267 139.478 667.267C129.949 667.267 121.391 669.283 115.263 672.479C109.097 675.694 105.645 679.944 105.645 684.369C105.645 688.794 109.097 693.044 115.263 696.259C121.391 699.454 129.949 701.471 139.478 701.471C149.007 701.471 157.566 699.454 163.694 696.259ZM139.478 702.738C158.934 702.738 174.707 694.514 174.707 684.369C174.707 674.224 158.934 666 139.478 666C120.022 666 104.25 674.224 104.25 684.369C104.25 694.514 120.022 702.738 139.478 702.738Z" fill="#151921"/>
<path d="M554.133 704.315C554.869 707.489 558.02 707.443 559.147 707.443C560.274 707.443 564.391 707.19 564.391 702.705V691.32H562.505V692.93H562.436C561.7 691.573 560.32 690.86 558.388 690.86C553.328 690.86 553.328 695.989 553.328 697.07C553.328 701.578 555.835 703.464 558.595 703.464C560.32 703.464 561.286 702.843 562.367 701.095V702.36C562.367 702.981 562.321 705.994 559.147 705.994C557.905 705.994 556.433 705.672 556.065 704.315H554.133ZM559.055 702.038C558.112 702.038 555.467 701.716 555.467 697.001C555.467 696.058 555.467 692.286 558.871 692.286C561.263 692.286 562.505 694.08 562.505 697.024C562.505 701.532 559.791 702.038 559.055 702.038ZM567.027 697.162C567.027 700.267 568.522 703.464 572.777 703.464C577.032 703.464 578.527 700.267 578.527 697.162C578.527 694.057 577.032 690.86 572.777 690.86C568.522 690.86 567.027 694.057 567.027 697.162ZM569.166 697.139C569.166 692.447 571.88 692.24 572.777 692.24C573.674 692.24 576.388 692.447 576.388 697.139C576.388 701.831 573.674 702.038 572.777 702.038C571.88 702.038 569.166 701.831 569.166 697.139ZM580.504 697.162C580.504 700.267 581.999 703.464 586.254 703.464C590.509 703.464 592.004 700.267 592.004 697.162C592.004 694.057 590.509 690.86 586.254 690.86C581.999 690.86 580.504 694.057 580.504 697.162ZM582.643 697.139C582.643 692.447 585.357 692.24 586.254 692.24C587.151 692.24 589.865 692.447 589.865 697.139C589.865 701.831 587.151 702.038 586.254 702.038C585.357 702.038 582.643 701.831 582.643 697.139ZM600.029 691.32H597.476V689.917C597.476 689.434 597.499 688.307 598.603 688.307C598.81 688.307 599.04 688.261 600.029 688.33V686.904C599.684 686.881 598.971 686.812 598.534 686.812C596.441 686.812 595.452 687.709 595.452 689.733V691.32H593.29V692.746H595.452V703.004H597.476V692.746H600.029V691.32ZM602.609 707.236C603.046 707.328 603.621 707.351 604.265 707.351C606.473 707.351 606.956 705.488 607.324 704.384L611.97 691.32H609.946L606.841 700.773L603.092 691.32H600.677L605.737 703.004L605.461 703.878C605.093 704.913 604.817 705.856 603.621 705.856C603.437 705.856 603.23 705.833 602.609 705.741V707.236ZM612.612 703.004H614.889V700.497H612.612V703.004ZM627.161 698.841C627.092 700.129 626.356 702.038 624.056 702.038C621.48 702.038 620.445 699.715 620.445 697.07C620.445 694.425 621.388 692.286 623.918 692.286C624.631 692.286 626.632 692.378 627.069 694.977H629.001C628.748 692.792 627.161 690.86 623.872 690.86C619.341 690.86 618.306 694.356 618.306 697.07C618.306 703.303 622.837 703.464 624.01 703.464C628.173 703.464 628.978 700.221 629.093 698.841H627.161ZM630.906 697.162C630.906 700.267 632.401 703.464 636.656 703.464C640.911 703.464 642.406 700.267 642.406 697.162C642.406 694.057 640.911 690.86 636.656 690.86C632.401 690.86 630.906 694.057 630.906 697.162ZM633.045 697.139C633.045 692.447 635.759 692.24 636.656 692.24C637.553 692.24 640.267 692.447 640.267 697.139C640.267 701.831 637.553 702.038 636.656 702.038C635.759 702.038 633.045 701.831 633.045 697.139ZM645.05 691.32V703.004H647.074V696.035C647.074 693.735 648.477 692.286 650.156 692.286C651.996 692.286 652.41 693.919 652.41 695.621V703.004H654.434V696.035C654.434 693.022 656.136 692.286 657.516 692.286C659.609 692.286 659.77 694.379 659.77 695.598V703.004H661.794V695.46C661.794 694.172 661.633 690.86 658.045 690.86C655.63 690.86 654.411 692.47 653.997 693.367C653.698 692.148 652.686 690.86 650.662 690.86C649.213 690.86 647.672 691.688 647.051 693.045L647.074 692.907V691.32H645.05Z" fill="black"/>
<line y1="317.5" x2="1152" y2="317.5" stroke="#416552"/>
<line y1="253.5" x2="1152" y2="253.5" stroke="#416552"/>
<line y1="93.5" x2="1152" y2="93.5" stroke="#416552"/>
<line y1="237.5" x2="1152" y2="237.5" stroke="#416552"/>
<line y1="205.5" x2="1152" y2="205.5" stroke="#416552"/>
<line y1="173.5" x2="1152" y2="173.5" stroke="#416552"/>
<line y1="141.5" x2="1152" y2="141.5" stroke="#416552"/>
<line y1="285.5" x2="1152" y2="285.5" stroke="#416552"/>
<line y1="269.5" x2="1152" y2="269.5" stroke="#416552"/>
<line y1="109.5" x2="1152" y2="109.5" stroke="#416552"/>
<line y1="77.5" x2="1152" y2="77.5" stroke="#416552"/>
<line y1="189.5" x2="1152" y2="189.5" stroke="#416552"/>
<line y1="157.5" x2="1152" y2="157.5" stroke="#416552"/>
<line y1="125.5" x2="1152" y2="125.5" stroke="#416552"/>
<line y1="301.5" x2="1152" y2="301.5" stroke="#416552"/>
<line y1="61.5" x2="1152" y2="61.5" stroke="#416552"/>
<line y1="45.5" x2="1152" y2="45.5" stroke="#416552"/>
<line y1="29.5" x2="1152" y2="29.5" stroke="#416552"/>
<line y1="365.5" x2="1152" y2="365.5" stroke="#416552"/>
<line y1="221.5" x2="1152" y2="221.5" stroke="#416552"/>
<line y1="333.5" x2="1152" y2="333.5" stroke="#416552"/>
<line y1="349.5" x2="1152" y2="349.5" stroke="#416552"/>
<line y1="669.5" x2="1152" y2="669.5" stroke="#416552"/>
<line y1="605.5" x2="1152" y2="605.5" stroke="#416552"/>
<line y1="445.5" x2="1152" y2="445.5" stroke="#416552"/>
<line y1="589.5" x2="1152" y2="589.5" stroke="#416552"/>
<line y1="557.5" x2="1152" y2="557.5" stroke="#416552"/>
<line y1="525.5" x2="1152" y2="525.5" stroke="#416552"/>
<line y1="493.5" x2="1152" y2="493.5" stroke="#416552"/>
<line y1="637.5" x2="1152" y2="637.5" stroke="#416552"/>
<line y1="621.5" x2="1152" y2="621.5" stroke="#416552"/>
<line y1="461.5" x2="1152" y2="461.5" stroke="#416552"/>
<line y1="429.5" x2="1152" y2="429.5" stroke="#416552"/>
<line y1="541.5" x2="1152" y2="541.5" stroke="#416552"/>
<line y1="509.5" x2="1152" y2="509.5" stroke="#416552"/>
<line y1="477.5" x2="1152" y2="477.5" stroke="#416552"/>
<line y1="653.5" x2="1152" y2="653.5" stroke="#416552"/>
<line y1="413.5" x2="1152" y2="413.5" stroke="#416552"/>
<line y1="397.5" x2="1152" y2="397.5" stroke="#416552"/>
<line y1="381.5" x2="1152" y2="381.5" stroke="#416552"/>
<line y1="717.5" x2="1152" y2="717.5" stroke="#416552"/>
<line y1="733.5" x2="1152" y2="733.5" stroke="#416552"/>
<line y1="573.5" x2="1152" y2="573.5" stroke="#416552"/>
<line y1="685.5" x2="1152" y2="685.5" stroke="#416552"/>
<line y1="701.5" x2="1152" y2="701.5" stroke="#416552"/>
</svg>
